<?xml version="1.0" encoding="utf-8"?>
<!-- Generator: Adobe Illustrator 21.1.0, SVG Export Plug-In . SVG Version: 6.00 Build 0)  -->
<!DOCTYPE svg PUBLIC "-//W3C//DTD SVG 1.1//EN" "http://www.w3.org/Graphics/SVG/1.1/DTD/svg11.dtd">
<svg version="1.1" id="Laag_1" xmlns="http://www.w3.org/2000/svg" xmlns:xlink="http://www.w3.org/1999/xlink" x="0px" y="0px"
	 viewBox="0 0 733.7 286.1" style="enable-background:new 0 0 733.7 286.1;" xml:space="preserve">
<style type="text/css">
	.st0{clip-path:url(#SVGID_2_);fill:#BEBEBE;}
</style>
<g>
	<defs>
		<rect id="SVGID_1_" x="0" width="733.7" height="286.1"/>
	</defs>
	<clipPath id="SVGID_2_">
		<use xlink:href="#SVGID_1_"  style="overflow:visible;"/>
	</clipPath>
	<path class="st0" d="M367.9,166.1l37.5,8.4l-16.6,8.1l-37.5-8.3L367.9,166.1z M288.5,262.7c0,0,82.9,19.6,83,19.7
		c1.5,0.3,3-0.1,3.9-0.6l81-44.3c2.7-1.5,3.8-5.1,2.4-8c-1.4-2.9-4.8-4-7.5-2.5L372,270.4l-87.4-20.6c-5.2-1.2-8.4-6.6-7.2-12.1
		c1.2-5.5,6.3-8.9,11.4-7.7c0,0,84.1,19.7,84.3,19.7c0.9,0,1.8-0.2,2.6-0.7l81-44.3c2.7-1.5,3.8-5.1,2.4-8c-1.4-2.9-4.8-4-7.5-2.5
		l-79.4,43.4l-87.3-20.6c-5.2-1.2-8.4-6.6-7.2-12.1c1.2-5.5,6.3-8.9,11.4-7.7c0,0,78.7,18.5,79.1,18.5c0.9,0,1.8-0.3,2.6-0.8
		c0,0,81.3-43.7,81.3-43.7c5.5-2.9,5-6.4-1-7.7l-78.3-17c-6-1.3-15.5-0.1-21,2.8l-72.9,37.2c-1.2,0.6-2,1.2-2.7,1.9
		c-4.6,3-8.2,7.9-9.4,13.9c-1.7,8,1,15.9,6.2,21c-3.2,3-5.5,7-6.5,11.7c-6.2,25.2,36.7,31.3,25,28.1"/>
	<path class="st0" d="M629.2,125.5l38.8,8.9l-17.2,8.7l-38.8-8.9L629.2,125.5z M632.9,249.4c1.5,0.3,3.1-0.2,4-0.6l83.8-47.2
		c2.8-1.6,4-5.4,2.5-8.5c-1.5-3.1-4.9-4.3-7.8-2.7l-82.1,46.3l-90.4-22c-5.3-1.3-8.7-7.1-7.5-12.9c1.2-5.8,6.5-9.5,11.8-8.2
		c0,0,87.1,21,87.2,21c0.9,0,1.8-0.2,2.7-0.7l83.8-47.2c2.8-1.6,4-5.4,2.5-8.5c-1.5-3.1-4.9-4.3-7.8-2.7l-82.2,46.3l-90.3-21.9
		c-5.3-1.3-8.7-7.1-7.5-12.9c1.2-5.8,6.5-9.5,11.8-8.2c0,0,81.4,19.7,81.8,19.7c1,0,1.9-0.3,2.7-0.8c0,0,84.1-46.6,84.1-46.6
		c5.7-3.1,5.2-6.9-1-8.2l-81-18.1c-6.2-1.4-16-0.1-21.7,3l-75.4,39.7c-1.2,0.6-2.1,1.3-2.8,2c-4.8,3.2-8.4,8.4-9.8,14.9
		c-1.7,8.5,1,16.9,6.5,22.4c-3.3,3.2-5.7,7.4-6.8,12.4c-1.7,8.5,1,16.9,6.5,22.4c-3.3,3.2-5.7,7.4-6.8,12.4
		c-2.6,12.6,4.7,25.1,16.2,27.9c0,0,92.7,22.5,93.1,22.4c1-0.1,2.5-0.2,3.4-0.7l83.8-47.2c2.8-1.6,4-5.4,2.5-8.5
		c-1.5-3.1-4.9-4.3-7.8-2.7L633,271.5l-90.3-21.9c-5.3-1.3-8.7-7.1-7.5-12.9c1.2-5.8,6.5-9.5,11.8-8.2
		C547.1,228.4,632.8,249.4,632.9,249.4"/>
	<path class="st0" d="M393.9,102.2l-12.5-28.8c-0.5-1.2-1.3-2.2-2.2-3v0c-0.6-0.5-1.3-0.9-2.1-1c-0.3-0.1-0.6-0.2-0.9-0.2H374h-4.2
		v-1.6c5.8-1.5,10.1-6.8,10.1-13c0-7.4-6-13.5-13.5-13.5c-7.4,0-13.5,6-13.5,13.5c0,6.3,4.3,11.6,10.1,13v1.6h-4.9H356
		c-0.4,0-0.7,0.1-1.1,0.2c-0.7,0.2-1.4,0.6-2.1,1.2c-0.9,0.8-1.7,1.8-2.2,3l-12.5,28.8c-1.4,3.3-0.6,6.9,1.9,8
		c2.5,1.1,5.7-0.8,7.1-4.1l5.7-13.1V105v2.5v2.2v32c0,3.4,2.3,6.2,5.2,6.2h1.7c2.9,0,5.2-2.8,5.2-6.2v-26.8h2.1v26.8
		c0,3.4,2.3,6.2,5.2,6.2h1.7c2.9,0,5.2-2.8,5.2-6.2v-32v-2.2v-4.3V93l5.7,13.1c1.4,3.3,4.6,5.2,7.1,4.1
		C394.5,109.1,395.3,105.6,393.9,102.2"/>
	<path class="st0" d="M655.3,61.1l-12.5-28.8c-0.5-1.2-1.3-2.2-2.2-3v0c-0.6-0.5-1.3-0.9-2.1-1c-0.3-0.1-0.6-0.2-0.9-0.2h-2.3h-4.2
		v-1.6c5.8-1.5,10.1-6.8,10.1-13c0-7.4-6-13.5-13.5-13.5c-7.4,0-13.5,6-13.5,13.5c0,6.3,4.3,11.6,10.1,13v1.6h-4.9h-2.1
		c-0.4,0-0.7,0.1-1.1,0.2c-0.7,0.2-1.4,0.6-2.1,1.2c-0.9,0.8-1.7,1.8-2.2,3l-12.5,28.8c-1.4,3.3-0.6,6.9,1.9,8
		c2.5,1.1,5.7-0.8,7.1-4.1l5.7-13.1v11.8v2.5v2.2v32c0,3.4,2.3,6.2,5.2,6.2h1.7c2.9,0,5.2-2.8,5.2-6.2V73.8h2.1v26.8
		c0,3.4,2.3,6.2,5.2,6.2h1.7c2.9,0,5.2-2.8,5.2-6.2v-32v-2.2v-4.3V51.9l5.7,13.1c1.4,3.3,4.6,5.2,7.1,4.1
		C655.9,68.1,656.7,64.5,655.3,61.1"/>
	<path class="st0" d="M131.4,131.8L118.9,103c-0.5-1.2-1.3-2.2-2.2-3v0c-0.6-0.5-1.3-0.9-2.1-1c-0.3-0.1-0.6-0.2-0.9-0.2h-2.3h-4.2
		v-1.6c5.8-1.5,10.1-6.8,10.1-13c0-7.4-6-13.5-13.5-13.5c-7.4,0-13.5,6-13.5,13.5c0,6.3,4.3,11.6,10.1,13v1.6h-4.9h-2.1
		c-0.4,0-0.7,0.1-1.1,0.2c-0.7,0.2-1.4,0.6-2.1,1.2c-0.9,0.8-1.7,1.8-2.2,3L75.7,132c-1.4,3.3-0.6,6.9,1.9,8
		c2.5,1.1,5.7-0.8,7.1-4.1l5.7-13.1v11.8v2.5v2.2v32c0,3.4,2.3,6.2,5.2,6.2h1.7c2.9,0,5.2-2.8,5.2-6.2v-26.8h2.1v26.8
		c0,3.4,2.3,6.2,5.2,6.2h1.7c2.9,0,5.2-2.8,5.2-6.2v-32V137v-4.3v-10.2l5.7,13.1c1.4,3.3,4.6,5.2,7.1,4.1
		C132,138.7,132.8,135.1,131.4,131.8"/>
	<path class="st0" d="M22.6,264c0,0,84.1,20.7,84.3,20.7c0.9,0,1.8-0.2,2.6-0.7l81-46.5c2.7-1.6,3.8-5.3,2.4-8.4
		c-1.4-3-4.8-4.2-7.5-2.7L106,272.1l-87.3-21.6c-5.2-1.3-8.4-7-7.2-12.7c1.2-5.7,6.3-9.4,11.4-8.1c0,0,78.7,19.4,79.1,19.4
		c0.9,0,1.8-0.3,2.6-0.8c0,0,81.3-45.9,81.3-45.9c5.5-3.1,5-6.8-1-8.1l-78.3-17.8c-6-1.4-15.5-0.1-21,2.9l-72.9,39.1
		c-1.2,0.6-2,1.3-2.7,2c-4.6,3.1-8.2,8.3-9.5,14.6c-5.3,21.8,26.4,30.2,15.8,27L22.6,264z M101.8,196.9l37.5,8.8l-16.6,8.6
		l-37.5-8.8L101.8,196.9z"/>
</g>
</svg>
