<?xml version="1.0" encoding="UTF-8" standalone="no"?>
<!-- Created with Inkscape (http://www.inkscape.org/) -->

<svg
   xmlns:dc="http://purl.org/dc/elements/1.1/"
   xmlns:cc="http://creativecommons.org/ns#"
   xmlns:rdf="http://www.w3.org/1999/02/22-rdf-syntax-ns#"
   xmlns:svg="http://www.w3.org/2000/svg"
   xmlns="http://www.w3.org/2000/svg"
   xmlns:sodipodi="http://sodipodi.sourceforge.net/DTD/sodipodi-0.dtd"
   xmlns:inkscape="http://www.inkscape.org/namespaces/inkscape"
   version="1.1"
   width="1062.6807"
   height="180.61383"
   id="svg2"
   inkscape:version="0.48.4 r9939"
   sodipodi:docname="logo-vds.svg">
  <sodipodi:namedview
     pagecolor="#ffffff"
     bordercolor="#666666"
     borderopacity="1"
     objecttolerance="10"
     gridtolerance="10"
     guidetolerance="10"
     inkscape:pageopacity="0"
     inkscape:pageshadow="2"
     inkscape:window-width="1920"
     inkscape:window-height="1056"
     id="namedview3126"
     showgrid="false"
     inkscape:zoom="1"
     inkscape:cx="435.36398"
     inkscape:cy="93.321536"
     inkscape:window-x="0"
     inkscape:window-y="24"
     inkscape:window-maximized="1"
     inkscape:current-layer="layer1"
     fit-margin-top="0"
     fit-margin-left="0"
     fit-margin-right="0"
     fit-margin-bottom="0"
     showguides="true"
     inkscape:guide-bbox="true" />
  <defs
     id="defs4" />
  <metadata
     id="metadata7">
    <rdf:RDF>
      <cc:Work
         rdf:about="">
        <dc:format>image/svg+xml</dc:format>
        <dc:type
           rdf:resource="http://purl.org/dc/dcmitype/StillImage" />
        <dc:title></dc:title>
      </cc:Work>
    </rdf:RDF>
  </metadata>
  <g
     transform="translate(243.63907,-339.35714)"
     id="layer1">
    <path
       d="m 254.38127,518.81183 c -4.90687,-0.87882 -6.94571,-3.06984 -11.44279,-12.29689 -2.34776,-4.81712 -4.78208,-9.07946 -5.40959,-9.47188 -1.70595,-1.06683 -2.98955,-1.1648 -17.35216,-1.32449 -14.23575,-0.15828 -14.80536,-0.36323 -15.73903,-5.66292 -0.30386,-1.72474 -1.43222,-6.88134 -2.50748,-11.45911 -1.07525,-4.57776 -2.18551,-9.44821 -2.46724,-10.82321 -0.28172,-1.375 -0.95022,-4.3 -1.48555,-6.5 -1.28555,-5.2831 -2.18431,-9.43774 -2.70408,-12.5 -0.39546,-2.32984 0.61496,-3.01554 14.84513,-10.07429 8.39822,-4.16586 38.21948,-19.2087 66.26948,-33.42852 66.37148,-33.64673 72.1828,-36.49719 74.40816,-36.49719 4.20878,0 6.58484,4.34746 8.74461,16 0.44303,2.39025 1.81307,8.24171 2.92671,12.5 0.28768,1.1 0.74884,3.125 1.02481,4.5 0.27598,1.375 1.57904,7.225 2.89571,13 1.31667,5.775 2.6431,11.625 2.94764,13 0.30453,1.375 2.37211,10.375 4.59461,20 2.2225,9.625 4.27333,18.625 4.5574,20 0.28407,1.375 0.95449,4.3 1.48982,6.5 0.53533,2.2 1.20395,5.125 1.48583,6.5 0.28187,1.375 0.94023,4.075 1.46302,6 1.47199,5.42011 1.14836,8.52109 -1.10183,10.55747 -1.8814,1.70265 -3.65824,1.84212 -20.13432,1.58046 -9.93895,-0.15784 -24.80297,-0.36595 -33.03115,-0.46246 l -14.96034,-0.17547 -4.50775,8.5 c -7.5177,14.17573 -5.15154,13.1717 -30.28623,12.85129 -11.83419,-0.15086 -22.86971,-0.51662 -24.52339,-0.81279 z m 43.18387,-16.0385 c 1.21262,-2.475 2.23133,-4.75758 2.26379,-5.0724 0.0486,-0.47165 -17.68803,-0.97477 -39.94097,-1.13296 -7.4323,-0.0528 -8.18594,0.0967 -7.33714,1.45536 0.4295,0.6875 0.85774,1.75459 0.95165,2.37131 0.0939,0.61673 0.93722,2.29111 1.87402,3.72084 1.66732,2.54466 1.97039,2.60542 14.35737,2.87869 6.95976,0.15354 15.57289,0.27916 19.1403,0.27916 l 6.4862,0 z m 147.32282,-3.99973 c -2.475,-1.64514 -4.86538,-3.11501 -5.31195,-3.26637 -0.44658,-0.15136 1.21463,-4.09091 3.69157,-8.75455 14.9347,-28.11941 16.57811,-58.77531 4.73623,-88.349 -7.02135,-17.535 -18.01875,-31.31129 -37.05724,-46.42113 -3.86204,-2.25014 -1.1666,-3.92421 0.85424,-7.07341 1.8126,-2.8247 3.73015,-5.13581 4.26122,-5.13581 3.68791,0 21.48292,16.1222 29.38755,26.625 16.03675,21.30784 23.54616,44.28917 23.486,71.875 -0.0353,16.18582 -1.94535,27.06827 -7.19618,41 -3.43908,9.12472 -10.36788,22.50355 -11.65038,22.49572 -0.38558,-0.002 -2.72606,-1.35031 -5.20106,-2.99545 z m -264.92308,-2.07719 c -1.69231,-1.69231 -3.07692,-3.89752 -3.07692,-4.90047 0,-1.00295 -1.58503,-8.44855 -3.52229,-16.54579 -3.86557,-16.15705 -3.8528,-20.52972 0.0675,-23.09838 3.48735,-2.285 8.12681,-2.03522 10.91894,0.58785 2.19404,2.0612 4.84755,10.73668 7.96275,26.03371 0.28002,1.375 0.96279,4.3 1.51727,6.5 1.56992,6.22894 1.27423,8.05473 -1.84535,11.39424 -3.88516,4.15909 -7.88203,4.16868 -12.02186,0.0288 z m 245.25491,-8.74123 c -2.2925,-1.47502 -4.48655,-3.0009 -4.87567,-3.39084 -0.38911,-0.38995 1.13964,-4.43995 3.39724,-9 10.63222,-21.47569 11.69718,-44.50379 3.0877,-66.76639 -5.01466,-12.96703 -15.42405,-26.8044 -26.00948,-34.57481 -2.71239,-1.99108 -4.92046,-4.14432 -4.90683,-4.78498 0.0136,-0.64066 1.60618,-3.32048 3.53899,-5.95516 l 3.51419,-4.79034 3.21102,2.23965 c 5.67141,3.95575 17.80001,16.15952 22.2034,22.34102 5.87986,8.25418 10.98871,18.77368 14.18681,29.21168 2.48616,8.11438 2.69264,10.13032 2.69264,26.28832 0,16.219 -0.2,18.15331 -2.73225,26.42499 -2.79076,9.11611 -10.33711,24.7845 -12.13959,25.20527 -0.55,0.12839 -2.87568,-0.97339 -5.16817,-2.44841 z m -21.83183,-13.34102 c -2.75,-1.70226 -5.18475,-3.26007 -5.41056,-3.46181 -0.22581,-0.20174 1.20148,-3.85705 3.17174,-8.12291 4.89999,-10.60905 6.12419,-17.06936 5.47881,-28.91259 -0.9774,-17.93593 -8.01069,-31.42687 -22.66542,-43.47576 l -4.4178,-3.63224 3.75679,-5.11776 c 2.06623,-2.81477 4.14509,-5.11776 4.61969,-5.11776 1.94608,0 13.4263,10.6153 17.68062,16.34856 12.50229,16.8485 17.34568,36.57726 13.87556,56.51986 -1.62701,9.35037 -6.08023,21.65181 -9.35772,25.84949 l -1.73171,2.21792 z"
       id="path2996"
       style="fill:#000000"
       inkscape:connector-curvature="0"
       sodipodi:nodetypes="ssssssssssssssssssssssssscsssscsscssscsssssccsssscscsssssssccscssscscsssssssssssscssssscs" />
    <path
       style="color:#000000;fill:#edd2c0;fill-opacity:1;fill-rule:nonzero;stroke:#edd2c0;stroke-width:0.04517133;stroke-linecap:butt;stroke-linejoin:miter;stroke-miterlimit:4;stroke-opacity:1;stroke-dasharray:none;stroke-dashoffset:0;marker:none;visibility:visible;display:inline;overflow:visible;enable-background:accumulate"
       d="m 217.46438,36.824664 c -1.49434,0.486742 -2.31168,2.097136 -3.34659,3.182756 -1.74564,2.325902 -3.656,4.591634 -5.14974,7.075817 0.58664,1.118701 1.84933,1.786128 2.72899,2.679272 7.81919,6.381242 14.96338,13.886414 19.15817,23.207465 4.87608,10.473432 5.6739,22.346363 4.69804,33.730106 -0.78026,8.47129 -5.36499,15.89613 -8.13966,23.79414 -0.56795,1.10011 0.90891,1.60767 1.56683,2.14203 2.90439,1.87343 5.80918,3.79622 8.80223,5.52565 0.86401,-0.26906 1.21314,-1.39066 1.8451,-1.99287 2.54007,-3.39166 4.06318,-7.45612 5.56803,-11.40392 3.63173,-9.89296 5.63492,-20.48486 5.01433,-31.056854 -0.54831,-13.133253 -5.08232,-25.928401 -12.3156,-36.839466 -3.93813,-6.187321 -9.348,-11.21226 -14.70699,-16.166087 -1.72871,-1.375991 -3.3632,-3.159503 -5.48007,-3.86699 -0.0788,-0.02221 -0.1625,-0.02009 -0.24307,-0.01105 z"
       id="path4004"
       inkscape:connector-curvature="0"
       transform="translate(170.47964,339.77333)" />
    <path
       style="color:#000000;fill:#dca784;fill-opacity:1;fill-rule:nonzero;stroke:#dca784;stroke-width:0.04517133;stroke-linecap:butt;stroke-linejoin:miter;stroke-miterlimit:4;stroke-opacity:1;stroke-dasharray:none;stroke-dashoffset:0;marker:none;visibility:visible;display:inline;overflow:visible;enable-background:accumulate"
       d="m 232.45004,18.759053 c -1.09718,0.967761 -1.92904,2.476241 -2.88367,3.662593 -1.52899,2.279134 -3.41784,4.418279 -4.29789,7.054495 -0.006,1.304047 1.39739,2.063483 2.17301,2.944719 3.96352,3.285087 8.04117,6.38557 11.53824,10.175426 9.85814,10.490968 17.25164,23.449496 20.53087,37.538045 3.77495,15.295326 2.8193,31.722179 -2.65963,46.469919 -1.9702,5.74425 -5.1465,11.03324 -7.07682,16.78237 -0.29514,0.77525 -0.32889,1.788 0.58558,2.14894 2.81146,1.85283 5.54688,3.95164 8.68968,5.1652 1.5119,0.51753 2.31704,-1.22769 2.99967,-2.23181 3.89656,-6.48763 6.8596,-13.50873 9.45015,-20.60348 1.82468,-5.06962 3.20606,-10.33699 3.31399,-15.75635 0.28765,-8.84986 0.13595,-17.710423 -0.0252,-26.561622 C 274.66744,78.600657 272.19726,71.989893 269.8642,65.53495 265.47539,54.137753 259.28366,43.282839 250.61661,34.5861 245.06136,28.873436 239.42498,23.07333 232.6931,18.748005 c -0.0758,-0.01969 -0.17348,-0.05632 -0.24306,0.01105 z"
       id="path4006"
       inkscape:connector-curvature="0"
       transform="translate(170.47964,339.77333)" />
    <path
       style="color:#000000;fill:#88ae6f;fill-opacity:1;fill-rule:nonzero;stroke:#88ae6f;stroke-width:0.06388191;stroke-linecap:butt;stroke-linejoin:miter;stroke-miterlimit:4;stroke-opacity:1;stroke-dasharray:none;stroke-dashoffset:0;marker:none;visibility:visible;display:inline;overflow:visible;enable-background:accumulate"
       d="m 273.19763,49.991834 c 11.15068,21.485615 14.77507,46.94473 9.23931,70.585406 -2.39032,10.85907 -7.0974,20.97337 -12.09147,30.82689 -0.44163,1.44163 -1.82142,2.965 -1.34375,4.50781 3.48244,2.14557 6.86512,4.58204 10.57032,6.32812 1.30664,-0.39733 1.78396,-2.07265 2.57031,-3.07812 8.59207,-15.15486 15.00388,-31.88861 16.13774,-49.41326 0.56562,-11.626933 0.59348,-23.367371 -1.60117,-34.844483 -15.8986,-2.253283 -13.31481,-61.620871 -23.48129,-24.912363 z"
       id="path4008"
       inkscape:connector-curvature="0"
       transform="translate(170.47964,339.77333)"
       sodipodi:nodetypes="ccccccccc" />
    <path
       style="color:#000000;fill:#ba510b;fill-opacity:1;fill-rule:nonzero;stroke:#ba510b;stroke-width:0.09034266;stroke-linecap:butt;stroke-linejoin:miter;stroke-miterlimit:4;stroke-opacity:1;stroke-dasharray:none;stroke-dashoffset:0;marker:none;visibility:visible;display:inline;overflow:visible;enable-background:accumulate"
       d="m 179.90081,28.870475 c -5.01654,1.311521 -9.50674,4.198786 -14.24194,6.279349 C 126.274,54.713078 87.127856,74.753481 47.819999,94.47096 c -7.373568,3.941646 -15.158805,7.26177 -22.134761,11.8498 -2.297641,1.8996 -0.364643,5.1636 -0.17742,7.53774 3.033913,12.71863 5.503152,25.62336 8.859494,38.27083 0.356253,2.38091 2.5913,3.72427 4.873621,3.52583 8.735988,0.69528 17.597519,0.29456 26.274304,1.33422 2.809112,1.00724 3.481896,4.50717 5.038662,6.73418 2.843941,4.69397 4.557505,10.39457 8.970891,13.87136 4.803242,2.75235 10.662272,1.77078 15.964572,2.22784 10.706478,0.16357 21.452048,0.65539 32.140788,-0.0623 4.1958,-0.47372 6.93897,-4.03236 8.59159,-7.61155 2.44574,-4.38376 4.7332,-8.85338 7.09734,-13.28124 13.88415,-0.0448 27.74046,0.29494 41.60879,0.44903 8.00623,-0.12497 16.06951,0.39878 24.04165,-0.33855 3.10302,-0.6027 4.9229,-3.74287 4.44792,-6.76136 -0.79147,-7.66447 -3.25696,-15.0375 -4.75147,-22.58984 -7.07561,-30.437013 -13.77402,-60.964007 -20.8986,-91.38728 -1.20082,-3.377969 -2.09167,-7.99977 -6.01041,-9.170291 -0.59063,-0.178822 -1.22929,-0.230205 -1.85615,-0.198874 z M 91.379877,157.2214 c 12.438203,0.13678 24.918933,-0.002 37.321983,0.91703 -0.84724,3.16853 -2.6475,6.02491 -3.91119,9.04876 -12.28648,-0.1624 -24.61837,0.11476 -36.868987,-0.86179 -2.973706,-0.88714 -3.933992,-4.50242 -5.181767,-7.01582 -0.203272,-0.71226 -1.058638,-2.32434 0.441514,-1.95086 2.729789,-0.13203 5.465893,-0.13297 8.198447,-0.13732 z"
       id="path4010"
       inkscape:connector-curvature="0"
       transform="translate(170.47964,339.77333)" />
    <path
       style="color:#000000;fill:#000000;fill-opacity:1;fill-rule:nonzero;stroke:#000000;stroke-width:0.06388191;stroke-linecap:butt;stroke-linejoin:miter;stroke-miterlimit:4;stroke-opacity:1;stroke-dasharray:none;stroke-dashoffset:0;marker:none;visibility:visible;display:inline;overflow:visible;enable-background:accumulate"
       d="m 8.0179262,110.91517 c -3.8140455,-0.0225 -8.1311187,2.76947 -7.85156252,6.97656 -0.1260657,7.7628 2.42939072,15.21306 3.91295852,22.75376 1.0712637,4.21729 1.6445055,8.57048 2.891729,12.73062 1.4900334,2.66201 3.8229648,5.09462 6.6874998,6.25781 3.496107,1.19535 6.793304,-1.40301 8.828125,-4.01563 2.87749,-3.03008 1.301884,-7.47283 0.609699,-11.0393 -2.176362,-9.26563 -3.846717,-18.70664 -7.091955,-27.67767 -0.872746,-2.96103 -3.216176,-5.61463 -6.4366479,-5.89176 -0.511506,-0.0829 -1.03215,-0.11307 -1.5498459,-0.0944 z"
       id="path4012"
       inkscape:connector-curvature="0"
       transform="translate(170.47964,339.77333)" />
    <path
       style="color:#000000;fill:#ba510b;fill-opacity:1;fill-rule:nonzero;stroke:#ba510b;stroke-width:0.01597048;stroke-linecap:butt;stroke-linejoin:miter;stroke-miterlimit:4;stroke-opacity:1;stroke-dasharray:none;stroke-dashoffset:0;marker:none;visibility:visible;display:inline;overflow:visible;enable-background:accumulate"
       d="m 8.030172,110.66669 c -2.069708,-0.0272 -4.1212222,0.71658 -5.7519532,1.97656 -1.2673797,0.98038 -2.08535118,2.46269 -2.29543115,4.04407 -0.39908639,2.98283 0.06526332,5.99825 0.57019244,8.93915 1.01926961,5.5451 2.44618191,11.00576 3.64072641,16.5146 0.6737486,3.08302 1.3260785,6.17757 1.9320051,9.27073 0.114666,0.74005 0.2018597,1.49926 0.6075854,2.14942 1.0415262,1.97439 2.6024974,3.6525 4.369141,5.00195 1.618025,1.20144 3.717733,1.96684 5.738281,1.49414 2.310867,-0.49941 4.116354,-2.1782 5.594887,-3.92872 1.190433,-1.36467 2.062768,-3.09395 2.030113,-4.94042 -0.01554,-2.51086 -0.786225,-4.92959 -1.302457,-7.3662 -1.927064,-8.1919 -3.400861,-16.51235 -6.012312,-24.52119 -0.742489,-2.07975 -1.39197,-4.25486 -2.751637,-6.03058 -1.47577,-1.68836 -3.740665,-2.62277 -5.9726567,-2.60156 -0.1321719,-10e-4 -0.2643125,-0.006 -0.3964843,-0.002 z"
       id="path4014"
       inkscape:connector-curvature="0"
       transform="translate(170.47964,339.77333)" />
    <path
       style="color:#000000;fill:#d18d5f;fill-opacity:1;fill-rule:nonzero;stroke:#d18d5f;stroke-width:0.06388191;stroke-linecap:butt;stroke-linejoin:miter;stroke-miterlimit:4;stroke-opacity:1;stroke-dasharray:none;stroke-dashoffset:0;marker:none;visibility:visible;display:inline;overflow:visible;enable-background:accumulate"
       d="m 245.76675,-0.05614501 c -2.81884,2.24946821 -4.53714,5.59975121 -6.60938,8.50781251 -0.50973,0.8496652 -1.69582,1.9896735 -0.35937,2.7421875 5.49902,5.202565 11.57011,9.790111 16.76062,15.327282 9.01093,8.937368 16.34882,19.563153 21.21171,31.30143 8.11748,19.247688 10.5791,41.00449 6.06558,61.465593 -2.25632,12.03562 -7.9317,22.98674 -13.02595,33.99531 -0.49698,1.09344 -1.33058,2.86678 0.18335,3.56663 3.21481,2.05683 6.42526,4.24509 9.90625,5.79688 1.82648,-0.97781 2.44438,-3.30649 3.56274,-4.94723 7.95826,-14.57184 14.04429,-30.54456 15.05597,-47.24791 0.22897,-8.74932 0.49596,-17.535683 -0.18929,-26.26864 C 296.24638,65.239342 289.68452,46.709932 278.612,31.13701 270.56547,19.976532 260.91904,9.8459077 249.6853,1.8575521 248.47047,1.109963 247.22048,0.09971779 245.76675,-0.05614501 z"
       id="path4213"
       inkscape:connector-curvature="0"
       transform="translate(170.24924,339.45089)" />
    <path
       d="m -10.443839,519.16086 c -3.680152,-0.65912 -5.209282,-2.30238 -8.582092,-9.22267 -1.76082,-3.61284 -3.58656,-6.8096 -4.057193,-7.10391 -1.279462,-0.80012 -2.242162,-0.8736 -13.01412,-0.99337 -10.676814,-0.11871 -11.104022,-0.27242 -11.804274,-4.24719 -0.227895,-1.29355 -1.074165,-5.161 -1.88061,-8.59433 -0.806438,-3.43332 -1.639133,-7.08616 -1.85043,-8.11741 -0.21129,-1.03125 -0.712665,-3.225 -1.114163,-4.875 -0.964162,-3.96232 -1.638232,-7.0783 -2.02806,-9.375 -0.296595,-1.74738 0.46122,-2.26165 11.133848,-7.55572 6.298665,-3.12439 28.664612,-14.40652 49.702119,-25.07139 49.77861,-25.23504 54.1371,-27.37289 55.80612,-27.37289 3.156585,0 4.93863,3.2606 6.558458,12 0.332272,1.79269 1.359802,6.18128 2.195032,9.375 0.21576,0.825 0.56163,2.34375 0.768608,3.375 0.206985,1.03125 1.18428,5.41875 2.171782,9.75 0.987504,4.33125 1.982324,8.71875 2.210734,9.75 0.22839,1.03125 1.77908,7.78125 3.44595,15 1.66688,7.21875 3.205,13.96875 3.41805,15 0.21306,1.03125 0.71587,3.225 1.11737,4.875 0.4015,1.65 0.90296,3.84375 1.11437,4.875 0.2114,1.03125 0.70517,3.05625 1.09727,4.5 1.10399,4.06508 0.86127,6.39082 -0.82638,7.9181 -1.41105,1.27699 -2.74368,1.38159 -15.100736,1.18535 -7.454213,-0.11838 -18.602228,-0.27446 -24.773363,-0.34685 l -11.220255,-0.1316 -3.380812,6.375 c -5.638275,10.6318 -3.863655,9.87878 -22.714673,9.63847 -8.87565,-0.11315 -17.15229,-0.38747 -18.39255,-0.60959 z m 32.38791,-12.02888 c 0.909465,-1.85625 1.673498,-3.56818 1.697843,-3.8043 0.03645,-0.35374 -13.266023,-0.73108 -29.955735,-0.84972 -5.574225,-0.0396 -6.139455,0.0725 -5.502855,1.09152 0.322125,0.51563 0.643305,1.31594 0.713737,1.77848 0.07043,0.46255 0.702915,1.71834 1.405515,2.79063 1.25049,1.9085 1.477793,1.95407 10.768028,2.15902 5.219827,0.11516 11.679675,0.20937 14.355232,0.20937 l 4.86465,0 z m 110.492109,-2.9998 c -1.85625,-1.23385 -3.64903,-2.33625 -3.98396,-2.44977 -0.33493,-0.11352 0.91097,-3.06819 2.76868,-6.56592 11.20102,-21.08955 12.43358,-44.08148 3.55217,-66.26175 -5.26601,-13.15125 -13.51406,-23.48346 -27.79293,-34.81584 -2.89653,-1.68761 -0.87495,-2.94316 0.64068,-5.30506 1.35945,-2.11853 2.79762,-3.85186 3.19592,-3.85186 2.76593,0 16.11219,12.09165 22.04066,19.96875 12.02756,15.98088 17.65962,33.21688 17.6145,53.90625 -0.0265,12.13937 -1.45901,20.3012 -5.39714,30.75 -2.57931,6.84354 -7.77591,16.87766 -8.73778,16.87179 -0.28919,-10e-4 -2.04455,-1.01273 -3.9008,-2.24659 z m -198.69231,-1.55789 c -1.26923,-1.26923 -2.30769,-2.92314 -2.30769,-3.67535 0,-0.75221 -1.18877,-6.33641 -2.64171,-12.40934 -2.89918,-12.11779 -2.8896,-15.39729 0.0506,-17.32379 2.61551,-1.71375 6.0951,-1.52641 8.1892,0.44089 1.645529,1.5459 3.635662,8.05251 5.972062,19.52528 0.210015,1.03125 0.722092,3.225 1.137952,4.875 1.17744,4.67171 0.955673,6.04105 -1.384012,8.54568 -2.91387,3.11932 -5.911522,3.12651 -9.016392,0.0216 z m 183.94119,-6.55592 c -1.71938,-1.10627 -3.36492,-2.25068 -3.65676,-2.54313 -0.29183,-0.29246 0.85473,-3.32996 2.54793,-6.75 7.97417,-16.10677 8.77289,-33.37784 2.31578,-50.07479 -3.761,-9.72528 -11.56804,-20.1033 -19.50711,-25.93111 -2.03429,-1.49331 -3.69034,-3.10824 -3.68012,-3.58874 0.0102,-0.48049 1.20463,-2.49036 2.65424,-4.46637 l 2.63564,-3.59275 2.40827,1.67974 c 4.25356,2.96681 13.35,12.11964 16.65255,16.75576 4.40989,6.19064 8.24153,14.08026 10.6401,21.90876 1.86462,6.08579 2.01948,7.59774 2.01948,19.71624 0,12.16425 -0.15,13.61498 -2.04918,19.81874 -2.09307,6.83709 -7.75284,18.58838 -9.1047,18.90396 -0.4125,0.0963 -2.15676,-0.73005 -3.87612,-1.83631 z M 101.31119,486.0126 c -2.0625,-1.27669 -3.88857,-2.44505 -4.05792,-2.59635 -0.16936,-0.15131 0.90111,-2.89279 2.3788,-6.09219 3.67499,-7.95678 4.59314,-12.80202 4.10911,-21.68444 -0.73305,-13.45195 -6.00802,-23.57015 -16.99907,-32.60682 l -3.31335,-2.72418 2.8176,-3.83832 c 1.54967,-2.11108 3.10881,-3.83832 3.46476,-3.83832 1.45956,0 10.06973,7.96148 13.26047,12.26142 9.37672,12.63638 13.00926,27.43295 10.40667,42.3899 -1.22026,7.01277 -4.56017,16.23885 -7.01829,19.38711 l -1.29878,1.66344 z"
       id="path2996-3"
       style="fill:#000000"
       inkscape:connector-curvature="0"
       sodipodi:nodetypes="ssssssssssssssssssssssssscsssscsscssscsssssccsssscscsssssssccscssscscsssssssssssscssssscs" />
    <path
       style="color:#000000;fill:#f2e3be;fill-opacity:1;fill-rule:nonzero;stroke:#f2e3be;stroke-width:0.0338785;stroke-linecap:butt;stroke-linejoin:miter;stroke-miterlimit:4;stroke-opacity:1;stroke-dasharray:none;stroke-dashoffset:0;marker:none;visibility:visible;display:inline;overflow:visible;enable-background:accumulate"
       d="m 89.72823,412.50048 c -1.12075,0.36505 -1.73376,1.57285 -2.50994,2.38707 -1.30923,1.74442 -2.742,3.44372 -3.86231,5.30685 0.43998,0.83903 1.387,1.3396 2.04675,2.00946 5.86439,4.78593 11.22253,10.41481 14.36862,17.4056 3.65706,7.85507 4.25543,16.75977 3.52353,25.29758 -0.58519,6.35347 -4.02374,11.9221 -6.10474,17.84561 -0.42596,0.82508 0.68168,1.20575 1.17512,1.60652 2.17829,1.40507 4.35689,2.84716 6.60167,4.14424 0.64801,-0.2018 0.90986,-1.043 1.38383,-1.49466 1.90505,-2.54374 3.04738,-5.59209 4.17602,-8.55294 2.7238,-7.41972 4.22619,-15.36364 3.76075,-23.29264 -0.41124,-9.84994 -3.81174,-19.4463 -9.2367,-27.6296 -2.9536,-4.64049 -7.011,-8.40919 -11.03024,-12.12456 -1.29654,-1.032 -2.5224,-2.36963 -4.11006,-2.90025 -0.0591,-0.0167 -0.12187,-0.0151 -0.1823,-0.008 z"
       id="path4004-6"
       inkscape:connector-curvature="0" />
    <path
       style="color:#000000;fill:#e6c97f;fill-opacity:1;fill-rule:nonzero;stroke:#e6c97f;stroke-width:0.0338785;stroke-linecap:butt;stroke-linejoin:miter;stroke-miterlimit:4;stroke-opacity:1;stroke-dasharray:none;stroke-dashoffset:0;marker:none;visibility:visible;display:inline;overflow:visible;enable-background:accumulate"
       d="m 100.96748,398.95127 c -0.82289,0.72582 -1.44678,1.85718 -2.16276,2.74694 -1.14674,1.70936 -2.56338,3.31371 -3.22341,5.29088 -0.005,0.97803 1.04804,1.54761 1.62975,2.20854 2.97264,2.46381 6.03088,4.78917 8.65368,7.63156 7.39361,7.86823 12.93873,17.58713 15.39815,28.15354 2.83122,11.47149 2.11448,23.79163 -1.99472,34.85244 -1.47765,4.30819 -3.85987,8.27493 -5.30761,12.58678 -0.22136,0.58143 -0.24667,1.341 0.43918,1.6117 2.1086,1.38962 4.16016,2.96373 6.51726,3.8739 1.13393,0.38815 1.73778,-0.92077 2.24975,-1.67386 2.92242,-4.86572 5.1447,-10.13154 7.08762,-15.45261 1.36851,-3.80221 2.40454,-7.75274 2.48549,-11.81726 0.21574,-6.63739 0.10196,-13.28282 -0.0189,-19.92122 -0.0904,-5.21013 -1.94307,-10.1682 -3.69287,-15.00941 -3.2916,-8.5479 -7.9354,-16.68908 -14.43569,-23.21163 -4.16643,-4.28451 -8.39372,-8.63458 -13.44263,-11.87858 -0.0568,-0.0148 -0.13011,-0.0422 -0.18229,0.008 z"
       id="path4006-7"
       inkscape:connector-curvature="0" />
    <path
       style="color:#000000;fill:#dfb858;fill-opacity:1;fill-rule:nonzero;stroke:#dfb858;stroke-width:0.04791144;stroke-linecap:butt;stroke-linejoin:miter;stroke-miterlimit:4;stroke-opacity:1;stroke-dasharray:none;stroke-dashoffset:0;marker:none;visibility:visible;display:inline;overflow:visible;enable-background:accumulate"
       d="m 110.5746,384.69288 c -2.15864,2.28655 -3.87106,4.97583 -5.47852,7.65235 0.89874,1.41083 2.49029,2.32334 3.70057,3.48345 9.02941,7.43823 17.4209,15.98697 22.73152,26.54717 8.36301,16.11422 11.0813,35.20855 6.92948,52.93906 -1.79274,8.1443 -5.32305,15.73003 -9.0686,23.12017 -0.33123,1.08122 -1.36607,2.22375 -1.00782,3.38086 2.61183,1.60917 5.14884,3.43653 7.92774,4.74609 0.97998,-0.298 1.33797,-1.55449 1.92774,-2.30859 6.44405,-11.36615 11.25291,-23.91646 12.1033,-37.05995 0.42422,-8.7202 0.44511,-17.52553 -1.20088,-26.13337 -2.49584,-14.23156 -8.92909,-27.71363 -18.16531,-38.79317 -5.40092,-6.16557 -11.21674,-12.09663 -18.05061,-16.68874 -0.70857,-0.38892 -1.52198,-0.95495 -2.34861,-0.88533 z"
       id="path4008-5"
       inkscape:connector-curvature="0" />
    <path
       style="color:#000000;fill:#000000;fill-opacity:1;fill-rule:nonzero;stroke:#000000;stroke-width:0.04791144;stroke-linecap:butt;stroke-linejoin:miter;stroke-miterlimit:4;stroke-opacity:1;stroke-dasharray:none;stroke-dashoffset:0;marker:none;visibility:visible;display:inline;overflow:visible;enable-background:accumulate"
       d="m -67.35662,468.06836 c -2.86053,-0.0169 -6.09834,2.0771 -5.88867,5.23242 -0.0945,5.8221 1.82205,11.40979 2.93472,17.06532 0.80345,3.16297 1.23338,6.42786 2.1688,9.54796 1.11752,1.99651 2.86722,3.82097 5.01563,4.69336 2.622072,0.89651 5.094972,-1.05226 6.621087,-3.01172 2.158117,-2.27256 0.97641,-5.60462 0.457275,-8.27948 -1.63227,-6.94922 -2.88504,-14.02998 -5.31897,-20.75825 -0.654552,-2.22077 -2.412132,-4.21097 -4.827482,-4.41882 -0.38363,-0.0622 -0.77411,-0.0848 -1.16239,-0.0708 z"
       id="path4012-5"
       inkscape:connector-curvature="0" />
    <path
       style="color:#000000;fill:#cf9400;fill-opacity:1;fill-rule:nonzero;stroke:#cf9400;stroke-width:0.01197786;stroke-linecap:butt;stroke-linejoin:miter;stroke-miterlimit:4;stroke-opacity:1;stroke-dasharray:none;stroke-dashoffset:0;marker:none;visibility:visible;display:inline;overflow:visible;enable-background:accumulate"
       d="m -67.34743,467.882 c -1.55228,-0.0204 -3.09091,0.53743 -4.31397,1.48242 -0.95053,0.73528 -1.56401,1.84702 -1.72157,3.03305 -0.29931,2.23712 0.049,4.49869 0.42765,6.70436 0.76444,4.15883 1.83463,8.25432 2.73054,12.38595 0.50531,2.31227 0.99456,4.63318 1.44901,6.95305 0.086,0.55504 0.15139,1.12445 0.45568,1.61207 0.78115,1.48079 1.95188,2.73937 3.27686,3.75146 1.21352,0.90108 2.7883,1.47513 4.303707,1.1206 1.733152,-0.37455 3.08727,-1.63365 4.196167,-2.94654 0.892823,-1.0235 1.547078,-2.32046 1.522583,-3.70531 -0.01162,-1.88315 -0.589665,-3.69719 -0.976838,-5.52465 -1.445302,-6.14393 -2.550645,-12.38426 -4.50924,-18.39089 -0.55686,-1.55982 -1.043977,-3.19115 -2.063719,-4.52294 -1.10683,-1.26627 -2.80551,-1.96708 -4.4795,-1.95117 -0.0991,-7.5e-4 -0.19823,-0.005 -0.29736,-0.002 z"
       id="path4014-6"
       inkscape:connector-curvature="0" />
    <path
       style="color:#000000;fill:#cf9400;fill-opacity:1;fill-rule:nonzero;stroke:#cf9400;stroke-width:0.0338785;stroke-linecap:butt;stroke-linejoin:miter;stroke-miterlimit:4;stroke-opacity:1;stroke-dasharray:none;stroke-dashoffset:0;marker:none;visibility:visible;display:inline;overflow:visible;enable-background:accumulate"
       d="m 61.833646,406.50752 c -2.580435,0.46017 -4.907452,1.8021 -7.265752,2.88967 -29.29953,14.51579 -58.455015,29.32019 -87.644895,44.0547 -6.342452,3.26364 -12.783647,6.34777 -18.999565,9.84963 -1.210747,0.78981 -3.06615,1.56352 -2.890852,3.31146 0.48291,3.3108 1.418812,6.54612 2.086905,9.82527 1.755307,7.76499 3.373425,15.57123 5.441302,23.25821 0.550815,1.19176 1.779683,1.93152 3.086685,1.90588 6.57891,0.58727 13.217702,0.29839 19.779655,1.08137 2.11797,0.45024 2.745982,2.79562 3.716452,4.42494 2.100623,3.40389 3.439845,7.35619 6.289388,10.25029 2.442937,2.29356 6.02613,2.16814 9.148192,2.30362 8.852145,0.35559 17.714205,0.2479 26.57037,0.1533 3.01179,0.15838 5.69298,-1.93723 6.956498,-4.55806 2.112142,-3.69999 4.091917,-7.47339 6.073875,-11.24412 15.085342,0.0997 30.169995,0.58554 45.256076,0.36224 1.93335,-0.1664 4.18817,0.20575 5.77577,-1.15774 1.4734,-1.23286 1.77443,-3.30593 1.40454,-5.10028 -0.83932,-6.04749 -2.63496,-11.90462 -3.86494,-17.87547 -4.81997,-20.86005 -9.439274,-41.76632 -14.327864,-62.61041 -0.834502,-2.99167 -1.243477,-6.19881 -2.879235,-8.89341 -0.819832,-1.22718 -2.171662,-2.28141 -3.712605,-2.23109 z m -65.64078,96.35435 c 8.85354,0.0738 17.716673,0.1094 26.555663,0.66504 0.73263,0.0498 -0.231735,1.2157 -0.30237,1.74815 -0.741855,1.67986 -1.466498,3.38344 -2.363573,4.98243 -7.535955,-0.15965 -15.080467,-0.0326 -22.610662,-0.3905 -1.773225,-0.19391 -3.624698,5.8e-4 -5.34354,-0.51687 -1.83681,-0.95706 -2.44434,-3.13725 -3.306278,-4.8724 -0.09586,-0.42312 -0.583507,-1.06578 -0.240307,-1.44598 2.526442,-0.23431 5.075655,-0.13532 7.611067,-0.16987 z"
       id="path4039"
       inkscape:connector-curvature="0" />
    <path
       d="m -201.54412,519.36236 c -2.45344,-0.43941 -3.47286,-1.53492 -5.7214,-6.14844 -1.17388,-2.40856 -2.39104,-4.53973 -2.70479,-4.73594 -0.85298,-0.53342 -1.49478,-0.5824 -8.67608,-0.66225 -7.11788,-0.0791 -7.40268,-0.18161 -7.86952,-2.83146 -0.15193,-0.86237 -0.71611,-3.44067 -1.25374,-5.72955 -0.53762,-2.28888 -1.09275,-4.72411 -1.23362,-5.41161 -0.14086,-0.6875 -0.47511,-2.15 -0.74277,-3.25 -0.64278,-2.64155 -1.09216,-4.71887 -1.35204,-6.25 -0.19773,-1.16492 0.30748,-1.50777 7.42256,-5.03714 4.19911,-2.08293 19.10974,-9.60435 33.13475,-16.71426 33.18574,-16.82337 36.0914,-18.2486 37.20408,-18.2486 2.10439,0 3.29242,2.17373 4.3723,8 0.22152,1.19513 0.90654,4.12086 1.46336,6.25 0.14384,0.55 0.37442,1.5625 0.5124,2.25 0.13799,0.6875 0.78952,3.6125 1.44786,6.5 0.65833,2.8875 1.32155,5.8125 1.47382,6.5 0.15226,0.6875 1.18605,5.1875 2.2973,10 1.11125,4.8125 2.13667,9.3125 2.2787,10 0.14204,0.6875 0.47725,2.15 0.74491,3.25 0.26767,1.1 0.60198,2.5625 0.74292,3.25 0.14093,0.6875 0.47011,2.0375 0.73151,3 0.73599,2.71006 0.57418,4.26055 -0.55092,5.27874 -0.9407,0.85132 -1.82912,0.92106 -10.06716,0.79023 -4.96947,-0.0789 -12.40148,-0.18298 -16.51557,-0.23123 l -7.48017,-0.0877 -2.25388,4.25 c -3.75885,7.08787 -2.57577,6.58585 -15.14311,6.42565 -5.9171,-0.0754 -11.43486,-0.25831 -12.2617,-0.4064 z m 21.59194,-8.01925 c 0.60631,-1.2375 1.11566,-2.37879 1.13189,-2.5362 0.0243,-0.23582 -8.84401,-0.48738 -19.97049,-0.56648 -3.71615,-0.0264 -4.09297,0.0483 -3.66857,0.72768 0.21475,0.34375 0.42887,0.8773 0.47583,1.18566 0.0469,0.30836 0.46861,1.14555 0.93701,1.86042 0.83366,1.27233 0.98519,1.30271 7.17868,1.43934 3.47989,0.0768 7.78645,0.13958 9.57016,0.13958 l 3.2431,0 z m 73.66141,-1.99986 c -1.2375,-0.82257 -2.43269,-1.55751 -2.65598,-1.63319 -0.22329,-0.0757 0.60732,-2.04545 1.84579,-4.37727 7.46735,-14.05971 8.28905,-29.38766 2.36811,-44.1745 -3.51067,-8.7675 -9.00937,-15.65565 -18.52862,-23.21057 -1.93102,-1.12507 -0.5833,-1.9621 0.42712,-3.5367 0.9063,-1.41235 1.86508,-2.56791 2.13061,-2.56791 1.84396,0 10.74146,8.0611 14.69378,13.3125 8.01837,10.65392 11.77308,22.14459 11.743,35.9375 -0.0177,8.09291 -0.97268,13.53414 -3.59809,20.5 -1.71954,4.56236 -5.18394,11.25178 -5.82519,11.24786 -0.19279,-0.001 -1.36303,-0.67515 -2.60053,-1.49772 z m -132.46154,-1.0386 c -0.84616,-0.84615 -1.53846,-1.94876 -1.53846,-2.45023 0,-0.50148 -0.79252,-4.22428 -1.76115,-8.2729 -1.93278,-8.07852 -1.9264,-10.26486 0.0337,-11.54919 1.74368,-1.1425 4.0634,-1.01761 5.45947,0.29393 1.09702,1.0306 2.42377,5.36834 3.98137,13.01685 0.14001,0.6875 0.4814,2.15 0.75864,3.25 0.78496,3.11447 0.63711,4.02737 -0.92268,5.69712 -1.94258,2.07955 -3.94101,2.08434 -6.01092,0.0144 z m 122.62745,-4.37061 c -1.14625,-0.73751 -2.24327,-1.50045 -2.43783,-1.69542 -0.19456,-0.19498 0.56982,-2.21998 1.69862,-4.5 5.31611,-10.73785 5.84859,-22.2519 1.54385,-33.3832 -2.50733,-6.48351 -7.71203,-13.4022 -13.00474,-17.2874 -1.3562,-0.99554 -2.46023,-2.07216 -2.45342,-2.39249 0.007,-0.32033 0.80309,-1.66024 1.7695,-2.97758 l 1.75709,-2.39517 1.60551,1.11982 c 2.83571,1.97788 8.90001,8.07976 11.1017,11.17051 2.93993,4.12709 5.49436,9.38684 7.09341,14.60584 1.24308,4.05719 1.34632,5.06516 1.34632,13.14416 0,8.1095 -0.1,9.07666 -1.36613,13.2125 -1.39538,4.55805 -5.16855,12.39225 -6.06979,12.60263 -0.275,0.0642 -1.43784,-0.48669 -2.58409,-1.2242 z m -10.91591,-6.67051 c -1.375,-0.85113 -2.59238,-1.63004 -2.70528,-1.73091 -0.11291,-0.10087 0.60074,-1.92852 1.58587,-4.06145 2.44999,-5.30453 3.06209,-8.53468 2.7394,-14.4563 -0.4887,-8.96796 -4.00534,-15.71343 -11.33271,-21.73788 l -2.2089,-1.81612 1.8784,-2.55888 c 1.03311,-1.40738 2.07254,-2.55888 2.30984,-2.55888 0.97304,0 6.71315,5.30765 8.84031,8.17428 6.25115,8.42425 8.67284,18.28863 6.93778,28.25993 -0.8135,4.67519 -3.04011,10.82591 -4.67886,12.92475 l -0.86585,1.10896 z"
       id="path2996-36"
       style="fill:#000000"
       inkscape:connector-curvature="0"
       sodipodi:nodetypes="ssssssssssssssssssssssssscsssscsscssscsssssccsssscscsssssssccscssscscsssssssssssscssssscs" />
    <path
       style="color:#000000;fill:#d0dfc7;fill-opacity:1;fill-rule:nonzero;stroke:#d0dfc7;stroke-width:0.02258567;stroke-linecap:butt;stroke-linejoin:miter;stroke-miterlimit:4;stroke-opacity:1;stroke-dasharray:none;stroke-dashoffset:0;marker:none;visibility:visible;display:inline;overflow:visible;enable-background:accumulate"
       d="m -134.76274,448.25544 c -0.74717,0.24337 -1.15584,1.04857 -1.6733,1.59138 -0.87282,1.16295 -1.828,2.29582 -2.57487,3.53791 0.29332,0.55935 0.92467,0.89306 1.3645,1.33964 3.90959,3.19062 7.48169,6.9432 9.57908,11.60373 2.43804,5.23671 2.83695,11.17318 2.34902,16.86505 -0.39013,4.23565 -2.68249,7.94807 -4.06983,11.89707 -0.28397,0.55006 0.45446,0.80384 0.78342,1.07102 1.45219,0.93671 2.90459,1.89811 4.40111,2.76282 0.43201,-0.13453 0.60657,-0.69533 0.92255,-0.99643 1.27004,-1.69583 2.03159,-3.72806 2.78402,-5.70196 1.81586,-4.94648 2.81746,-10.24243 2.50716,-15.52843 -0.27415,-6.56663 -2.54116,-12.9642 -6.1578,-18.41973 -1.96906,-3.09366 -4.674,-5.60613 -7.35349,-8.08305 -0.86436,-0.68799 -1.6816,-1.57975 -2.74004,-1.93349 -0.0394,-0.0111 -0.0813,-0.0101 -0.12153,-0.006 z"
       id="path4004-0"
       inkscape:connector-curvature="0" />
    <path
       style="color:#000000;fill:#a4c191;fill-opacity:1;fill-rule:nonzero;stroke:#a4c191;stroke-width:0.02258567;stroke-linecap:butt;stroke-linejoin:miter;stroke-miterlimit:4;stroke-opacity:1;stroke-dasharray:none;stroke-dashoffset:0;marker:none;visibility:visible;display:inline;overflow:visible;enable-background:accumulate"
       d="m -127.26991,439.22264 c -0.54859,0.48388 -0.96452,1.23812 -1.44184,1.83129 -0.76449,1.13957 -1.70892,2.20914 -2.14894,3.52725 -0.003,0.65202 0.69869,1.03174 1.0865,1.47236 1.98176,1.64254 4.02059,3.19279 5.76912,5.08771 4.92907,5.24549 8.62582,11.72475 10.26544,18.76903 1.88747,7.64766 1.40965,15.86109 -1.32982,23.23496 -0.9851,2.87212 -2.57325,5.51662 -3.53841,8.39118 -0.14757,0.38763 -0.16444,0.894 0.29279,1.07447 1.40573,0.92642 2.77344,1.97582 4.34484,2.5826 0.75595,0.25877 1.15852,-0.61384 1.49984,-1.1159 1.94828,-3.24382 3.4298,-6.75437 4.72507,-10.30174 0.91234,-2.53481 1.60303,-5.1685 1.657,-7.87818 0.14382,-4.42493 0.068,-8.85521 -0.0126,-13.28081 -0.0603,-3.47342 -1.29538,-6.7788 -2.46191,-10.00627 -2.19441,-5.6986 -5.29027,-11.12606 -9.6238,-15.47443 -2.77762,-2.85633 -5.59581,-5.75638 -8.96175,-7.91905 -0.0379,-0.01 -0.0867,-0.0282 -0.12153,0.006 z"
       id="path4006-6"
       inkscape:connector-curvature="0" />
    <path
       style="color:#000000;fill:#88ae6f;fill-opacity:1;fill-rule:nonzero;stroke:#88ae6f;stroke-width:0.03194096;stroke-linecap:butt;stroke-linejoin:miter;stroke-miterlimit:4;stroke-opacity:1;stroke-dasharray:none;stroke-dashoffset:0;marker:none;visibility:visible;display:inline;overflow:visible;enable-background:accumulate"
       d="m -120.86516,429.71705 c -1.4391,1.52436 -2.58071,3.31721 -3.65235,5.10156 0.59916,0.94056 1.66019,1.54889 2.46705,2.3223 6.0196,4.95882 11.61393,10.65798 15.15434,17.69812 5.57534,10.74281 7.38754,23.47236 4.61966,35.2927 -1.19516,5.42954 -3.5487,10.48669 -6.04574,15.41345 -0.22081,0.72081 -0.91071,1.4825 -0.67187,2.2539 1.74122,1.07279 3.43256,2.29102 5.28516,3.16406 0.65332,-0.19866 0.89198,-1.03632 1.28515,-1.53906 4.29604,-7.57743 7.50194,-15.9443 8.06887,-24.70663 0.28281,-5.81347 0.29674,-11.68368 -0.80058,-17.42224 -1.6639,-9.48771 -5.95273,-18.47576 -12.11021,-25.86212 -3.60062,-4.11038 -7.47783,-8.06442 -12.03374,-11.12583 -0.47238,-0.25927 -1.01466,-0.63663 -1.56574,-0.59021 z"
       id="path4008-2"
       inkscape:connector-curvature="0" />
    <path
       style="color:#000000;fill:#4a8424;fill-opacity:1;fill-rule:nonzero;stroke:#4a8424;stroke-width:0.04517133;stroke-linecap:butt;stroke-linejoin:miter;stroke-miterlimit:4;stroke-opacity:1;stroke-dasharray:none;stroke-dashoffset:0;marker:none;visibility:visible;display:inline;overflow:visible;enable-background:accumulate"
       d="m -153.54453,444.27835 c -2.50827,0.65576 -4.75337,2.09939 -7.12097,3.13967 -19.69243,9.78163 -39.26551,19.80183 -58.91944,29.66057 -3.68678,1.97082 -7.5794,3.63089 -11.06738,5.9249 -1.14882,0.9498 -0.18232,2.5818 -0.0887,3.76887 1.51696,6.35932 2.75158,12.81168 4.42975,19.13542 0.17813,1.19045 1.29565,1.86213 2.43681,1.76291 4.368,0.34764 8.79876,0.14728 13.13715,0.66711 1.40456,0.50362 1.74095,2.25359 2.51933,3.36709 1.42197,2.34699 2.27876,5.19729 4.48545,6.93568 2.40162,1.37618 5.33114,0.88539 7.98229,1.11392 5.35324,0.0818 10.72602,0.3277 16.07039,-0.0312 2.0979,-0.23686 3.46949,-2.01618 4.2958,-3.80577 1.22287,-2.19188 2.3666,-4.42669 3.54867,-6.64062 6.94207,-0.0224 13.87023,0.14747 20.80439,0.22451 4.00312,-0.0625 8.03476,0.19939 12.02083,-0.16927 1.55151,-0.30135 2.46145,-1.87144 2.22396,-3.38068 -0.39574,-3.83224 -1.62848,-7.51875 -2.37574,-11.29492 -3.5378,-15.21851 -6.88701,-30.48201 -10.4493,-45.69364 -0.60041,-1.68899 -1.04583,-3.99989 -3.0052,-4.58515 -0.29532,-0.0894 -0.61465,-0.1151 -0.92808,-0.0994 z m -44.26047,64.17546 c 6.21911,0.0684 12.45947,-10e-4 18.661,0.45852 -0.42362,1.58426 -1.32375,3.01245 -1.9556,4.52438 -6.14324,-0.0812 -12.30918,0.0574 -18.43449,-0.4309 -1.48686,-0.44357 -1.967,-2.25121 -2.59089,-3.50791 -0.10163,-0.35613 -0.52932,-1.16217 0.22076,-0.97543 1.36489,-0.066 2.73295,-0.0665 4.09922,-0.0687 z"
       id="path4010-6"
       inkscape:connector-curvature="0" />
    <path
       style="color:#000000;fill:#000000;fill-opacity:1;fill-rule:nonzero;stroke:#000000;stroke-width:0.03194096;stroke-linecap:butt;stroke-linejoin:miter;stroke-miterlimit:4;stroke-opacity:1;stroke-dasharray:none;stroke-dashoffset:0;marker:none;visibility:visible;display:inline;overflow:visible;enable-background:accumulate"
       d="m -239.48597,485.3007 c -1.90702,-0.0113 -4.06556,1.38473 -3.92578,3.48828 -0.063,3.8814 1.21469,7.60653 1.95648,11.37688 0.53563,2.10864 0.82225,4.28524 1.44586,6.36531 0.74502,1.331 1.91148,2.54731 3.34375,3.1289 1.74805,0.59768 3.39665,-0.7015 4.41406,-2.00781 1.43875,-1.51504 0.65094,-3.73642 0.30485,-5.51965 -1.08818,-4.63282 -1.92336,-9.35332 -3.54598,-13.83884 -0.43637,-1.48051 -1.60808,-2.80731 -3.21832,-2.94588 -0.25575,-0.0415 -0.51607,-0.0565 -0.77492,-0.0472 z"
       id="path4012-1"
       inkscape:connector-curvature="0" />
    <path
       style="color:#000000;fill:#4a8424;fill-opacity:1;fill-rule:nonzero;stroke:#4a8424;stroke-width:0.00798524;stroke-linecap:butt;stroke-linejoin:miter;stroke-miterlimit:4;stroke-opacity:1;stroke-dasharray:none;stroke-dashoffset:0;marker:none;visibility:visible;display:inline;overflow:visible;enable-background:accumulate"
       d="m -239.47985,485.17646 c -1.03485,-0.0136 -2.06061,0.35829 -2.87598,0.98828 -0.63369,0.49019 -1.04267,1.23134 -1.14771,2.02203 -0.19954,1.49142 0.0326,2.99913 0.2851,4.46958 0.50963,2.77255 1.22309,5.50288 1.82036,8.2573 0.33687,1.54151 0.66304,3.08878 0.966,4.63536 0.0573,0.37003 0.10093,0.74963 0.30379,1.07471 0.52077,0.9872 1.30125,1.82625 2.18457,2.50098 0.80902,0.60072 1.85887,0.98342 2.86914,0.74707 1.15544,-0.24971 2.05818,-1.0891 2.79745,-1.96436 0.59521,-0.68234 1.03138,-1.54698 1.01505,-2.47021 -0.008,-1.25543 -0.39311,-2.4648 -0.65122,-3.6831 -0.96354,-4.09595 -1.70043,-8.25618 -3.00616,-12.2606 -0.37124,-1.03987 -0.69599,-2.12743 -1.37582,-3.01529 -0.73788,-0.84418 -1.87033,-1.31138 -2.98633,-1.30078 -0.0661,-5e-4 -0.13215,-0.003 -0.19824,-0.001 z"
       id="path4014-8"
       inkscape:connector-curvature="0" />
    <g
       transform="matrix(1.4128456,0,0,1.4128456,-621.60973,363.83749)"
       style="font-size:40px;font-style:normal;font-variant:normal;font-weight:bold;font-stretch:normal;line-height:125%;letter-spacing:0px;word-spacing:0px;fill:#1d4999;fill-opacity:1;stroke:none;font-family:Black Han Sans;-inkscape-font-specification:Black Han Sans Bold"
       id="flowRoot4527">
      <path
         d="m 796.94375,10.653001 -0.44,0 -4.08,-19.0400004 -10.12,0 7.44,30.0000004 14,0 7.44,-30.0000004 -10.12,0 -4.12,19.0400004"
         style="text-align:center;line-height:85.00000237999998376%;letter-spacing:2.69000077000000015px;word-spacing:0.31000006000000002px;text-anchor:middle;-inkscape-font-specification:Black Han Sans Bold;fill:#1d4999;fill-opacity:1"
         id="path3063" />
      <path
         d="m 835.5,3.3330006 -9.6,0 0,-4.04 10.32,0 1.2,-7.68 -21.12,0 0,30.0000004 21.36,0 0,-7.68 -11.76,0 0,-3.64 9.6,0 0,-6.9600004"
         style="text-align:center;line-height:85.00000237999998376%;letter-spacing:2.69000077000000015px;word-spacing:0.31000006000000002px;text-anchor:middle;-inkscape-font-specification:Black Han Sans Bold;fill:#1d4999;fill-opacity:1"
         id="path3065" />
      <path
         d="m 865.41875,11.613001 5.2,10 -10.56,0 -3.92,-8.92 -2.08,0 0,8.92 -9.6,0 0,-30.0000004 15.12,0 c 6.87997,3e-5 10.31997,3.5066932 10.32,10.52 -3e-5,4.8000147 -1.49336,7.9600114 -4.48,9.4800004 m -9.16,-12.3200004 -2.2,0 0,6 2.2,0 c 1.17332,1.63e-5 2.01332,-0.1199836 2.52,-0.36 0.53331,-0.2399831 0.79998,-0.7866492 0.8,-1.64 l 0,-2 c -2e-5,-0.85331216 -0.26669,-1.39997828 -0.8,-1.64 -0.50668,-0.2399778 -1.34668,-0.35997768 -2.52,-0.36"
         style="text-align:center;line-height:85.00000237999998376%;letter-spacing:2.69000077000000015px;word-spacing:0.31000006000000002px;text-anchor:middle;-inkscape-font-specification:Black Han Sans Bold;fill:#1d4999;fill-opacity:1"
         id="path3067" />
      <path
         d="m 875.48,21.093001 1.36,-7.92 c 2.93332,0.720007 5.58666,1.080007 7.96,1.08 1.19999,7e-6 2.25332,-0.01333 3.16,-0.04 0.93332,-0.05333 1.75998,-0.133326 2.48,-0.24 l 0,-2.4 -4.32,-0.36 c -1.94668,-0.186656 -3.57334,-0.506656 -4.88,-0.96 -1.30668,-0.4533219 -2.36001,-1.0666546 -3.16,-1.8400004 -0.77334,-0.799986 -1.33334,-1.7466517 -1.68,-2.84 -0.32,-1.1199828 -0.48,-2.4266482 -0.48,-3.92 0,-2.05331132 0.21333,-3.7599763 0.64,-5.12 0.42666,-1.3866402 1.10666,-2.4933058 2.04,-3.32 0.93333,-0.8533041 2.13332,-1.4533035 3.6,-1.8 1.49332,-0.3466361 3.30665,-0.5199693 5.44,-0.52 4.23998,3.07e-5 8.07998,0.4000303 11.52,1.2 l -1.2,7.68 c -2.98669,-0.47997768 -5.37335,-0.71997744 -7.16,-0.72 -1.78668,2.256e-5 -3.30668,0.0800225 -4.56,0.24 l 0,2.36 3.44,0.32 c 2.10665,0.2133528 3.86664,0.5733524 5.28,1.08 1.41331,0.4800181 2.54664,1.1200174 3.4,1.92 0.87997,0.8000158 1.4933,1.7466816 1.84,2.84 0.3733,1.093346 0.55997,2.3466784 0.56,3.7600004 -3e-5,2.026674 -0.2667,3.733339 -0.8,5.12 -0.53336,1.38667 -1.17336,2.440002 -1.92,3.16 -0.61336,0.586667 -1.37336,1.053334 -2.28,1.4 -0.90669,0.32 -1.86669,0.559999 -2.88,0.72 -1.01335,0.159999 -2.04002,0.253332 -3.08,0.28 -1.01335,0.05333 -1.93335,0.08 -2.76,0.08 -2.08001,-1e-6 -4.08001,-0.106668 -6,-0.32 -1.92001,-0.213334 -3.77334,-0.52 -5.56,-0.92"
         style="text-align:center;line-height:85.00000237999998376%;letter-spacing:2.69000077000000015px;word-spacing:0.31000006000000002px;text-anchor:middle;-inkscape-font-specification:Black Han Sans Bold;fill:#1d4999;fill-opacity:1"
         id="path3069" />
      <path
         d="m 928.38625,-8.3869994 -23.52,0 0,7.68 6.96,0 0,22.3200004 9.6,0 0,-22.3200004 6.96,0 0,-7.68"
         style="text-align:center;line-height:85.00000237999998376%;letter-spacing:2.69000077000000015px;word-spacing:0.31000006000000002px;text-anchor:middle;-inkscape-font-specification:Black Han Sans Bold;fill:#1d4999;fill-opacity:1"
         id="path3071" />
      <path
         d="m 952.90062,3.3330006 -9.6,0 0,-4.04 10.32,0 1.2,-7.68 -21.12,0 0,30.0000004 21.36,0 0,-7.68 -11.76,0 0,-3.64 9.6,0 0,-6.9600004"
         style="text-align:center;line-height:85.00000237999998376%;letter-spacing:2.69000077000000015px;word-spacing:0.31000006000000002px;text-anchor:middle;-inkscape-font-specification:Black Han Sans Bold;fill:#1d4999;fill-opacity:1"
         id="path3073" />
      <path
         d="m 982.81937,11.613001 5.2,10 -10.56,0 -3.92,-8.92 -2.08,0 0,8.92 -9.6,0 0,-30.0000004 15.12,0 c 6.87998,3e-5 10.31997,3.5066932 10.32,10.52 -3e-5,4.8000147 -1.49336,7.9600114 -4.48,9.4800004 m -9.16,-12.3200004 -2.2,0 0,6 2.2,0 c 1.17332,1.63e-5 2.01332,-0.1199836 2.52,-0.36 0.53332,-0.2399831 0.79998,-0.7866492 0.8,-1.64 l 0,-2 c -2e-5,-0.85331216 -0.26668,-1.39997828 -0.8,-1.64 -0.50668,-0.2399778 -1.34668,-0.35997768 -2.52,-0.36"
         style="text-align:center;line-height:85.00000237999998376%;letter-spacing:2.69000077000000015px;word-spacing:0.31000006000000002px;text-anchor:middle;-inkscape-font-specification:Black Han Sans Bold;fill:#1d4999;fill-opacity:1"
         id="path3075" />
      <path
         d="m 1003.8806,8.5730006 -0.2,0 0,13.0400004 -9.59998,0 0,-30.0000004 9.59998,0 0,12.24 0.2,0 c 0.027,-0.4799818 0.08,-0.906648 0.16,-1.28 0.08,-0.3999806 0.1867,-0.7466469 0.32,-1.04 l 4.68,-9.92 10.4,0 -7.2,14.72 7.44,15.2800004 -10.4,0 -4.92,-10.76 c -0.1333,-0.293323 -0.24,-0.626656 -0.32,-1.0000004 -0.08,-0.3733212 -0.1333,-0.7999874 -0.16,-1.28"
         style="text-align:center;line-height:85.00000237999998376%;letter-spacing:2.69000077000000015px;word-spacing:0.31000006000000002px;text-anchor:middle;-inkscape-font-specification:Black Han Sans Bold;fill:#1d4999;fill-opacity:1"
         id="path3077" />
      <path
         d="m 892.48712,53.085 -8.064,0 0,-18 8.064,0 c 1.61599,1.8e-5 2.96799,0.168018 4.056,0.504 1.08799,0.320017 1.95999,0.840017 2.616,1.56 0.65599,0.720015 1.11999,1.648014 1.392,2.784 0.28799,1.136012 0.43199,2.512011 0.432,4.128 -10e-6,1.616007 -0.14401,3.000006 -0.432,4.152 -0.27201,1.136004 -0.73601,2.064003 -1.392,2.784 -0.65601,0.720001 -1.52801,1.248001 -2.616,1.584 -1.08801,0.336 -2.44001,0.504 -4.056,0.504 m 0.096,-13.392 -2.4,0 0,8.784 2.4,0 c 0.79999,5e-6 1.36799,-0.08799 1.704,-0.264 0.35199,-0.191995 0.52799,-0.615995 0.528,-1.272 l 0,-5.712 c -10e-6,-0.655987 -0.17601,-1.071987 -0.528,-1.248 -0.33601,-0.191987 -0.90401,-0.287987 -1.704,-0.288"
         style="font-size:24px;text-align:center;letter-spacing:2.69000077000000015px;word-spacing:-3.88999701000000009px;text-anchor:middle;-inkscape-font-specification:Black Han Sans Bold;fill:#1d4999;fill-opacity:1"
         id="path3079" />
      <path
         d="m 917.19563,42.117 -5.76,0 0,-2.424 6.192,0 0.72,-4.608 -12.672,0 0,18 12.816,0 0,-4.608 -7.056,0 0,-2.184 5.76,0 0,-4.176"
         style="font-size:24px;text-align:center;letter-spacing:2.69000077000000015px;word-spacing:-3.88999701000000009px;text-anchor:middle;-inkscape-font-specification:Black Han Sans Bold;fill:#1d4999;fill-opacity:1"
         id="path3081" />
      <path
         d="m 833.41219,88.485 -6.24,0 0,7.24 -9.6,0 0,-30 15.12,0 c 6.87997,3e-5 10.31997,3.69336 10.32,11.08 -3e-5,1.626684 -0.16003,3.146682 -0.48,4.56 -0.32003,1.413346 -0.8667,2.653345 -1.64,3.72 -0.7467,1.04001 -1.73336,1.866675 -2.96,2.48 -1.20003,0.613341 -2.70669,0.920007 -4.52,0.92 m -4.04,-15.08 -2.2,0 0,7.4 2.2,0 c 1.17331,1.5e-5 2.01331,-0.119985 2.52,-0.36 0.53331,-0.239984 0.79998,-0.799984 0.8,-1.68 l 0,-3.36 c -2e-5,-0.853312 -0.26669,-1.399978 -0.8,-1.64 -0.50669,-0.239978 -1.34669,-0.359978 -2.52,-0.36"
         style="text-align:center;letter-spacing:2.69000077000000015px;word-spacing:-3.88999701000000009px;text-anchor:middle;-inkscape-font-specification:Black Han Sans Bold;fill:#1d4999;fill-opacity:1"
         id="path3083" />
      <path
         d="m 867.82156,77.445 -9.6,0 0,-4.04 10.32,0 1.2,-7.68 -21.12,0 0,30 21.36,0 0,-7.68 -11.76,0 0,-3.64 9.6,0 0,-6.96"
         style="text-align:center;letter-spacing:2.69000077000000015px;word-spacing:-3.88999701000000009px;text-anchor:middle;-inkscape-font-specification:Black Han Sans Bold;fill:#1d4999;fill-opacity:1"
         id="path3085" />
      <path
         d="m 898.14031,65.725 -23.52,0 0,7.68 6.96,0 0,22.32 9.6,0 0,-22.32 6.96,0 0,-7.68"
         style="text-align:center;letter-spacing:2.69000077000000015px;word-spacing:-3.88999701000000009px;text-anchor:middle;-inkscape-font-specification:Black Han Sans Bold;fill:#1d4999;fill-opacity:1"
         id="path3087" />
      <path
         d="m 913.05468,95.725 0,-30 -9.6,0 0,30 9.6,0"
         style="text-align:center;letter-spacing:2.69000077000000015px;word-spacing:-3.88999701000000009px;text-anchor:middle;-inkscape-font-specification:Black Han Sans Bold;fill:#1d4999;fill-opacity:1"
         id="path3089" />
      <path
         d="m 941.87969,65.725 -23.52,0 0,7.68 6.96,0 0,22.32 9.6,0 0,-22.32 6.96,0 0,-7.68"
         style="text-align:center;letter-spacing:2.69000077000000015px;word-spacing:-3.88999701000000009px;text-anchor:middle;-inkscape-font-specification:Black Han Sans Bold;fill:#1d4999;fill-opacity:1"
         id="path3091" />
      <path
         d="m 956.79406,95.725 0,-30 -9.6,0 0,30 9.6,0"
         style="text-align:center;letter-spacing:2.69000077000000015px;word-spacing:-3.88999701000000009px;text-anchor:middle;-inkscape-font-specification:Black Han Sans Bold;fill:#1d4999;fill-opacity:1"
         id="path3093" />
      <path
         d="m 983.45906,77.445 -9.6,0 0,-4.04 10.32,0 1.2,-7.68 -21.12,0 0,30 21.36,0 0,-7.68 -11.76,0 0,-3.64 9.6,0 0,-6.96"
         style="text-align:center;letter-spacing:2.69000077000000015px;word-spacing:-3.88999701000000009px;text-anchor:middle;-inkscape-font-specification:Black Han Sans Bold;fill:#1d4999;fill-opacity:1"
         id="path3095" />
    </g>
    <g
       transform="translate(-243.63907,339.35714)"
       style="font-size:40px;font-style:normal;font-weight:normal;line-height:125%;letter-spacing:0px;word-spacing:0px;fill:#000000;fill-opacity:1;stroke:none;font-family:Sans"
       id="flowRoot3010" />
    <g
       transform="translate(-243.63907,339.35714)"
       style="font-size:40px;font-style:normal;font-weight:normal;line-height:125%;letter-spacing:0px;word-spacing:0px;fill:#000000;fill-opacity:1;stroke:none;font-family:Sans"
       id="flowRoot3022" />
    <g
       transform="translate(-243.63907,339.35714)"
       style="font-size:40px;font-style:normal;font-weight:normal;line-height:125%;letter-spacing:0px;word-spacing:13.72000027px;fill:#000000;fill-opacity:1;stroke:none;font-family:Sans"
       id="flowRoot3038" />
    <g
       transform="translate(-243.63907,339.35714)"
       style="font-size:40px;font-style:normal;font-weight:normal;line-height:125%;letter-spacing:0px;word-spacing:13.72000027px;fill:#000000;fill-opacity:1;stroke:none;font-family:Sans"
       id="text3818" />
  </g>
</svg>
