<svg xmlns="http://www.w3.org/2000/svg" xmlns:xlink="http://www.w3.org/1999/xlink" viewBox="0 0 391.73 320.88"><defs><style>.cls-1,.cls-5{fill:none;}.cls-2{isolation:isolate;}.cls-3{clip-path:url(#clip-path);}.cls-4{fill:#1d1d1b;}.cls-5{stroke:#e20613;stroke-width:1.07px;}.cls-6,.cls-8{fill:#aa182c;}.cls-7{fill:#cc9800;}.cls-8{mix-blend-mode:multiply;}</style><clipPath id="clip-path" transform="translate(-106.27 -188.86)"><rect class="cls-1" x="97.27" y="307.19" width="400.73" height="238.7"/></clipPath></defs><title>Logo_digging_1</title><g class="cls-2"><g id="Laag_1" data-name="Laag 1"><g class="cls-3"><path class="cls-4" d="M180,545.89" transform="translate(-106.27 -188.86)"/><path class="cls-5" d="M180,545.89" transform="translate(-106.27 -188.86)"/><path class="cls-6" d="M396,445.16h6.49L405.2,438h12.66l2.68,7.16h6.94l-12.26-31.22h-7.06Zm20.13-12.07H407l4.52-12.88h.09ZM383,445.16h6.26v-26.3h8.94v-4.92H374.08v4.92H383Zm-38.24,0h6.48L354,438h12.66l2.68,7.16h6.93L364,413.94H357Zm20.12-12.07h-9.12l4.52-12.88h.09Zm-41.55-14.23h3.48c5.24,0,10.29,3.89,10.29,10.69s-5.05,10.69-10.29,10.69h-3.48Zm-6.27,26.3h8.55c9.57,0,18-3.22,18-15.61s-8.45-15.61-18-15.61h-8.55Z" transform="translate(-106.27 -188.86)"/><path class="cls-6" d="M369.48,400.44h3.09V385.72h2.55c2.95,0,4.29.14,6.08,4.16l4.52,10.56h3.4l-5.32-12.08c-1-2.1-1.52-3.44-4-3.75v-.09c3.85-.49,6.93-3.18,6.93-7.2,0-5.73-3.62-8.1-9.17-8.1h-8Zm3.09-28.53h3.18c4.24,0,7.87.31,7.87,5.41,0,4.34-4.16,5.72-7.78,5.72h-3.27Zm-23.13-.54c7.34,0,10.64,6.84,10.64,13.46s-3.3,13.46-10.64,13.46-10.64-6.84-10.64-13.46,3.31-13.46,10.64-13.46m-13.73,13.46c.09,9.57,4.74,16.15,13.73,16.15s13.64-6.58,13.73-16.15c.09-8.45-4.34-16.14-13.73-16.14s-13.82,7.69-13.73,16.14m-18.79,15.61H320V385.72h11.23V383H320V371.91h11.76v-2.69H316.92Z" transform="translate(-106.27 -188.86)"/><path class="cls-6" d="M497.07,325.26a31,31,0,0,0-9.17-1.3c-10.6,0-17.13,6-17.13,16.69s7,15.6,17.13,15.6A39.19,39.19,0,0,0,498,354.64V337.83H485.39v4.92H492v8.14a17.35,17.35,0,0,1-4.11.44c-6.67,0-10.6-4.78-10.6-11.13s4-11.32,11.31-11.32a20.37,20.37,0,0,1,8.05,1.66Zm-57.44,30.46h6V332.37h.09l11.94,23.35h7.65V324.5h-6v23.35h-.09L447.33,324.5h-7.7Zm-13,0h6.27V324.5h-6.27Zm-7.44-30.46a30.91,30.91,0,0,0-9.16-1.3c-10.6,0-17.13,6-17.13,16.69s7,15.6,17.13,15.6a39.12,39.12,0,0,0,10.1-1.61V337.83H407.56v4.92h6.62v8.14a17.41,17.41,0,0,1-4.11.44c-6.67,0-10.6-4.78-10.6-11.13s4-11.32,11.31-11.32a20.37,20.37,0,0,1,8.05,1.66Zm-32.24,0a30.91,30.91,0,0,0-9.16-1.3c-10.6,0-17.13,6-17.13,16.69s7,15.6,17.13,15.6a39.12,39.12,0,0,0,10.1-1.61V337.83H375.32v4.92h6.62v8.14a17.35,17.35,0,0,1-4.11.44c-6.67,0-10.6-4.78-10.6-11.13s4-11.32,11.31-11.32a20.37,20.37,0,0,1,8,1.66Zm-37.91,30.46h6.26V324.5h-6.26Zm-25.72-26.3h3.48c5.24,0,10.29,3.89,10.29,10.69s-5.05,10.69-10.29,10.69h-3.48Zm-6.27,26.3h8.55c9.57,0,18-3.22,18-15.61s-8.45-15.61-18-15.61h-8.55Z" transform="translate(-106.27 -188.86)"/></g><rect class="cls-7" y="300.12" width="192.45" height="20.77"/><rect class="cls-7" y="118.33" width="192.45" height="18.66"/><rect class="cls-7" y="208.39" width="192.45" height="16.83"/><rect class="cls-7" y="281.65" width="192.45" height="8.41"/><rect class="cls-7" y="192.71" width="192.45" height="8.41"/><rect class="cls-7" y="259.82" width="192.45" height="8.41"/><rect class="cls-7" y="169.67" width="192.45" height="8.41"/><rect class="cls-7" y="154.24" width="192.45" height="8.41"/><g class="cls-3"><path class="cls-7" d="M287.06,444.21c7.12,0,8.6-6.94,8.6-12.66s-1.41-12.8-8.6-12.8c-6.67,0-8.54,6.63-8.54,12.8,0,5.15,1,12.66,8.54,12.66m0-3.66c-3.63,0-3.6-5.89-3.6-9s0-9.13,3.6-9.13,3.66,6,3.66,9.13,0,9-3.66,9m-20.67,3.66c7.13,0,8.61-6.94,8.61-12.66s-1.41-12.8-8.61-12.8c-6.66,0-8.53,6.63-8.53,12.8,0,5.15.95,12.66,8.53,12.66m0-3.66c-3.63,0-3.59-5.89-3.59-9s0-9.13,3.59-9.13,3.67,6,3.67,9.13,0,9-3.67,9m-20.66,3.66c7.12,0,8.6-6.94,8.6-12.66s-1.41-12.8-8.6-12.8c-6.66,0-8.53,6.63-8.53,12.8,0,5.15,1,12.66,8.53,12.66m0-3.66c-3.63,0-3.6-5.89-3.6-9s0-9.13,3.6-9.13,3.67,6,3.67,9.13,0,9-3.67,9M218.09,425l2.46,3.21,4.16-3.39v19h4.94V419.18h-4.37ZM204.4,444.21c7.13,0,8.61-6.94,8.61-12.66s-1.41-12.8-8.61-12.8c-6.66,0-8.53,6.63-8.53,12.8,0,5.15.95,12.66,8.53,12.66m0-3.66c-3.63,0-3.59-5.89-3.59-9s0-9.13,3.59-9.13,3.67,6,3.67,9.13,0,9-3.67,9m-20.66,3.66c7.12,0,8.6-6.94,8.6-12.66s-1.41-12.8-8.6-12.8c-6.66,0-8.53,6.63-8.53,12.8,0,5.15.95,12.66,8.53,12.66m0-3.66c-3.63,0-3.6-5.89-3.6-9s0-9.13,3.6-9.13,3.67,6,3.67,9.13,0,9-3.67,9M156.1,425l2.46,3.21,4.17-3.39v19h4.93V419.18h-4.37Zm-20.67,0,2.47,3.21,4.16-3.39v19H147V419.18h-4.37Zm-13.68,19.25c7.12,0,8.61-6.94,8.61-12.66s-1.42-12.8-8.61-12.8c-6.66,0-8.53,6.63-8.53,12.8,0,5.15,1,12.66,8.53,12.66m0-3.66c-3.63,0-3.6-5.89-3.6-9s0-9.13,3.6-9.13,3.67,6,3.67,9.13,0,9-3.67,9" transform="translate(-106.27 -188.86)"/></g></g><g id="Laag_3" data-name="Laag 3"><path class="cls-8" d="M193.81,203.77l-41.17,13.46c2.51,9.6,6.29,18.11,14.28,23.7,10.23,7.16,21.61,3.21,26.53-9.06,3.76-9.36,2.56-18.55.36-28.1M191,189.1c1.77-.48,3.35-.41,4,1.75,3.09,10.8,5.83,21.67,5.17,33.27-.45,8-2.1,15.61-8.31,21.55a2.8,2.8,0,0,0-.6,2.21c2,9.5,3.95,19,6.17,28.47,5.61,23.83,11.17,47.68,17.16,71.4,1.85,7.35,4.85,14.36,7.61,21.39a20.94,20.94,0,0,0,4,5.85c1.21,1.39,2.68,1.61,4.24-.22a8.93,8.93,0,0,1,3.62-2.39c5.18-1.83,10.43-3.46,16.24-5.36,3.85,18.27,11.46,35.13,10.66,54.22-.47,11-2.24,21.9-9,31-9.67,13-11.55,13.66-25.66,9-10.19-3.34-17.2-11-23-19.92a76.43,76.43,0,0,1-10.13-22.92c-2.52-9.94-5.24-19.82-8-30.1,6.1-2,12-3.93,17.9-5.83a3,3,0,0,1,1.22,0c4.12.52,5.38-.21,5.28-4.55-.13-5.86-.28-11.91-1.76-17.42-5-18.7-10.7-37.17-16-55.77-2.67-9.36-4.93-18.85-7.67-28.18-2.38-8.06-5.15-16-7.82-23.91a2.49,2.49,0,0,0-1.64-1.5c-8.16-1.21-13.21-6.68-17.54-13.11-6.28-9.33-9.1-20.2-11.81-31.12-.56-2.25.81-3.23,2.51-3.82" transform="translate(-106.27 -188.86)"/></g></g></svg>