<?xml version="1.0" encoding="UTF-8" standalone="no"?>
<!-- Created with Inkscape (http://www.inkscape.org/) -->

<svg
   xmlns:dc="http://purl.org/dc/elements/1.1/"
   xmlns:cc="http://creativecommons.org/ns#"
   xmlns:rdf="http://www.w3.org/1999/02/22-rdf-syntax-ns#"
   xmlns:svg="http://www.w3.org/2000/svg"
   xmlns="http://www.w3.org/2000/svg"
   version="1.1"
   width="497.78751"
   height="223.72501"
   id="svg3393"
   xml:space="preserve"><metadata
     id="metadata3399"><rdf:RDF><cc:Work
         rdf:about=""><dc:format>image/svg+xml</dc:format><dc:type
           rdf:resource="http://purl.org/dc/dcmitype/StillImage" /><dc:title></dc:title></cc:Work></rdf:RDF></metadata><defs
     id="defs3397" /><g
     transform="matrix(1.25,0,0,-1.25,0,223.725)"
     id="g3401"><g
       transform="scale(0.1,0.1)"
       id="g3403"><path
         d="m 1186.3,1347.46 c -52.69,-28.16 -111.58,-42.22 -176.72,-42.22 -32.971,0 -63.232,5.33 -90.771,15.98 -27.539,10.65 -51.258,25.73 -71.164,45.24 -19.903,19.49 -35.489,42.91 -46.747,70.26 -11.257,27.34 -16.882,57.69 -16.882,91.07 0,34.17 5.625,65.23 16.882,93.18 11.258,27.94 26.844,51.76 46.747,71.47 19.906,19.69 43.625,34.88 71.164,45.53 27.539,10.65 57.8,15.99 90.771,15.99 32.57,0 63.13,-3.92 91.68,-11.76 28.54,-7.84 54.07,-21.82 76.59,-41.92 l -56.09,-56.69 c -13.67,13.27 -30.26,23.52 -49.76,30.75 -19.5,7.24 -40.11,10.87 -61.81,10.87 -22.124,0 -42.131,-3.92 -60.014,-11.77 -17.903,-7.84 -33.281,-18.69 -46.145,-32.56 -12.871,-13.88 -22.82,-30.07 -29.851,-48.56 -7.039,-18.5 -10.559,-38.4 -10.559,-59.71 0,-22.91 3.52,-44.03 10.559,-63.32 7.031,-19.31 16.98,-35.99 29.851,-50.06 12.864,-14.09 28.242,-25.14 46.145,-33.18 17.883,-8.04 37.89,-12.06 60.014,-12.06 19.29,0 37.49,1.81 54.58,5.43 17.09,3.62 32.26,9.25 45.53,16.89 l 0,100.72 -87.45,0 0,68.76 163.45,0 0,-218.33"
         id="path3405"
         style="fill:#000000;fill-opacity:1;fill-rule:nonzero;stroke:none" /><path
         d="m 1475.79,1489.79 c -0.4,21.31 -7.03,38.09 -19.9,50.36 -12.87,12.26 -30.75,18.4 -53.67,18.4 -21.72,0 -38.91,-6.24 -51.58,-18.7 -12.66,-12.47 -20.41,-29.16 -23.21,-50.06 l 148.36,0 z m -148.36,-54.28 c 2.41,-21.71 10.85,-38.6 25.32,-50.66 14.49,-12.06 31.98,-18.09 52.48,-18.09 18.09,0 33.27,3.71 45.53,11.15 12.27,7.44 23.02,16.79 32.27,28.05 l 51.87,-39.2 c -16.88,-20.92 -35.79,-35.8 -56.7,-44.63 -20.91,-8.84 -42.82,-13.27 -65.73,-13.27 -21.72,0 -42.23,3.62 -61.52,10.85 -19.3,7.24 -35.99,17.49 -50.06,30.76 -14.08,13.27 -25.24,29.25 -33.48,47.95 -8.24,18.69 -12.36,39.51 -12.36,62.42 0,22.92 4.12,43.73 12.36,62.43 8.24,18.69 19.4,34.68 33.48,47.94 14.07,13.27 30.76,23.52 50.06,30.76 19.29,7.24 39.8,10.86 61.52,10.86 20.1,0 38.5,-3.53 55.19,-10.56 16.68,-7.04 30.95,-17.19 42.82,-30.45 11.85,-13.27 21.1,-29.66 27.73,-49.16 6.64,-19.51 9.96,-41.91 9.96,-67.25 l 0,-19.9 -220.74,0"
         id="path3407"
         style="fill:#000000;fill-opacity:1;fill-rule:nonzero;stroke:none" /><path
         d="m 1612.7,1605.59 68.75,0 0,-45.23 1.21,0 c 6.42,13.66 16.78,25.83 31.06,36.48 14.27,10.66 33.47,15.99 57.6,15.99 45.43,0 75.58,-17.9 90.47,-53.68 10.45,18.49 23.51,32.06 39.2,40.71 15.68,8.64 34.37,12.97 56.08,12.97 19.31,0 35.59,-3.22 48.86,-9.65 13.27,-6.44 24.02,-15.29 32.26,-26.54 8.25,-11.26 14.17,-24.43 17.8,-39.5 3.62,-15.08 5.43,-31.27 5.43,-48.56 l 0,-172.49 -72.38,0 0,164.05 c 0,8.84 -0.81,17.39 -2.41,25.64 -1.61,8.23 -4.43,15.47 -8.45,21.7 -4.02,6.23 -9.45,11.16 -16.28,14.79 -6.84,3.61 -15.68,5.42 -26.54,5.42 -11.26,0 -20.81,-2.11 -28.64,-6.33 -7.84,-4.22 -14.28,-9.86 -19.31,-16.89 -5.03,-7.04 -8.65,-15.08 -10.85,-24.12 -2.21,-9.05 -3.32,-18.2 -3.32,-27.44 l 0,-156.82 -72.37,0 0,172.49 c 0,18.1 -3.83,32.47 -11.47,43.13 -7.63,10.65 -20.3,15.98 -37.98,15.98 -12.07,0 -22.23,-2.02 -30.46,-6.03 -8.25,-4.02 -15.08,-9.45 -20.51,-16.28 -5.43,-6.84 -9.35,-14.69 -11.76,-23.52 -2.42,-8.85 -3.62,-18.1 -3.62,-27.75 l 0,-158.02 -72.37,0 0,289.5"
         id="path3409"
         style="fill:#000000;fill-opacity:1;fill-rule:nonzero;stroke:none" /><path
         d="m 2346.69,1489.79 c -0.4,21.31 -7.03,38.09 -19.9,50.36 -12.87,12.26 -30.75,18.4 -53.67,18.4 -21.72,0 -38.91,-6.24 -51.58,-18.7 -12.66,-12.47 -20.41,-29.16 -23.21,-50.06 l 148.36,0 z m -148.36,-54.28 c 2.41,-21.71 10.85,-38.6 25.32,-50.66 14.48,-12.06 31.98,-18.09 52.48,-18.09 18.09,0 33.26,3.71 45.53,11.15 12.27,7.44 23.02,16.79 32.27,28.05 l 51.87,-39.2 c -16.88,-20.92 -35.79,-35.8 -56.7,-44.63 -20.91,-8.84 -42.82,-13.27 -65.73,-13.27 -21.72,0 -42.23,3.62 -61.52,10.85 -19.3,7.24 -35.99,17.49 -50.06,30.76 -14.08,13.27 -25.24,29.25 -33.48,47.95 -8.24,18.69 -12.36,39.51 -12.36,62.42 0,22.92 4.12,43.73 12.36,62.43 8.24,18.69 19.4,34.68 33.48,47.94 14.07,13.27 30.76,23.52 50.06,30.76 19.29,7.24 39.8,10.86 61.52,10.86 20.1,0 38.5,-3.53 55.18,-10.56 16.68,-7.04 30.96,-17.19 42.83,-30.45 11.85,-13.27 21.1,-29.66 27.73,-49.16 6.64,-19.51 9.96,-41.91 9.96,-67.25 l 0,-19.9 -220.74,0"
         id="path3411"
         style="fill:#000000;fill-opacity:1;fill-rule:nonzero;stroke:none" /><path
         d="m 2692.87,1489.79 c -0.4,21.31 -7.03,38.09 -19.9,50.36 -12.87,12.26 -30.75,18.4 -53.67,18.4 -21.72,0 -38.91,-6.24 -51.58,-18.7 -12.66,-12.47 -20.41,-29.16 -23.21,-50.06 l 148.36,0 z m -148.36,-54.28 c 2.41,-21.71 10.85,-38.6 25.32,-50.66 14.49,-12.06 31.98,-18.09 52.48,-18.09 18.09,0 33.27,3.71 45.53,11.15 12.27,7.44 23.02,16.79 32.27,28.05 l 51.87,-39.2 c -16.88,-20.92 -35.79,-35.8 -56.7,-44.63 -20.9,-8.84 -42.82,-13.27 -65.73,-13.27 -21.72,0 -42.23,3.62 -61.52,10.85 -19.3,7.24 -35.99,17.49 -50.06,30.76 -14.08,13.27 -25.24,29.25 -33.48,47.95 -8.24,18.69 -12.36,39.51 -12.36,62.42 0,22.92 4.12,43.73 12.36,62.43 8.24,18.69 19.4,34.68 33.48,47.94 14.07,13.27 30.76,23.52 50.06,30.76 19.29,7.24 39.8,10.86 61.52,10.86 20.1,0 38.5,-3.53 55.19,-10.56 16.68,-7.04 30.95,-17.19 42.82,-30.45 11.85,-13.27 21.1,-29.66 27.73,-49.16 6.64,-19.51 9.96,-41.91 9.96,-67.25 l 0,-19.9 -220.74,0"
         id="path3413"
         style="fill:#000000;fill-opacity:1;fill-rule:nonzero;stroke:none" /><path
         d="m 2832.79,1605.59 68.75,0 0,-46.44 1.21,0 c 6.83,14.48 17.29,27.04 31.36,37.69 14.07,10.66 33.18,15.99 57.3,15.99 19.3,0 35.68,-3.22 49.16,-9.65 13.46,-6.44 24.42,-14.88 32.87,-25.33 8.44,-10.46 14.47,-22.52 18.08,-36.19 3.63,-13.67 5.43,-27.95 5.43,-42.82 l 0,-182.75 -72.37,0 0,146.56 c 0,8.04 -0.4,16.98 -1.2,26.84 -0.81,9.85 -2.93,19.09 -6.34,27.74 -3.42,8.65 -8.74,15.88 -15.98,21.72 -7.24,5.82 -17.1,8.74 -29.56,8.74 -12.06,0 -22.21,-2.02 -30.46,-6.03 -8.24,-4.02 -15.07,-9.45 -20.49,-16.28 -5.43,-6.84 -9.36,-14.69 -11.77,-23.52 -2.41,-8.85 -3.61,-18.1 -3.61,-27.75 l 0,-158.02 -72.38,0 0,289.5"
         id="path3415"
         style="fill:#000000;fill-opacity:1;fill-rule:nonzero;stroke:none" /><path
         d="m 3145.2,1544.07 0,61.52 59.7,0 0,73.83 72.38,20 0,-93.83 79.61,0 0,-61.52 -79.61,0 0,-126.65 c 0,-14.47 2.71,-25.94 8.14,-34.38 5.43,-8.45 16.18,-12.66 32.27,-12.66 6.42,0 13.46,0.69 21.11,2.1 7.64,1.41 13.66,3.72 18.09,6.94 l 0,-60.92 c -7.64,-3.61 -16.99,-6.12 -28.04,-7.54 -11.07,-1.39 -20.81,-2.1 -29.25,-2.1 -19.31,0 -35.09,2.1 -47.35,6.33 -12.27,4.22 -21.92,10.65 -28.95,19.3 -7.04,8.64 -11.86,19.39 -14.47,32.27 -2.63,12.86 -3.93,27.74 -3.93,44.63 l 0,132.68 -59.7,0"
         id="path3417"
         style="fill:#000000;fill-opacity:1;fill-rule:nonzero;stroke:none" /><path
         d="m 3619.84,1489.79 c -0.4,21.31 -7.03,38.09 -19.9,50.36 -12.87,12.26 -30.75,18.4 -53.67,18.4 -21.72,0 -38.91,-6.24 -51.57,-18.7 -12.67,-12.47 -20.41,-29.16 -23.22,-50.06 l 148.36,0 z m -148.36,-54.28 c 2.42,-21.71 10.85,-38.6 25.33,-50.66 14.48,-12.06 31.97,-18.09 52.48,-18.09 18.08,0 33.26,3.71 45.52,11.15 12.27,7.44 23.02,16.79 32.27,28.05 l 51.88,-39.2 c -16.89,-20.92 -35.8,-35.8 -56.7,-44.63 -20.91,-8.84 -42.83,-13.27 -65.74,-13.27 -21.72,0 -42.22,3.62 -61.52,10.85 -19.3,7.24 -35.99,17.49 -50.06,30.76 -14.08,13.27 -25.23,29.25 -33.48,47.95 -8.24,18.69 -12.36,39.51 -12.36,62.42 0,22.92 4.12,43.73 12.36,62.43 8.25,18.69 19.4,34.68 33.48,47.94 14.07,13.27 30.76,23.52 50.06,30.76 19.3,7.24 39.8,10.86 61.52,10.86 20.1,0 38.5,-3.53 55.19,-10.56 16.68,-7.04 30.96,-17.19 42.82,-30.45 11.86,-13.27 21.1,-29.66 27.74,-49.16 6.64,-19.51 9.96,-41.91 9.96,-67.25 l 0,-19.9 -220.75,0"
         id="path3419"
         style="fill:#000000;fill-opacity:1;fill-rule:nonzero;stroke:none" /><path
         d="m 1041.54,840.336 -65.727,173.704 -66.958,-173.704 132.685,0 z m -96.489,264.164 65.739,0 183.95,-427.012 -86.85,0 -39.8,97.711 -185.16,0 -38.606,-97.711 -85.039,0 185.766,427.012"
         id="path3421"
         style="fill:#000000;fill-opacity:1;fill-rule:nonzero;stroke:none" /><path
         d="m 1232.72,966.992 68.75,0 0,-45.234 1.22,0 c 6.42,13.668 16.78,25.828 31.06,36.488 14.27,10.649 33.47,15.981 57.6,15.981 45.43,0 75.58,-17.895 90.47,-53.676 10.45,18.492 23.51,32.062 39.2,40.715 15.68,8.636 34.37,12.961 56.08,12.961 19.31,0 35.59,-3.223 48.86,-9.645 13.27,-6.437 24.02,-15.285 32.26,-26.539 8.24,-11.262 14.17,-24.426 17.8,-39.504 3.62,-15.078 5.43,-31.269 5.43,-48.555 l 0,-172.496 -72.38,0 0,164.059 c 0,8.828 -0.81,17.383 -2.41,25.625 -1.61,8.242 -4.43,15.48 -8.45,21.715 -4.02,6.23 -9.45,11.156 -16.28,14.781 -6.84,3.617 -15.68,5.422 -26.54,5.422 -11.26,0 -20.81,-2.11 -28.64,-6.332 -7.84,-4.219 -14.28,-9.852 -19.31,-16.883 -5.03,-7.043 -8.65,-15.078 -10.85,-24.133 -2.21,-9.043 -3.32,-18.191 -3.32,-27.441 l 0,-156.813 -72.37,0 0,172.496 c 0,18.098 -3.83,32.461 -11.47,43.125 -7.63,10.649 -20.3,15.981 -37.98,15.981 -12.07,0 -22.23,-2.016 -30.46,-6.027 -8.26,-4.024 -15.08,-9.454 -20.51,-16.286 -5.43,-6.839 -9.35,-14.683 -11.76,-23.519 -2.42,-8.848 -3.62,-18.098 -3.62,-27.746 l 0,-158.024 -72.38,0 0,289.504"
         id="path3423"
         style="fill:#000000;fill-opacity:1;fill-rule:nonzero;stroke:none" /><path
         d="m 1914.85,886.777 c -14.08,19.696 -32.97,29.551 -56.69,29.551 -9.64,0 -19.1,-2.41 -28.35,-7.238 -9.25,-4.824 -13.86,-12.664 -13.86,-23.52 0,-8.847 3.81,-15.281 11.45,-19.297 7.64,-4.023 17.29,-7.441 28.95,-10.253 11.66,-2.813 24.22,-5.731 37.69,-8.75 13.47,-3.008 26.04,-7.637 37.7,-13.868 11.66,-6.238 21.31,-14.785 28.95,-25.632 7.63,-10.852 11.46,-25.731 11.46,-44.629 0,-17.301 -3.72,-31.879 -11.15,-43.719 -7.46,-11.883 -17.1,-21.422 -28.96,-28.652 -11.86,-7.25 -25.23,-12.469 -40.11,-15.692 -14.88,-3.207 -29.75,-4.816 -44.63,-4.816 -22.51,0 -43.22,3.218 -62.11,9.648 -18.91,6.418 -35.8,18.09 -50.67,34.981 l 48.25,45.23 c 9.24,-10.461 19.19,-19 29.86,-25.621 10.64,-6.641 23.61,-9.961 38.89,-9.961 5.23,0 10.66,0.602 16.29,1.813 5.63,1.199 10.85,3.207 15.69,6.027 4.82,2.801 8.74,6.34 11.75,10.551 3.02,4.218 4.53,9.14 4.53,14.781 0,10.051 -3.83,17.488 -11.46,22.309 -7.65,4.832 -17.29,8.75 -28.95,11.761 -11.66,3.02 -24.23,5.832 -37.7,8.449 -13.48,2.606 -26.04,6.825 -37.7,12.665 -11.66,5.82 -21.31,13.964 -28.94,24.433 -7.65,10.449 -11.47,24.922 -11.47,43.418 0,16.074 3.32,30.055 9.96,41.914 6.64,11.856 15.38,21.613 26.24,29.254 10.86,7.633 23.31,13.27 37.39,16.891 14.07,3.617 28.35,5.422 42.82,5.422 19.3,0 38.39,-3.313 57.3,-9.95 18.89,-6.632 34.17,-18 45.84,-34.078 l -48.26,-43.422"
         id="path3425"
         style="fill:#000000;fill-opacity:1;fill-rule:nonzero;stroke:none" /><path
         d="m 1994.45,905.473 0,61.519 59.71,0 0,73.828 72.37,20 0,-93.828 79.62,0 0,-61.519 -79.62,0 0,-126.664 c 0,-14.469 2.72,-25.918 8.15,-34.368 5.43,-8.441 16.18,-12.66 32.26,-12.66 6.43,0 13.47,0.699 21.12,2.11 7.63,1.41 13.66,3.711 18.09,6.929 l 0,-60.91 c -7.64,-3.621 -16.99,-6.129 -28.04,-7.539 -11.07,-1.41 -20.82,-2.109 -29.25,-2.109 -19.31,0 -35.09,2.109 -47.36,6.328 -12.26,4.219 -21.91,10.648 -28.94,19.289 -7.04,8.66 -11.87,19.402 -14.47,32.281 -2.63,12.86 -3.93,27.738 -3.93,44.629 l 0,132.684 -59.71,0"
         id="path3427"
         style="fill:#000000;fill-opacity:1;fill-rule:nonzero;stroke:none" /><path
         d="m 2469.1,851.195 c -0.4,21.309 -7.03,38.086 -19.9,50.356 -12.87,12.262 -30.75,18.398 -53.67,18.398 -21.72,0 -38.91,-6.238 -51.57,-18.695 -12.67,-12.469 -20.42,-29.16 -23.22,-50.059 l 148.36,0 z m -148.36,-54.277 c 2.41,-21.719 10.85,-38.609 25.32,-50.668 14.49,-12.07 31.98,-18.09 52.48,-18.09 18.09,0 33.27,3.711 45.53,11.16 12.27,7.418 23.02,16.782 32.27,28.039 l 51.87,-39.199 c -16.88,-20.91 -35.79,-35.789 -56.7,-44.64 -20.9,-8.829 -42.82,-13.258 -65.73,-13.258 -21.72,0 -42.23,3.609 -61.52,10.859 -19.3,7.219 -35.99,17.481 -50.06,30.758 -14.08,13.262 -25.24,29.242 -33.48,47.941 -8.24,18.7 -12.36,39.5 -12.36,62.43 0,22.91 4.12,43.723 12.36,62.418 8.24,18.695 19.4,34.676 33.48,47.945 14.07,13.27 30.76,23.524 50.06,30.762 19.29,7.234 39.8,10.852 61.52,10.852 20.1,0 38.5,-3.524 55.19,-10.551 16.68,-7.039 30.95,-17.192 42.82,-30.457 11.85,-13.27 21.1,-29.66 27.73,-49.153 6.64,-19.511 9.96,-41.914 9.96,-67.246 l 0,-19.902 -220.74,0"
         id="path3429"
         style="fill:#000000;fill-opacity:1;fill-rule:nonzero;stroke:none" /><path
         d="m 2609.02,966.992 72.38,0 0,-45.836 1.2,0 c 8.03,16.887 19.5,29.946 34.38,39.199 14.87,9.25 31.97,13.872 51.26,13.872 4.43,0 8.75,-0.403 12.97,-1.204 4.22,-0.812 8.54,-1.808 12.97,-3.015 l 0,-69.965 c -6.04,1.605 -11.97,2.914 -17.79,3.922 -5.83,1 -11.57,1.508 -17.19,1.508 -16.9,0 -30.46,-3.121 -40.71,-9.344 -10.26,-6.242 -18.1,-13.371 -23.53,-21.418 -5.42,-8.047 -9.04,-16.082 -10.85,-24.121 -1.82,-8.047 -2.71,-14.082 -2.71,-18.094 l 0,-155.008 -72.38,0 0,289.504"
         id="path3431"
         style="fill:#000000;fill-opacity:1;fill-rule:nonzero;stroke:none" /><path
         d="m 2890.68,822.25 c 0,-11.27 1.9,-22.129 5.73,-32.578 3.81,-10.461 9.44,-19.703 16.89,-27.731 7.43,-8.062 16.38,-14.48 26.84,-19.312 10.45,-4.82 22.31,-7.238 35.58,-7.238 13.26,0 25.12,2.418 35.58,7.238 10.46,4.832 19.39,11.25 26.84,19.312 7.44,8.028 13.06,17.27 16.89,27.731 3.82,10.449 5.73,21.308 5.73,32.578 0,11.25 -1.91,22.102 -5.73,32.559 -3.83,10.449 -9.45,19.699 -16.89,27.746 -7.45,8.039 -16.38,14.476 -26.84,19.3 -10.46,4.825 -22.32,7.235 -35.58,7.235 -13.27,0 -25.13,-2.41 -35.58,-7.235 -10.46,-4.824 -19.41,-11.261 -26.84,-19.3 -7.45,-8.047 -13.08,-17.297 -16.89,-27.746 -3.83,-10.457 -5.73,-21.309 -5.73,-32.559 z m 171.28,-101.328 -1.2,0 c -10.46,-17.692 -24.53,-30.563 -42.22,-38.602 -17.7,-8.039 -36.79,-12.058 -57.3,-12.058 -22.52,0 -42.52,3.918 -60.01,11.758 -17.49,7.839 -32.47,18.589 -44.93,32.261 -12.46,13.668 -21.92,29.758 -28.34,48.25 -6.45,18.489 -9.66,38.391 -9.66,59.719 0,21.301 3.42,41.203 10.25,59.707 6.84,18.488 16.38,34.57 28.66,48.242 12.25,13.668 27.03,24.43 44.32,32.27 17.29,7.84 36.19,11.758 56.7,11.758 13.66,0 25.73,-1.411 36.18,-4.219 10.45,-2.817 19.7,-6.438 27.75,-10.86 8.04,-4.425 14.87,-9.148 20.51,-14.168 5.62,-5.035 10.25,-9.953 13.86,-14.781 l 1.82,0 0,193.251 72.37,20 0,-465.962 -68.76,0 0,43.434"
         id="path3433"
         style="fill:#000000;fill-opacity:1;fill-rule:nonzero;stroke:none" /><path
         d="m 3389.45,807.172 -15.07,0 c -10.05,0 -21.32,-0.41 -33.77,-1.211 -12.48,-0.809 -24.23,-2.715 -35.29,-5.731 -11.06,-3.019 -20.41,-7.453 -28.04,-13.269 -7.65,-5.832 -11.47,-13.973 -11.47,-24.43 0,-6.84 1.51,-12.562 4.53,-17.179 3.01,-4.633 6.94,-8.551 11.76,-11.774 4.82,-3.219 10.25,-5.527 16.28,-6.937 6.03,-1.403 12.07,-2.102 18.09,-2.102 24.94,0 43.32,5.922 55.19,17.789 11.86,11.852 17.79,28.051 17.79,48.555 l 0,16.289 z m 4.22,-89.871 -1.8,0 c -10.46,-16.492 -23.74,-28.449 -39.81,-35.891 -16.08,-7.43 -33.77,-11.148 -53.08,-11.148 -13.26,0 -26.23,1.797 -38.89,5.429 -12.67,3.61 -23.93,9.039 -33.78,16.278 -9.85,7.23 -17.79,16.281 -23.82,27.14 -6.03,10.86 -9.05,23.52 -9.05,37.993 0,15.687 2.81,29.058 8.44,40.109 5.63,11.055 13.17,20.305 22.62,27.746 9.45,7.43 20.4,13.367 32.87,17.793 12.46,4.422 25.42,7.742 38.9,9.949 13.47,2.207 27.04,3.614 40.71,4.219 13.66,0.605 26.55,0.91 38.61,0.91 l 18.08,0 0,7.84 c 0,18.086 -6.23,31.664 -18.69,40.707 -12.47,9.051 -28.35,13.574 -47.65,13.574 -15.28,0 -29.55,-2.715 -42.82,-8.144 -13.27,-5.43 -24.72,-12.766 -34.37,-22.012 l -38,37.996 c 16.07,16.484 34.87,28.348 56.39,35.586 21.51,7.234 43.73,10.852 66.65,10.852 20.5,0 37.78,-2.313 51.86,-6.934 14.07,-4.625 25.73,-10.555 34.98,-17.793 9.25,-7.234 16.38,-15.582 21.42,-25.027 5.02,-9.453 8.64,-19 10.85,-28.649 2.2,-9.648 3.51,-19.004 3.92,-28.047 0.39,-9.043 0.61,-16.992 0.61,-23.828 l 0,-166.461 -65.15,0 0,39.813"
         id="path3435"
         style="fill:#000000;fill-opacity:1;fill-rule:nonzero;stroke:none" /><path
         d="m 3533.59,966.992 68.75,0 0,-45.234 1.21,0 c 6.43,13.668 16.79,25.828 31.07,36.488 14.27,10.649 33.47,15.981 57.6,15.981 45.43,0 75.58,-17.895 90.47,-53.676 10.44,18.492 23.51,32.062 39.19,40.715 15.69,8.636 34.38,12.961 56.09,12.961 19.31,0 35.58,-3.223 48.86,-9.645 13.27,-6.437 24.02,-15.285 32.26,-26.539 8.24,-11.262 14.17,-24.426 17.79,-39.504 3.63,-15.078 5.43,-31.269 5.43,-48.555 l 0,-172.496 -72.37,0 0,164.059 c 0,8.828 -0.81,17.383 -2.41,25.625 -1.61,8.242 -4.43,15.48 -8.45,21.715 -4.02,6.23 -9.45,11.156 -16.28,14.781 -6.84,3.617 -15.68,5.422 -26.54,5.422 -11.26,0 -20.81,-2.11 -28.64,-6.332 -7.84,-4.219 -14.28,-9.852 -19.31,-16.883 -5.03,-7.043 -8.65,-15.078 -10.85,-24.133 -2.22,-9.043 -3.32,-18.191 -3.32,-27.441 l 0,-156.813 -72.37,0 0,172.496 c 0,18.098 -3.83,32.461 -11.47,43.125 -7.63,10.649 -20.3,15.981 -37.99,15.981 -12.07,0 -22.22,-2.016 -30.45,-6.027 -8.26,-4.024 -15.08,-9.454 -20.51,-16.286 -5.43,-6.839 -9.35,-14.683 -11.76,-23.519 -2.42,-8.848 -3.62,-18.098 -3.62,-27.746 l 0,-158.024 -72.38,0 0,289.504"
         id="path3437"
         style="fill:#000000;fill-opacity:1;fill-rule:nonzero;stroke:none" /><path
         d="M 526.758,1052.81 421.301,1158.27 263.379,1000.35 105.461,1158.27 0,1052.81 157.922,894.887 0,736.961 105.461,631.512 263.379,789.441 421.301,631.512 526.746,736.969 368.828,894.887 526.758,1052.81"
         id="path3439"
         style="fill:#000000;fill-opacity:1;fill-rule:nonzero;stroke:none" /><path
         d="M 526.758,421.309 421.301,526.762 263.379,368.84 105.461,526.762 0,421.309 157.922,263.379 0,105.449 105.461,0 263.379,157.93 421.301,0 l 105.445,105.469 -157.918,157.91 157.93,157.93"
         id="path3441"
         style="fill:#000000;fill-opacity:1;fill-rule:nonzero;stroke:none" /><path
         d="M 526.758,1684.31 421.301,1789.77 263.379,1631.84 105.461,1789.77 0,1684.31 157.922,1526.39 0,1368.46 l 105.461,-105.45 157.918,157.93 157.922,-157.93 105.445,105.46 -157.918,157.92 157.93,157.92"
         id="path3443"
         style="fill:#000000;fill-opacity:1;fill-rule:nonzero;stroke:none" /></g></g></svg>