<?xml version="1.0" encoding="UTF-8" standalone="no"?>
<svg
   xmlns:dc="http://purl.org/dc/elements/1.1/"
   xmlns:cc="http://creativecommons.org/ns#"
   xmlns:rdf="http://www.w3.org/1999/02/22-rdf-syntax-ns#"
   xmlns:svg="http://www.w3.org/2000/svg"
   xmlns="http://www.w3.org/2000/svg"
   xmlns:sodipodi="http://sodipodi.sourceforge.net/DTD/sodipodi-0.dtd"
   xmlns:inkscape="http://www.inkscape.org/namespaces/inkscape"
   version="1.1"
   width="105.72099"
   height="60"
   id="svg2"
   xml:space="preserve"
   inkscape:version="0.48.4 r9939"
   sodipodi:docname="logo-open-state-foundation.svg"><metadata
     id="metadata3069"><rdf:RDF><cc:Work
         rdf:about=""><dc:format>image/svg+xml</dc:format><dc:type
           rdf:resource="http://purl.org/dc/dcmitype/StillImage" /></cc:Work></rdf:RDF></metadata><defs
     id="defs3067" /><sodipodi:namedview
     pagecolor="#ffffff"
     bordercolor="#666666"
     borderopacity="1"
     objecttolerance="10"
     gridtolerance="10"
     guidetolerance="10"
     inkscape:pageopacity="0"
     inkscape:pageshadow="2"
     inkscape:window-width="1920"
     inkscape:window-height="1056"
     id="namedview3065"
     showgrid="false"
     inkscape:zoom="3.9878403"
     inkscape:cx="69.461135"
     inkscape:cy="-8.3195727"
     inkscape:window-x="0"
     inkscape:window-y="24"
     inkscape:window-maximized="1"
     inkscape:current-layer="svg2"
     fit-margin-top="0"
     fit-margin-bottom="0"
     fit-margin-left="0"
     fit-margin-right="0" /><g
     transform="matrix(0.99999907,0,0,-0.99999907,-1.22049e-4,59.999804)"
     id="g10"><g
       transform="scale(0.1,0.1)"
       id="g12"
       style="fill-opacity:1;fill-rule:nonzero;stroke:none"><path
         d="m 172.789,306.594 c -5.871,5.855 -12.617,0.715 -17.441,-4.114 l -6.434,-6.429 13.508,-13.508 8.359,8.359 c 4.414,4.414 7.317,10.375 2.008,15.692"
         id="path14"
         inkscape:connector-curvature="0"
         style="fill:#8fdae9" /><path
         d="m 84.668,232.758 c -10.688,-10.703 -9.977,-25.391 0.64,-36.004 10.614,-10.617 25.317,-11.34 36.008,-0.645 10.688,10.692 9.977,25.399 -0.64,36.016 -10.602,10.594 -25.32,11.328 -36.008,0.633"
         id="path16"
         inkscape:connector-curvature="0"
         style="fill:#8fdae9" /><path
         d="m 318.813,373.336 -12.543,-12.543 -56.911,56.91 17.047,17.047 63.735,-15.355 0.164,0.16 -39.547,39.547 12.539,12.543 56.906,-56.911 -16.394,-16.398 -65.352,15.672 -0.16,-0.16 40.516,-40.512 z m -74.461,-74.449 -56.895,56.91 38.66,38.668 11.571,-11.582 -26.122,-26.125 10.602,-10.61 24.684,24.676 11.566,-11.578 -24.668,-24.672 11.57,-11.566 27.575,27.558 L 284.473,339 244.352,298.887 z m -61.672,-61.676 -56.914,56.914 21.144,21.129 c 11.813,11.816 25.403,17.844 38.906,4.348 13.34,-13.348 8.36,-26.532 -3.621,-38.504 l -9.168,-9.16 22.2,-22.196 -12.547,-12.531 z m -49.789,-52.684 c -17.77,-17.765 -42.364,-19.043 -60.598,-0.8 -18.25,18.25 -16.961,42.839 0.809,60.613 17.757,17.765 42.347,19.043 60.597,0.793 18.242,-18.235 16.965,-42.824 -0.808,-60.606 z M 76.176,441.555 C -22.304,343.082 -25.949,186.246 69.043,83.648 l 365.035,365.036 c -102.586,94.992 -259.41,91.347 -357.902,-7.129"
         id="path18"
         inkscape:connector-curvature="0"
         style="fill:#8fdae9" /><path
         d="M 697.953,523.828 C 599.469,425.355 595.824,268.531 690.824,165.934 l 365.016,365.015 c -102.574,95.004 -259.41,91.352 -357.887,-7.121"
         id="path20"
         inkscape:connector-curvature="0"
         style="fill:#8fdae9" /><path
         d="m 328.59,199.781 -24.676,10.703 10.777,-24.601 13.899,13.898"
         id="path22"
         inkscape:connector-curvature="0"
         style="fill:#025c6e" /><path
         d="m 436.387,262.242 -56.91,56.914 38.664,38.657 11.562,-11.583 -26.109,-26.125 10.601,-10.601 24.676,24.672 11.574,-11.571 -24.668,-24.675 11.567,-11.578 27.574,27.574 11.582,-11.578 -40.113,-40.106 z M 393.539,219.41 347.73,265.219 331.492,248.988 320.391,260.063 365.414,305.09 376.5,294 360.266,277.77 406.09,231.938 393.539,219.41 z m -33.109,-33.117 -16.973,7.141 -22.102,-22.102 7.317,-16.797 -13.824,-13.816 -32.313,81.492 10.371,10.363 81.672,-32.14 -14.148,-14.141 z m -77.055,-77.059 -45.816,45.821 -16.235,-16.231 -11.097,11.082 45.015,45.02 11.086,-11.094 -16.234,-16.23 45.828,-45.829 -12.547,-12.539 z M 234.027,56.988 C 226.711,49.672 218.102,45.414 207.734,45.016 l -0.886,18.718 c 5.957,-0.808 12.136,1.38 16.32,5.559 4.094,4.09 6.758,10.594 2.738,14.61 -10.453,10.456 -31.515,-21.856 -50.48,-2.891 -12.137,12.148 -7.961,29.031 3.222,40.195 6.415,6.426 14.297,10.938 23.379,11.504 l 0.805,-18.02 c -4.586,0.567 -9.805,-2.246 -12.855,-5.293 -3.536,-3.554 -6.836,-10.046 -2.571,-14.316 10.36,-10.371 29.895,22.512 49.828,2.57 12.707,-12.687 8.532,-28.937 -3.207,-40.664 z m 214.645,377.078 -365,-365.007 c 99.391,-91.536 259.496,-91.282 357.891,7.117 98.398,98.39 98.664,258.508 7.109,357.89"
         id="path24"
         inkscape:connector-curvature="0"
         style="fill:#025c6e" /><path
         d="m 981.039,76.168 c 98.481,98.477 102.121,255.309 7.129,357.898 L 623.141,69.046 C 725.727,-25.96 882.555,-22.3 981.039,76.169"
         id="path26"
         inkscape:connector-curvature="0"
         style="fill:#025c6e" /></g></g><path
     style="fill:#ffffff;fill-opacity:1;stroke:#076776;stroke-width:0.06600686;stroke-opacity:0"
     d="M 9.427731,42.825289 C 9.191756,42.772349 8.74621,42.604515 8.437628,42.452324 7.982472,42.227844 7.764041,42.062454 7.280411,41.576118 6.343618,40.63408 5.965804,39.783068 5.973962,38.633379 c 0.0081,-1.14101 0.450006,-2.097349 1.403034,-3.036316 0.637222,-0.627818 1.08766,-0.920911 1.791443,-1.165663 0.993143,-0.345381 1.938666,-0.275227 2.962359,0.219794 0.523716,0.25325 0.715798,0.393619 1.196689,0.874511 0.481854,0.481853 0.620603,0.671925 0.87356,1.196689 0.359184,0.745134 0.472883,1.273338 0.422693,1.963672 -0.07304,1.004663 -0.464575,1.843771 -1.257589,2.695189 -1.099722,1.180714 -2.622858,1.739177 -3.93842,1.444034 z m 1.650172,-1.763932 c 0.946319,-0.285078 1.741563,-1.247873 1.829225,-2.21463 0.09598,-1.058446 -0.600613,-2.158451 -1.697212,-2.680119 -0.37408,-0.177956 -0.500921,-0.204257 -0.990103,-0.205305 -0.492146,-10e-4 -0.614174,0.02397 -0.9935,0.20372 -1.047181,0.49623 -1.704919,1.663679 -1.511604,2.68302 0.253016,1.334149 1.614255,2.445523 2.835139,2.314731 0.163366,-0.0175 0.400991,-0.06314 0.528055,-0.101417 z"
     id="path3075"
     inkscape:connector-curvature="0" /><path
     style="fill:#ffffff;fill-opacity:1;stroke:#076776;stroke-width:0.06600686;stroke-opacity:0"
     d="m 15.434585,33.386063 -2.80448,-2.805062 1.088593,-1.093782 c 0.598726,-0.601581 1.271194,-1.240438 1.494376,-1.419683 1.249599,-1.003598 2.353612,-0.992744 3.349955,0.03294 0.483268,0.497496 0.765607,1.060749 0.765679,1.527492 1.32e-4,0.784242 -0.356973,1.425661 -1.391907,2.500168 l -0.678261,0.704193 1.101452,1.102883 1.101451,1.102883 -0.5792,0.576517 c -0.31856,0.317085 -0.593596,0.576518 -0.61119,0.576518 -0.01759,0 -1.294005,-1.262278 -2.836468,-2.805063 z m 1.441511,-2.244236 c 0.629954,-0.658942 0.786497,-0.959186 0.695735,-1.334393 -0.102796,-0.424956 -0.481808,-0.74505 -0.882187,-0.74505 -0.360934,0 -0.666662,0.186704 -1.265845,0.773037 l -0.586966,0.574377 0.677121,0.679434 c 0.372417,0.373688 0.696417,0.679433 0.720001,0.679433 0.02359,0 0.312548,-0.282077 0.642141,-0.626838 z"
     id="path3077"
     inkscape:connector-curvature="0" /><path
     style="fill:#ffffff;fill-opacity:1;stroke:#076776;stroke-width:0.06600686;stroke-opacity:0"
     d="m 21.622215,27.230414 -2.821652,-2.822225 1.898709,-1.897863 1.898708,-1.897861 0.559079,0.561999 0.55908,0.561999 -1.302545,1.303767 -1.302545,1.303767 0.543937,0.543938 0.543938,0.543936 1.237792,-1.236506 1.237792,-1.236506 0.561874,0.558956 0.561875,0.558956 -1.237026,1.238313 -1.237027,1.238313 0.592078,0.594832 0.592076,0.594833 1.388126,-1.387001 1.388126,-1.386999 0.559248,0.562168 0.559249,0.56217 -1.979619,1.979619 -1.97962,1.979619 -2.821653,-2.822224 0,0 z"
     id="path3079"
     inkscape:connector-curvature="0" /><path
     style="fill:#ffffff;fill-opacity:1;stroke:#076776;stroke-width:0.06600686;stroke-opacity:0"
     d="m 27.777655,21.042566 -2.804693,-2.805275 0.838235,-0.838235 0.838234,-0.838235 3.1873,0.767288 c 1.753015,0.422009 3.201081,0.753507 3.217924,0.736664 0.01684,-0.01684 -0.858945,-0.920565 -1.946196,-2.008269 l -1.976821,-1.977645 0.594,-0.593999 0.593999,-0.594 2.82178,2.822353 2.82178,2.822352 -0.808938,0.798706 -0.808937,0.798707 -3.234336,-0.781433 c -1.778886,-0.429788 -3.26386,-0.782067 -3.299944,-0.782843 -0.03609,-7.44e-4 0.854608,0.919166 1.979317,2.044313 l 2.044924,2.045723 -0.591796,0.594552 c -0.325488,0.327003 -0.607399,0.594551 -0.626468,0.594551 -0.01907,0 -1.296782,-1.262373 -2.839364,-2.805275 z"
     id="path3081"
     inkscape:connector-curvature="0" /><path
     style="fill:#ffffff;fill-opacity:1;stroke:#076776;stroke-width:0.06600686;stroke-opacity:0"
     d="m 20.780442,55.027078 c -2.58e-4,-0.249173 -0.01898,-0.648982 -0.0416,-0.888466 l -0.04114,-0.435424 0.379349,-0.03915 c 1.238121,-0.127786 2.196119,-1.457235 1.512718,-2.099257 -0.13782,-0.129475 -0.238952,-0.159072 -0.543546,-0.159072 -0.324228,0 -0.497675,0.05839 -1.298318,0.437024 -1.142816,0.540461 -1.350285,0.608897 -1.849185,0.609976 -0.488553,0.001 -0.897692,-0.1867 -1.325155,-0.608125 -0.883308,-0.870831 -0.946044,-2.199258 -0.157954,-3.344706 0.589785,-0.857223 1.596777,-1.541036 2.513592,-1.70689 l 0.237408,-0.04295 0.0444,0.830422 c 0.02442,0.456733 0.02722,0.858216 0.0063,0.892185 -0.02099,0.03397 -0.133394,0.06177 -0.249776,0.06177 -0.416531,0 -1.059284,0.462139 -1.304546,0.937968 -0.07096,0.137674 -0.12623,0.37895 -0.12623,0.551078 0,0.259717 0.03224,0.3363 0.212468,0.504656 0.3267,0.305183 0.6964,0.248041 1.730116,-0.267411 0.449872,-0.224324 0.946832,-0.454611 1.104356,-0.511748 0.423464,-0.153599 1.014306,-0.137904 1.422721,0.03779 0.436441,0.187751 1.02189,0.795095 1.256385,1.303371 0.766115,1.660582 -0.966641,4.037476 -3.16828,4.34606 l -0.313533,0.04395 -4.68e-4,-0.453041 -1e-6,0 z"
     id="path3083"
     inkscape:connector-curvature="0" /><path
     style="fill:#ffffff;fill-opacity:1;stroke:#076776;stroke-width:0.06600686;stroke-opacity:0"
     d="m 26.045113,46.70311 -2.29302,-2.29302 -0.825751,0.823769 -0.825752,0.823769 -0.510997,-0.510997 -0.510996,-0.510996 2.227199,-2.2272 2.227199,-2.227199 0.510976,0.510976 0.510976,0.510976 -0.774798,0.776822 c -0.426139,0.427252 -0.774799,0.80592 -0.774799,0.841484 0,0.03556 1.01715,1.082132 2.260334,2.325707 l 2.260332,2.261045 -0.593941,0.593942 -0.593943,0.593941 -2.293019,-2.293019 0,0 z"
     id="path3085"
     inkscape:connector-curvature="0" /><path
     style="fill:#ffffff;fill-opacity:1;stroke:#076776;stroke-width:0.06600686;stroke-opacity:0"
     d="m 30.319312,42.881223 c -0.645206,-1.62839 -1.36241,-3.435543 -1.593787,-4.015894 l -0.420683,-1.055183 0.511978,-0.508084 0.51198,-0.508084 3.894405,1.533854 c 2.141923,0.84362 3.952045,1.555756 4.022494,1.582524 0.110779,0.04209 0.03633,0.140751 -0.550937,0.730015 L 36.015736,41.321716 35.182468,40.96642 34.3492,40.611126 33.241646,41.717242 c -0.609155,0.608364 -1.10802,1.136148 -1.108589,1.172851 -5.67e-4,0.0367 0.153144,0.417795 0.341583,0.846867 l 0.342617,0.780132 -0.662421,0.662421 -0.662421,0.66242 -1.173103,-2.96071 z m 1.87863,-2.166463 c 0.378706,-0.38 0.675206,-0.704071 0.658889,-0.720159 -0.05202,-0.05128 -2.469772,-1.088342 -2.490048,-1.068065 -0.03158,0.03158 1.055335,2.479132 1.100937,2.479132 0.02292,0 0.351516,-0.310909 0.730222,-0.690908 z"
     id="path3087"
     inkscape:connector-curvature="0" /><path
     style="fill:#ffffff;fill-opacity:1;stroke:#076776;stroke-width:0.06600686;stroke-opacity:0"
     d="m 37.051603,35.729077 c -1.233928,-1.234328 -2.272926,-2.244233 -2.308884,-2.244233 -0.03596,0 -0.41495,0.348659 -0.842202,0.774798 l -0.776822,0.774798 -0.510976,-0.510976 -0.510976,-0.510976 2.2272,-2.227198 2.227198,-2.2272 0.510976,0.510976 0.510976,0.510976 -0.774798,0.776822 c -0.426139,0.427251 -0.774798,0.805919 -0.774798,0.841484 0,0.03556 1.01694,1.081922 2.259866,2.32524 l 2.259867,2.260579 -0.591817,0.594572 c -0.3255,0.327014 -0.607452,0.594572 -0.626561,0.594572 -0.01911,0 -1.044321,-1.009905 -2.278249,-2.244234 z"
     id="path3089"
     inkscape:connector-curvature="0" /><path
     style="fill:#ffffff;fill-opacity:0;stroke:#076776;stroke-width:0.25076231;stroke-opacity:0"
     d="m 40.806173,30.712575 -2.69251,-2.700886 1.834457,-1.822214 c 1.833472,-1.821235 1.83471,-1.821936 2.303713,-1.303693 0.463469,0.512128 0.454776,0.533222 -0.704934,1.710638 -0.645805,0.655663 -1.174191,1.311804 -1.174191,1.45809 0,0.146285 0.229115,0.47332 0.509144,0.726742 0.499823,0.452335 0.531814,0.438438 1.747717,-0.759181 1.222765,-1.204379 1.245179,-1.213973 1.75603,-0.751659 l 0.517456,0.468291 -1.267807,1.283754 -1.267808,1.283754 0.586061,0.550575 c 0.322333,0.302817 0.695872,0.550576 0.830087,0.550576 0.134215,0 0.79757,-0.561994 1.474122,-1.248875 1.165229,-1.183017 1.254485,-1.226802 1.692598,-0.830315 0.443296,0.401177 0.386877,0.494691 -1.358627,2.251923 -1.001622,1.008351 -1.8823,1.833365 -1.957063,1.833365 -0.07476,0 -1.347564,-1.215398 -2.828445,-2.700885 z"
     id="path3095"
     inkscape:connector-curvature="0" /><path
     style="fill:#ffffff;fill-opacity:1;stroke:#076776;stroke-width:0.25076228;stroke-opacity:0"
     d="m 40.806173,30.712575 -2.69251,-2.700886 1.834457,-1.822214 c 1.833472,-1.821235 1.83471,-1.821935 2.303713,-1.303692 0.463469,0.512127 0.454776,0.533222 -0.704934,1.710637 -0.645805,0.655663 -1.174191,1.311804 -1.174191,1.45809 0,0.146286 0.229115,0.47332 0.509144,0.726743 0.499823,0.452334 0.531814,0.438438 1.747717,-0.759182 1.222765,-1.204378 1.245179,-1.213973 1.75603,-0.751659 l 0.517456,0.468292 -1.267807,1.283754 -1.267808,1.283754 0.586061,0.550575 c 0.322333,0.302816 0.695872,0.550575 0.830087,0.550575 0.134215,0 0.79757,-0.561993 1.474122,-1.248874 1.165228,-1.183017 1.254485,-1.226803 1.692598,-0.830316 0.443295,0.401177 0.386876,0.494692 -1.358628,2.251923 -1.001621,1.008351 -1.882299,1.833365 -1.957062,1.833365 -0.07476,0 -1.347564,-1.215398 -2.828445,-2.700885 z"
     id="path3125"
     inkscape:connector-curvature="0" /></svg>