<?xml version="1.0" encoding="UTF-8" standalone="no"?>
<!-- Created with Inkscape (http://www.inkscape.org/) -->

<svg
   xmlns:dc="http://purl.org/dc/elements/1.1/"
   xmlns:cc="http://creativecommons.org/ns#"
   xmlns:rdf="http://www.w3.org/1999/02/22-rdf-syntax-ns#"
   xmlns:svg="http://www.w3.org/2000/svg"
   xmlns="http://www.w3.org/2000/svg"
   version="1.1"
   width="189.6573"
   height="33"
   id="svg3175">
  <defs
     id="defs3177" />
  <metadata
     id="metadata3180">
    <rdf:RDF>
      <cc:Work
         rdf:about="">
        <dc:format>image/svg+xml</dc:format>
        <dc:type
           rdf:resource="http://purl.org/dc/dcmitype/StillImage" />
        <dc:title></dc:title>
      </cc:Work>
    </rdf:RDF>
  </metadata>
  <g
     transform="translate(-280.17135,-515.86218)"
     id="layer1">
    <path
       d="m 296.23209,538.24575 3.23537,0 1.11164,-4.21854 6.48735,-7.59337 -3.84927,0 -3.50084,4.42103 -1.14483,-4.42103 -3.46766,0 2.33943,7.23901 -1.21119,4.5729 0,0 z m 14.74999,0.21936 c 4.03177,0 6.91873,-3.35795 6.91873,-6.95215 0,-3.0036 -2.23988,-5.29848 -5.54162,-5.29848 -4.03178,0 -6.91873,3.35795 -6.91873,6.95215 0,3.0036 2.23988,5.29848 5.54162,5.29848 l 0,0 0,0 z m 0.28206,-2.9361 c -1.64258,0 -2.53853,-1.11369 -2.53853,-2.61549 0,-1.75491 1.32734,-3.76294 3.35152,-3.76294 1.64257,0 2.53853,1.11369 2.53853,2.61549 0,1.75492 -1.31075,3.76294 -3.35152,3.76294 l 0,0 0,0 z m 12.47693,2.9361 c 1.7919,0 3.25197,-0.47247 4.28065,-1.51867 0.813,-0.82683 1.3937,-1.97428 1.8085,-3.5267 l 1.84167,-6.9859 -3.25197,0 -1.72553,6.49655 c -0.24887,0.94495 -0.54753,1.53555 -0.97891,1.9574 -0.3982,0.40498 -0.94572,0.62435 -1.55962,0.62435 -1.16141,0 -1.80849,-0.65809 -1.80849,-1.72117 0,-0.3881 0.0664,-0.74246 0.16592,-1.11369 l 1.64257,-6.24344 -3.25196,0 -1.5928,6.0072 c -0.16592,0.64122 -0.26547,1.29931 -0.26547,1.88991 0,2.59862 1.70894,4.13416 4.69544,4.13416 l 0,0 0,0 z m 6.73622,-0.21936 3.20219,0 1.7919,-6.80028 3.13583,6.80028 2.82058,0 3.11924,-11.81191 -3.2022,0 -1.74212,6.56405 -3.00309,-6.56405 -3.0031,0 -3.11923,11.81191 0,0 z m 19.57817,0.23624 c 1.70894,0 3.20219,-0.50623 4.34702,-1.18119 l 1.65916,-5.95658 -5.32592,0 -0.61389,2.39613 2.23987,0 -0.46456,1.58617 c -0.3982,0.18562 -0.89595,0.32061 -1.54303,0.32061 -1.42688,0 -2.60489,-0.86058 -2.60489,-2.51425 0,-2.17676 1.60939,-4.01605 3.94882,-4.01605 1.24437,0 2.1901,0.5231 2.87035,1.21494 l 2.15692,-2.12614 c -0.7964,-1.0462 -2.48875,-2.00803 -4.81158,-2.00803 -4.42998,0 -7.44966,3.30734 -7.44966,7.07027 0,3.62795 2.82058,5.21412 5.59139,5.21412 l 0,0 0,0 z m 17.15579,0 c 2.20669,0 3.73312,-0.91121 4.86136,-2.21052 l -2.17351,-1.9574 c -0.74663,0.75934 -1.47666,1.19807 -2.48875,1.19807 -1.34393,0 -2.32284,-0.92808 -2.32284,-2.42988 0,-2.05865 1.54303,-3.89793 3.46766,-3.89793 1.14483,0 1.87486,0.55685 2.33943,1.51867 l 2.7874,-1.51867 c -0.69685,-1.82241 -2.33943,-2.98673 -4.71204,-2.98673 -4.46316,0 -7.25056,3.62795 -7.25056,7.1209 0,3.15546 2.27306,5.16349 5.49185,5.16349 l 0,0 0,0 z m 5.52502,-0.23624 3.23538,0 0.94572,-3.57732 1.42689,0 1.54302,3.57732 3.55061,0 -1.7919,-3.9823 c 2.37261,-0.65809 3.48426,-2.21051 3.48426,-4.18479 0,-0.94495 -0.28206,-1.78866 -0.89595,-2.41301 -0.77981,-0.79308 -2.05737,-1.23181 -3.9986,-1.23181 l -4.38019,0 -3.11924,11.81191 0,0 z m 4.84477,-6.14219 0.76322,-2.83486 1.74212,0 c 0.68026,0 1.16141,0.13499 1.42688,0.40498 0.1991,0.21936 0.29865,0.47248 0.29865,0.79308 0,1.01245 -0.94572,1.6368 -2.3892,1.6368 l -1.84167,0 0,0 z m 7.10123,6.14219 9.39088,0 0.73004,-2.78424 -6.20529,0 0.49775,-1.87303 5.54162,0 0.68026,-2.58174 -5.54162,0 0.48116,-1.78866 6.10573,0 0.74663,-2.78424 -9.30793,0 -3.11923,11.81191 0,0 z m 10.07114,0 3.50085,0 1.39369,-2.10927 4.47976,0 0.28205,2.10927 3.3847,0 -1.80849,-11.89628 -3.15241,0 -8.08015,11.89628 0,0 z m 6.52053,-4.65727 2.17351,-3.3917 0.41479,3.3917 -2.5883,0 0,0 z m 8.66085,4.65727 3.23538,0 2.35601,-8.9433 3.48425,0 0.74663,-2.86861 -10.1707,0 -0.76321,2.86861 3.48425,0 -2.37261,8.9433 0,0 z m 14.51771,0.21936 c 4.03178,0 6.91873,-3.35795 6.91873,-6.95215 0,-3.0036 -2.23988,-5.29848 -5.54162,-5.29848 -4.03178,0 -6.91873,3.35795 -6.91873,6.95215 0,3.0036 2.23988,5.29848 5.54162,5.29848 l 0,0 0,0 z m 0.28206,-2.9361 c -1.64258,0 -2.53853,-1.11369 -2.53853,-2.61549 0,-1.75491 1.32734,-3.76294 3.35152,-3.76294 1.64258,0 2.53853,1.11369 2.53853,2.61549 0,1.75492 -1.31075,3.76294 -3.35152,3.76294 l 0,0 0,0 z m 6.60348,2.71674 3.23538,0 0.94572,-3.57732 1.42689,0 1.54302,3.57732 3.55062,0 -1.7919,-3.9823 c 2.37261,-0.65809 3.48425,-2.21051 3.48425,-4.18479 0,-0.94495 -0.28206,-1.78866 -0.89595,-2.41301 -0.77981,-0.79308 -2.05737,-1.23181 -3.99859,-1.23181 l -4.3802,0 -3.11924,11.81191 0,0 z m 4.84477,-6.14219 0.76322,-2.83486 1.74212,0 c 0.68026,0 1.16142,0.13499 1.42689,0.40498 0.1991,0.21936 0.29865,0.47248 0.29865,0.79308 0,1.01245 -0.94573,1.6368 -2.3892,1.6368 l -1.84168,0 0,0 z m -144.20244,-16.24138 174.6274,0 c 2.29081,0 3.67237,1.82715 3.08619,4.07955 l -6.46477,24.84091 c -0.58636,2.25307 -2.91674,4.07954 -5.20957,4.07954 l -174.62739,0 c -2.29081,0 -3.67237,-1.82714 -3.08619,-4.07954 l 6.46477,-24.84091 c 0.58635,-2.25307 2.91674,-4.07955 5.20956,-4.07955 l 0,0 z m 156.54664,22.58606 c 2.88695,0 4.94432,-1.65367 4.94432,-4.08355 0,-1.77178 -1.22778,-2.59862 -3.01968,-3.29046 -1.5928,-0.64121 -1.94123,-0.80996 -1.94123,-1.28243 0,-0.47248 0.48116,-0.84371 1.26097,-0.84371 1.17801,0 2.1901,0.5231 3.06946,1.29931 l 1.991,-2.26114 c -1.11164,-1.07994 -2.72104,-1.75491 -4.76181,-1.75491 -2.83718,0 -4.92773,1.67054 -4.92773,4.01605 0,1.73804 1.17801,2.548 3.01969,3.25671 1.62598,0.64122 1.94122,0.87746 1.94122,1.33306 0,0.53997 -0.54752,0.87746 -1.31074,0.87746 -1.27756,0 -2.45557,-0.53998 -3.5838,-1.60305 l -2.07396,2.17677 c 1.24438,1.3668 3.11923,2.15989 5.39229,2.15989 l 0,0 z"
       id="Logo-Copy-3"
       style="fill:#000000" />
  </g>
</svg>
