<?xml version="1.0" encoding="UTF-8" standalone="no"?>
<!-- Created with Inkscape (http://www.inkscape.org/) -->

<svg
   xmlns:dc="http://purl.org/dc/elements/1.1/"
   xmlns:cc="http://creativecommons.org/ns#"
   xmlns:rdf="http://www.w3.org/1999/02/22-rdf-syntax-ns#"
   xmlns:svg="http://www.w3.org/2000/svg"
   xmlns="http://www.w3.org/2000/svg"
   version="1.1"
   width="1045.4375"
   height="267.76849"
   id="svg4383">
  <defs
     id="defs4385" />
  <metadata
     id="metadata4388">
    <rdf:RDF>
      <cc:Work
         rdf:about="">
        <dc:format>image/svg+xml</dc:format>
        <dc:type
           rdf:resource="http://purl.org/dc/dcmitype/StillImage" />
        <dc:title></dc:title>
      </cc:Work>
    </rdf:RDF>
  </metadata>
  <g
     transform="translate(122.71875,-358.46875)"
     id="layer1">
    <path
       d="m -122.57422,495.4843 c 0,41.92133 0,83.84266 0,125.76399 43.106667,-0.6222 86.401283,1.60295 129.3538995,-2.87907 C 40.59541,614.33671 73.89908,597.59495 92.87985,568.58478 112.70086,541.79767 118.3751,507.02195 114.05597,474.50766 109.55754,435.17057 83.84586,398.67174 47.15534,383.07337 11.10427,366.52483 -29.459247,370.40091 -67.994414,369.7203 c -18.193269,0 -36.386536,0 -54.579806,0 0,41.92133 0,83.84266 0,125.764 z m 85.105353,-78.25526 c 20.244767,-0.53863 41.8789765,1.67273 58.367877,14.61564 19.84748,14.46142 27.32404,40.03917 26.51651,63.67118 1.14163,24.537 -7.4072,51.24247 -28.91562,65.09171 -20.0395105,14.57428 -45.766372,11.73392 -69.094508,13.03175 -9.112133,3.24935 -5.816854,-6.29731 -6.319695,-11.9269 0,-48.17165 0,-96.3433 0,-144.51495 6.481812,0.0105 12.963624,0.0211 19.445436,0.0316 z"
       id="path4355"
       style="color:#000000;fill:#ffffff;fill-opacity:1;fill-rule:nonzero;stroke:#ffffff;stroke-width:0.25812191;stroke-linecap:butt;stroke-linejoin:miter;stroke-miterlimit:4;stroke-opacity:1;stroke-dasharray:none;stroke-dashoffset:0;marker:none;visibility:visible;display:inline;overflow:visible;enable-background:accumulate" />
    <path
       d="m 130.86824,461.38149 c 0.6656,32.25907 -1.05095,64.65954 1.95717,96.81681 5.57495,24.19976 22.55739,45.58328 45.28086,55.88216 23.7466,11.022 50.44239,13.43444 76.28243,11.35548 31.07501,-0.39589 64.42337,-11.72187 83.21633,-37.70324 9.06853,-13.41474 15.24314,-29.01404 14.91651,-45.41145 2.17347,-57.50685 0.9836,-115.07662 1.33787,-172.61111 -21.88664,0 -43.77327,0 -65.65991,0 -0.4403,54.91269 0.83774,109.86416 -1.16799,164.74957 -0.0218,12.98144 -3.59719,26.95672 -14.71035,34.85026 -14.724,10.19906 -34.66682,10.0863 -51.27654,5.07857 -14.6919,-4.06672 -22.85014,-19.55338 -24.12561,-33.80349 -1.60921,-56.94134 -1.35525,-113.91689 -1.90609,-170.87491 -21.49731,0 -42.99461,0 -64.49192,0 0.11574,30.55712 0.23149,61.11423 0.34724,91.67135 z"
       id="path4357"
       style="color:#000000;fill:#ffffff;fill-opacity:1;fill-rule:nonzero;stroke:#ffffff;stroke-width:0.25812191;stroke-linecap:butt;stroke-linejoin:miter;stroke-miterlimit:4;stroke-opacity:1;stroke-dasharray:none;stroke-dashoffset:0;marker:none;visibility:visible;display:inline;overflow:visible;enable-background:accumulate" />
    <path
       d="m 378.10549,358.61102 0,23.21875 0,23.25 64.65625,0 0,-46.46875 -64.65625,0 z m 91.90625,10.40625 0,126.125 0,126.09375 c 42.97277,-0.36168 86.01206,-0.40331 128.9375,-2.5 37.92842,-4.3252 74.48847,-26.03364 92.625,-60.25 14.09791,-23.31909 17.38065,-51.24878 15.09375,-77.96875 -2.17611,-49.85379 -41.26702,-94.7888 -89.875,-105.15625 -28.4095,-7.4909 -58.12231,-4.32108 -87.15625,-5.59375 -19.8672,-0.2425 -39.75832,-0.46652 -59.625,-0.75 z m 230.34375,0.6875 0,24.25 0,24.25 c 26.2539,0.38919 52.5989,-0.95974 78.78125,1.28125 l 0,201.78125 c 21.71815,-0.19543 43.43784,-0.36891 65.15625,-0.53125 l 0.5,-201.53125 77.78123,0 0,-49.5 -222.21873,0 z m -165.6875,46.6875 16.9375,0.40625 c 20.62561,0.46008 42.96069,0.86957 60.09375,14.0625 15.19493,10.29598 23.78542,28.03526 27.53125,45.40625 -0.79361,20.57748 2.97281,42.90495 -8.03125,61.5625 -12.19211,22.20807 -37.4568,35.62139 -62.59375,34.84375 -11.30575,0.56934 -22.6245,0.74797 -33.9375,1.125 l 0,-157.40625 z m -155.5625,14.9375 0,87.21875 c 0.41261,34.22184 -0.69657,68.51564 1.3125,102.6875 l 60.3125,0 0,-189.90625 -61.625,0 z"
       id="path4359"
       style="color:#000000;fill:#ffffff;fill-opacity:1;fill-rule:nonzero;stroke:#ffffff;stroke-width:0.25812191;stroke-linecap:butt;stroke-linejoin:miter;stroke-miterlimit:4;stroke-opacity:1;stroke-dasharray:none;stroke-dashoffset:0;marker:none;visibility:visible;display:inline;overflow:visible;enable-background:accumulate" />
  </g>
</svg>
