<?xml version="1.0" encoding="UTF-8" standalone="no"?>
<!-- Created with Inkscape (http://www.inkscape.org/) -->

<svg
   xmlns:dc="http://purl.org/dc/elements/1.1/"
   xmlns:cc="http://creativecommons.org/ns#"
   xmlns:rdf="http://www.w3.org/1999/02/22-rdf-syntax-ns#"
   xmlns:svg="http://www.w3.org/2000/svg"
   xmlns="http://www.w3.org/2000/svg"
   version="1.1"
   width="183.78842"
   height="44.392433"
   id="svg4180">
  <defs
     id="defs4182" />
  <metadata
     id="metadata4185">
    <rdf:RDF>
      <cc:Work
         rdf:about="">
        <dc:format>image/svg+xml</dc:format>
        <dc:type
           rdf:resource="http://purl.org/dc/dcmitype/StillImage" />
        <dc:title></dc:title>
      </cc:Work>
    </rdf:RDF>
  </metadata>
  <g
     transform="translate(-518.28125,-396.59375)"
     id="layer1">
    <path
       d="m 652.72998,410.03135 c -0.003,1.18175 0.004,2.36383 -0.0165,3.54535 -1.7e-4,0.16098 -0.0328,0.33147 -0.16318,0.43959 -0.13188,0.14453 -0.28328,0.30238 -0.49313,0.30852 -0.32603,0.0314 -0.65723,0.008 -0.98111,-0.0354 -0.15029,-0.0296 -0.2974,-0.0919 -0.43978,-0.13547 -0.0315,0.25874 -0.007,0.52435 -0.0151,0.78564 0,0.0994 0,0.19889 0,0.29834 0.37127,0.2125 0.8148,0.17765 1.22402,0.14079 0.43373,-0.0591 0.88955,-0.0395 1.29307,-0.236 0.22322,-0.0987 0.45155,-0.20706 0.60413,-0.40572 0.17731,-0.19754 0.33298,-0.42742 0.36931,-0.69649 0.0768,-0.32335 0.1108,-0.65446 0.10405,-0.98665 0.0141,-2.10511 0.0101,-4.2103 0.0158,-6.31544 -0.50032,0 -1.00065,0 -1.50098,0 -1.6e-4,1.09766 -3.2e-4,2.19531 -4.8e-4,3.29297 z"
       id="path4149"
       style="color:#000000;fill:#ffffff;fill-opacity:1;fill-rule:nonzero;stroke:#ffffff;stroke-width:0.00399262;stroke-linecap:butt;stroke-linejoin:miter;stroke-miterlimit:4;stroke-opacity:1;stroke-dasharray:none;stroke-dashoffset:0;marker:none;visibility:visible;display:inline;overflow:visible;enable-background:accumulate" />
    <path
       d="m 648.51682,406.84466 0,3.5625 0,3.53125 1.5,0 0,-7.09375 -1.5,0 z"
       id="path4153"
       style="color:#000000;fill:#ffffff;fill-opacity:1;fill-rule:nonzero;stroke:#ffffff;stroke-width:0.00399262;stroke-linecap:butt;stroke-linejoin:miter;stroke-miterlimit:4;stroke-opacity:1;stroke-dasharray:none;stroke-dashoffset:0;marker:none;visibility:visible;display:inline;overflow:visible;enable-background:accumulate" />
    <path
       d="m 635.73557,406.84466 c -0.53319,0.003 -1.06136,0.008 -1.59375,0.0312 0.86115,2.39782 1.72393,4.79282 2.59375,7.1875 0.5013,-0.003 0.9987,-0.0288 1.5,-0.0312 0.8628,-2.39456 1.73791,-4.79168 2.59375,-7.1875 -0.36622,-0.02 -0.72698,0.004 -1.09375,0 l -1,2.78125 c -0.33212,0.92745 -0.65937,1.85689 -1,2.78125 -0.67633,-1.84706 -1.33583,-3.71095 -2,-5.5625 z m 20.1875,0 0,3.59375 c 0.002,1.2005 -0.0123,2.39335 0,3.59375 1.60059,0.0182 3.21178,0.0281 4.8125,0.0312 l 0,-1.03125 -3.3125,0 0,-2.1875 2.59375,0 0,-1 -2.59375,0 0,-2 3.09375,0 0,-1 -4.59375,0 z m -14.1875,0.0937 0,3.5625 0,3.5625 1.28125,0 0,-2.90625 c 0.26758,0.002 0.54493,-0.003 0.8125,0 0.5995,0.96605 1.21278,1.94033 1.8125,2.90625 0.60205,4.1e-4 1.1792,9e-5 1.78125,0 -0.76384,-1.10183 -1.51565,-2.21189 -2.28125,-3.3125 0.36346,-0.20362 0.71754,-0.44927 0.9375,-0.8125 0.2264,-0.33181 0.42395,-0.71387 0.4375,-1.125 0.0169,-0.37742 0.0215,-0.77649 -0.21875,-1.09375 -0.19039,-0.30512 -0.49409,-0.534 -0.84375,-0.625 -0.36156,-0.11341 -0.71709,-0.16209 -1.09375,-0.15625 -0.87271,-0.006 -1.75227,0.004 -2.625,0 z m 1.40625,0.90625 0.34375,0 c 0.41341,0.009 0.84708,0.0106 1.21875,0.21875 0.2765,0.184 0.4407,0.51009 0.40625,0.84375 -0.0344,0.3039 -0.203,0.56804 -0.375,0.8125 -0.23461,0.27472 -0.62021,0.37987 -0.96875,0.40625 -0.21287,0.0165 -0.41169,0.0244 -0.625,0.0312 l 0,-2.3125 z"
       id="path4161"
       style="color:#000000;fill:#ffffff;fill-opacity:1;fill-rule:nonzero;stroke:#ffffff;stroke-width:0.00399262;stroke-linecap:butt;stroke-linejoin:miter;stroke-miterlimit:4;stroke-opacity:1;stroke-dasharray:none;stroke-dashoffset:0;marker:none;visibility:visible;display:inline;overflow:visible;enable-background:accumulate" />
    <path
       d="m 598.86057,396.65716 c -1.11102,0.39461 -1.92055,1.32417 -2.78125,2.09375 -2.24793,2.08679 -4.20196,4.48247 -5.65625,7.1875 -2.87065,5.17457 -4.06045,11.28607 -3.25,17.15625 0.33116,2.57108 1.0202,5.07079 2,7.46875 0.038,-1.30577 0.0946,-2.63687 0.5625,-3.875 0.3331,-1.15464 0.84212,-2.22683 1.40625,-3.28125 0.0844,-0.29467 -0.3045,-0.49728 -0.40625,-0.75 -0.01,-0.0939 -0.50399,-0.49337 -0.25,-0.4375 0.3302,0.0674 0.7339,0.27759 1.03125,0.28125 -0.15508,-0.50958 -0.49058,-0.99487 -0.59375,-1.5 0.60086,0.059 1.06528,0.54501 1.53125,0.875 0.52626,-0.28377 1.17417,-0.5056 1.75,-0.1875 0.54416,0.29224 1.30598,0.10182 1.75,0.59375 0.15893,0.24071 0.35046,0.6018 0.21875,0.875 -0.52684,-0.3752 -1.2818,-0.59192 -1.875,-0.21875 -0.14929,0.0318 -0.3085,0.22817 -0.0625,0.28125 0.44535,0.19053 0.96873,0.28789 1.375,0.5 -0.69157,0.0931 -1.39617,0.15963 -2.09375,0.1875 l 0,2.4375 c -0.93671,0.8295 -1.84556,1.63809 -2.78125,2.46875 0.073,0.2155 -0.18313,1.08358 0.125,0.8125 0.58884,-0.49651 1.14491,-1.01758 1.71875,-1.53125 -0.0443,0.39448 0.18611,0.90375 -0.25,1.125 -0.99143,0.9016 -2.0095,1.78488 -3,2.6875 0.0157,0.28361 -0.009,0.61032 0.0625,0.875 2.15905,-1.85747 4.17048,-3.87287 6.46875,-5.5625 0.15652,-0.13847 0.44709,-0.29597 0.53125,0 0.0915,0.37242 0.27368,0.90266 0.75,0.875 0.83261,-0.22022 1.38506,-0.95063 2.0625,-1.4375 2.33808,-1.92045 5.05785,-3.29482 7.78125,-4.5625 -1.83279,1.24156 -3.80033,2.28217 -5.46875,3.75 -0.50386,0.38022 -0.53901,1.34373 0.0625,1.625 0.64692,-0.015 1.16407,-0.53102 1.78125,-0.6875 0.99694,-0.39879 2.07075,-0.41493 3.125,-0.46875 0.53035,-0.11233 1.09065,-0.51752 1.21875,-1.0625 0.0229,-0.18067 -0.21731,-0.2404 -0.25,-0.34375 1.89188,-0.6368 3.81286,-1.1599 5.8125,-1.3125 0.53828,-0.0508 1.20835,-0.17388 1.375,-0.78125 0.15677,-0.31956 0.19948,-0.88888 -0.28125,-0.90625 -1.15514,-0.20074 -2.37609,0.0506 -3.5,0.1875 1.85013,-0.79424 3.84794,-1.23742 5.78125,-1.78125 1.28362,-0.37845 2.62085,-0.59983 3.84375,-1.15625 0.41359,-0.19642 0.47941,-0.81487 0.25,-1.15625 -0.59839,-0.27619 -1.32852,-0.10247 -1.96875,-0.125 -2.89612,0.13314 -5.73132,0.74862 -8.53125,1.46875 2.99352,-1.56471 6.0987,-2.95418 9.375,-3.8125 0.69586,-0.25195 1.55716,-0.28639 2.09375,-0.84375 0.25726,-0.28373 0.43505,-1.02904 -0.0937,-1.125 -1.50243,-0.10598 -2.98345,0.26745 -4.4375,0.59375 1.77163,-0.8709 3.64014,-1.58861 5.46875,-2.34375 0.63757,-0.29208 1.3665,-0.43142 1.9375,-0.84375 0.20134,-0.24017 0.40875,-0.72503 0.125,-0.96875 -0.9803,-0.1403 -1.9492,0.15018 -2.90625,0.34375 -0.32532,0.0755 -0.68156,0.172 -1,0.21875 1.96799,-0.86286 3.9705,-1.72121 6.09375,-2.125 0.54401,-0.12181 1.41905,-0.23522 1.40625,-0.96875 -0.12848,-0.55423 -0.86604,-0.51059 -1.3125,-0.5625 -2.25815,-0.11166 -4.49813,0.2602 -6.71875,0.625 -0.19914,0.0283 -0.6898,0.13847 -0.71875,0.0937 0.92326,-0.53861 1.95249,-0.89734 2.8125,-1.53125 0.22656,-0.34317 0.28582,-1.07696 -0.28125,-1.09375 -1.08325,0.0228 -2.10581,0.484 -3.125,0.8125 -4.1418,1.57566 -7.96771,3.84739 -11.59375,6.375 -3.76046,2.61886 -7.13027,5.78269 -10.1875,9.1875 -0.17212,0.24246 -0.34057,-0.15579 -0.5625,-0.0937 0.0546,-0.30931 0.31396,-0.67727 0.4375,-1 0.37297,-0.84539 0.79608,-1.67569 1.125,-2.53125 0.005,-0.50728 0.13839,-1.25353 -0.46875,-1.46875 -0.7177,0.0578 -1.08211,0.8167 -1.53125,1.28125 -0.11316,0.084 -0.58711,0.82909 -0.4375,0.40625 0.43263,-1.54731 1.07785,-3.01237 1.875,-4.40625 0.36698,-0.76679 1.07357,-1.6028 0.6875,-2.5 -0.12036,-0.35602 -0.56815,-0.30239 -0.75,-0.0312 -0.31922,0.28052 -0.6095,0.60287 -0.90625,0.90625 0.91518,-1.72964 1.93559,-3.39299 2.84375,-5.125 0.16616,-0.4102 -0.10294,-0.92457 -0.46875,-1.125 -0.44339,0.0136 -0.7665,0.42541 -1.09375,0.6875 -0.28737,0.26387 -0.55204,0.62478 -0.8125,0.875 0.86405,-1.72048 2.12484,-3.19471 3.28125,-4.71875 0.40142,-0.45337 0.25566,-1.17765 -0.15625,-1.5625 -0.46268,-0.24638 -0.82829,0.35987 -1.15625,0.59375 -0.91844,0.7902 -1.70261,1.69236 -2.53125,2.5625 0.79099,-2.00347 2.10437,-3.7233 3.25,-5.53125 0.31329,-0.44595 0.0453,-1.00888 -0.0938,-1.46875 -0.13868,-0.30436 -0.52221,-0.46983 -0.84375,-0.46875 z m -3.84375,5.875 c -2.13717,3.4561 -3.60181,7.28227 -4.875,11.125 -0.43091,1.252 -0.78454,2.60154 -1.21875,3.8125 0.20773,-2.56672 0.87069,-5.09535 1.78125,-7.5 1.03972,-2.67234 2.47522,-5.24478 4.3125,-7.4375 z m -76.6875,4.21875 0.21875,0.5625 c 4.0368,10.95254 8.06173,21.88944 12.09375,32.84375 2.32847,-0.0171 4.67151,-0.017 7,-0.0312 3.96908,-11.12125 7.89015,-22.25941 11.875,-33.375 -1.63335,-5.3e-4 -3.24166,-0.002 -4.875,0 -3.09767,8.53202 -6.11041,17.10032 -9.3125,25.59375 -0.17015,-0.0593 -0.31354,-0.7797 -0.46875,-1.0625 -3.07503,-8.16963 -6.07794,-16.35118 -9.125,-24.53125 l -7.40625,0 z m 35.1875,0 c 9.2e-4,3.4987 -0.001,7.00129 0,10.5 0.0327,4.14925 -0.0392,8.2912 0.125,12.4375 0.14821,2.57915 0.77966,5.25679 2.5625,7.21875 2.41687,2.79479 6.20199,3.89515 9.78125,4 2.42806,0.0788 4.93996,-0.0897 7.21875,-1 2.84866,-1.22178 5.24782,-3.70772 5.9375,-6.78125 0.74165,-2.83174 0.47153,-5.79224 0.5625,-8.6875 0.0286,-5.89806 0.043,-11.78941 0.0625,-17.6875 l -6,0 c -0.0461,7.56624 0.0114,15.12226 -0.125,22.6875 -0.0236,1.73121 -0.34701,3.57388 -1.4375,4.96875 -1.79101,2.10235 -4.90113,2.40954 -7.40625,1.625 -1.64921,-0.52705 -3.09527,-1.78125 -3.59375,-3.46875 -0.94295,-2.96682 -0.58243,-6.12509 -0.6875,-9.1875 -0.0277,-5.54357 -0.0245,-11.08139 -0.0312,-16.625 l -6.96875,0 z m 64.9375,3.15625 c -0.45551,0.26878 -1.05829,0.44002 -1.5625,0.6875 -5.32873,2.42324 -10.30455,5.56197 -15.03125,9 -9.7e-4,-0.0944 0.35557,-0.33915 0.46875,-0.46875 4.60972,-4.18794 10.05847,-7.62853 16.125,-9.21875 z m -25,5.15625 c -0.55498,1.19385 -0.97549,2.47067 -1.40625,3.71875 -0.2508,-0.26856 -0.53831,-0.52361 -0.21875,-0.875 0.45075,-0.98664 0.94837,-1.99504 1.625,-2.84375 z m 80.625,4.6875 c -0.87437,0.084 -1.71745,0.67517 -1.90625,1.5625 -0.21685,1.01615 0.51921,1.95067 1.375,2.40625 0.61305,0.44339 1.43488,0.71152 1.8125,1.40625 0.20805,0.68916 -0.49997,1.29854 -1.15625,1.1875 -0.70926,-0.009 -1.40101,-0.24321 -2.0625,-0.46875 -0.0997,0.38134 -0.0427,0.7964 -0.0625,1.1875 1.07373,0.18189 2.21767,0.1816 3.28125,-0.0625 0.63291,-0.22757 1.21874,-0.74709 1.40625,-1.40625 0.23878,-0.89123 -0.18351,-1.91309 -1.03125,-2.3125 -0.71868,-0.50925 -1.61771,-0.84175 -2.125,-1.59375 -0.26511,-0.6042 0.49465,-1.05068 1.03125,-0.96875 0.62143,-0.0229 1.24337,0.19036 1.8125,0.34375 -0.0128,-0.34797 0.0848,-0.76573 -0.125,-1.0625 -0.5941,-0.20091 -1.25072,-0.18463 -1.875,-0.21875 -0.12495,-0.01 -0.25009,-0.012 -0.375,0 z m -39.25,0.15625 0,2.4375 c 0.0406,1.0081 -0.0725,2.03801 0.125,3.03125 0.24422,1.11215 1.35084,1.88019 2.46875,1.84375 0.91255,0.0741 1.93472,-0.12605 2.5625,-0.84375 0.56203,-0.90677 0.40805,-2.04369 0.46875,-3.0625 0.002,-1.12635 -0.0239,-2.24871 -0.0312,-3.375 l -1.3125,0 c -0.0506,1.80118 0.0216,3.61025 -0.125,5.40625 -0.12844,0.59193 -0.66398,1.06031 -1.28125,0.96875 -0.73888,0.0568 -1.36873,-0.65141 -1.3125,-1.375 -0.0666,-1.67666 -0.0385,-3.35364 -0.0625,-5.03125 l -1.5,0 z m 7.375,0 0,3.5625 0,3.5625 1.25,0 c 0.0121,-1.55859 0.0213,-3.09765 0.0312,-4.65625 1.06514,1.5477 2.15499,3.07634 3.21875,4.625 0.44596,0.0117 0.86653,0.0195 1.3125,0.0312 l 0,-7.125 -1.1875,0 c -0.0121,1.62694 -0.0212,3.27929 -0.0312,4.90625 -1.08772,-1.61622 -2.16323,-3.25815 -3.25,-4.875 l -1.34375,-0.0312 z m 7.6875,0 0,3.5625 0,3.5625 1.5625,0 c -0.0121,-2.36458 -0.0212,-4.72917 -0.0312,-7.09375 l -1.5313,-0.0312 z m 2.8125,0 c -0.0719,-10e-4 -0.14593,0.01 -0.1875,0.0312 -0.0554,0.0287 -0.0682,0.0961 -0.0312,0.1875 0.85038,2.28322 1.64188,4.57923 2.53125,6.84375 0.49347,0.12628 1.02196,0.006 1.53125,0.0312 0.86223,-2.35384 1.73333,-4.70801 2.59375,-7.0625 -0.36638,0.0173 -0.78276,-0.089 -1.125,0.0312 -0.69114,1.75604 -1.28056,3.58248 -2,5.3125 -0.71774,-1.75613 -1.29111,-3.55691 -2,-5.3125 -0.21667,-0.0386 -0.43655,-0.0312 -0.65625,-0.0312 -0.14448,0.049 -0.44071,-0.028 -0.65625,-0.0312 z m 7.1875,0 0,3.5625 0,3.5625 4.8125,0 c -0.0911,-0.30469 0.20253,-0.9942 -0.1875,-1 l -3.0625,0 0,-2.1875 2.53125,0 c -0.10853,-0.27009 0.14406,-0.93116 -0.25,-0.90625 -0.76041,-0.0113 -1.52082,-0.0219 -2.28125,-0.0312 l 0,-1.9375 c 0.98959,-0.01 1.97917,-0.0192 2.96875,-0.0312 -0.0911,-0.30532 0.20252,-0.99151 -0.1875,-1 -1.44792,-0.01 -2.89584,-0.0197 -4.34375,-0.0312 z m 6,0 0,3.5 c 0.0132,1.17648 -0.006,2.36412 0.0625,3.53125 0.41723,0.0632 0.82932,0.0211 1.25,0.0312 l 0,-2.9375 c 0.33735,0.0595 0.84611,-0.16433 0.96875,0.28125 0.54675,0.87976 1.11082,1.74441 1.65625,2.625 0.58334,-0.0154 1.19073,0.0803 1.75,-0.0312 -0.68289,-1.10976 -1.49316,-2.14061 -2.15625,-3.25 0.41382,-0.21552 0.78924,-0.50295 1,-0.9375 0.33502,-0.509 0.36225,-1.17531 0.21875,-1.75 -0.24655,-0.69815 -1.002,-0.98821 -1.6875,-1 -1.01428,-0.077 -2.04635,-0.05 -3.0625,-0.0625 z m 12.3125,0 0,3.5625 0,3.5625 1.5,0 0,-7.125 -1.5,0 z m 2,0 0,0.53125 c -0.14489,0.5303 0.16433,0.6065 0.625,0.53125 l 2,0 0,6.0625 1.375,0 0,-6.0625 2.625,0 c -0.0446,-0.3304 0.0865,-0.83649 -0.0625,-1.0625 l -6.5625,0 z m 7.1875,0 0,3.5625 0,3.5625 4.8125,0 c -0.0911,-0.30469 0.20253,-0.9942 -0.1875,-1 l -3.1875,0 0,-2.1875 2.65625,0 c -0.10853,-0.27003 0.14407,-0.93143 -0.25,-0.90625 -0.80207,-0.0113 -1.60415,-0.0218 -2.40625,-0.0312 l 0,-1.9375 c 1.03126,-0.01 2.06251,-0.0192 3.09375,-0.0312 -0.0911,-0.30532 0.20252,-0.99151 -0.1875,-1 -1.44793,-0.01 -2.89584,-0.0197 -4.34375,-0.0312 z m 6,0 0,3.5625 0,3.5625 1.5625,0 c -0.0121,-2.36458 -0.0212,-4.72917 -0.0312,-7.09375 l -1.5313,-0.0312 z m 2,0 c 0.007,0.17187 0.0248,0.35937 0.0312,0.53125 -0.13278,0.52885 0.17879,0.59339 0.625,0.53125 0.65625,0.009 1.31247,-0.008 1.96875,0 l 0,6.0625 1.5,0 0,-6.0625 2.5,0 c -0.0446,-0.3304 0.0865,-0.83649 -0.0625,-1.0625 l -6.5625,0 z m -28.0625,0.9375 0.59375,0.0312 c 0.56411,0.004 1.38128,0.20275 1.375,0.90625 0.0158,0.74982 -0.68579,1.38542 -1.4375,1.3125 -0.53032,0.17798 -0.60051,-0.13965 -0.53125,-0.59375 l 0,-1.65625 z m -73.3125,1 c -0.33701,0.0255 -0.39115,0.60742 -0.0312,0.625 0.30608,0.0139 0.47535,-0.47096 0.15625,-0.59375 -0.0447,-0.0217 -0.076,-0.0359 -0.125,-0.0312 z m 12.09375,5.78125 c -0.46193,-0.008 -0.92711,0.16977 -1.25,0.5 0.12608,0.22053 0.40067,0.3515 0.625,0.46875 0.16975,0.1112 0.60787,0.064 0.53125,0.375 -0.0286,0.17132 -0.29776,-3.5e-4 -0.40625,0.0312 -0.62931,-0.081 -0.9752,-0.66361 -1.40625,-1.0625 -0.004,0.65302 0.0805,1.37924 0.625,1.8125 0.64245,0.58996 1.78583,0.49115 2.28125,-0.25 0.12822,-0.15516 0.20866,-0.44295 0.46875,-0.34375 0.77341,0.05 1.6854,0.39274 1.90625,1.21875 0.31002,0.75718 0.0927,1.67085 -0.5,2.21875 -0.56904,0.61098 -1.50255,0.69225 -2.25,0.40625 -1.15459,-0.36154 -1.99016,-1.2925 -2.78125,-2.15625 -0.69962,-0.73634 -1.43423,-1.57452 -2.46875,-1.8125 -0.66121,-0.14508 -1.36684,-0.31316 -2.03125,-0.0937 -1.58952,0.27341 -3.11123,0.89207 -4.71875,1.0625 -0.41111,0.0509 -0.85872,-0.0216 -1.25,0.0625 -1.14627,1.10944 -2.43358,2.06376 -3.59375,3.15625 -0.13704,0.24572 0.008,0.54455 0,0.8125 0.10568,1.24537 0.11941,2.50097 0.0937,3.75 -0.0808,0.41257 -0.12217,0.96466 -0.53125,1.1875 -0.55699,0.27073 -1.10269,-0.3085 -1.65625,-0.0937 -0.29263,0.31778 -0.0894,0.83007 0.0937,1.15625 0.30775,0.2136 0.70886,0.0869 1.0625,0.125 l 1.28125,0 c 0.3816,-0.66108 0.54108,-1.45384 0.96875,-2.09375 0.3995,-0.5419 0.42971,-1.23261 0.75,-1.8125 0.16174,-0.31516 0.27314,-0.67048 0.5,-0.9375 0.44062,0.82622 1.02243,1.6639 1.90625,2.0625 0.31877,0.15506 0.70508,0.40185 0.65625,0.8125 0.035,0.38865 -0.0652,0.95497 -0.5625,0.96875 -0.41981,0.0129 -0.80363,-0.31646 -1.21875,-0.1875 -0.38311,0.26183 -0.17905,0.76373 0.0312,1.0625 0.1528,0.35335 0.61114,0.20758 0.90625,0.25 l 1.21875,0 c 0.66824,-1.03093 0.8078,-2.33337 0.6875,-3.53125 -0.0483,-0.52445 -0.72482,-0.56863 -0.84375,-1.0625 -0.11219,-0.26616 -0.21257,-0.55129 -0.1875,-0.84375 1.08178,-0.40008 2.07166,-1.00101 3.03125,-1.625 0.10367,0.88024 0.18736,1.79591 0.53125,2.625 0.27075,0.67685 0.91636,1.07664 1.28125,1.6875 0.0712,0.3784 -0.24175,0.71459 -0.40625,1.03125 -0.27324,0.48772 -0.86652,0.79543 -1.40625,0.5625 -0.29815,-0.10691 -0.72122,-0.3895 -0.96875,-0.0312 -0.21116,0.40261 0.0914,0.82975 0.3125,1.15625 0.66705,0.009 1.33293,0.0242 2,0.0312 0.61759,-1.04902 1.44038,-1.99348 1.96875,-3.09375 0.13312,-0.22908 0.11188,-0.55578 -0.1875,-0.625 -0.61731,-0.26594 -0.66412,-1.05711 -0.5625,-1.625 0.0665,-0.3076 0.0851,-0.65765 0.28125,-0.90625 0.27407,0.54346 0.46942,1.12765 0.84375,1.625 0.49104,0.72978 1.25437,1.30402 2.125,1.46875 0.28836,0.0389 0.50081,0.26551 0.4375,0.5625 -0.05,0.5271 -0.21911,1.14013 -0.6875,1.4375 -0.51224,0.19998 -0.99563,-0.42214 -1.5,-0.1875 -0.35106,0.30313 -0.0686,0.79436 0.0937,1.125 0.0684,0.33331 0.47395,0.13306 0.71875,0.1875 0.4586,-0.0172 0.92817,0.07 1.375,-0.0312 0.4236,-0.95393 0.85937,-1.90382 1.15625,-2.90625 0.074,-0.44089 0.18009,-0.97139 -0.0625,-1.375 -0.30631,-0.32772 -0.93803,-0.10267 -1.15625,-0.5625 -0.37163,-0.82983 -0.33044,-1.75437 -0.5625,-2.625 -0.0778,-0.36762 -0.20894,-0.72637 -0.375,-1.0625 0.95253,0.99795 2.06425,1.94634 3.4375,2.28125 1.02544,0.22251 2.21309,0.0809 2.9375,-0.75 0.46927,-0.5166 0.58877,-1.26218 0.625,-1.9375 0.0486,-0.70554 -0.14325,-1.45785 -0.6875,-1.9375 -0.55425,-0.60379 -1.39275,-0.82729 -2.1875,-0.84375 -0.26433,-0.004 -0.29349,-0.3195 -0.5,-0.4375 -0.22791,-0.21513 -0.51174,-0.46255 -0.84375,-0.4375 z m 46.90625,5.125 c -0.92462,-0.0288 -1.93292,0.37125 -2.25,1.3125 -0.42003,1.01897 0.29978,2.10926 1.1875,2.59375 0.63209,0.4571 1.46055,0.73704 1.90625,1.40625 0.28504,0.69704 -0.4843,1.35513 -1.15625,1.25 -0.67571,0.0183 -1.31123,-0.27384 -1.9375,-0.46875 -0.0787,0.39631 -0.0259,0.81577 -0.0312,1.21875 1.00928,0.18971 2.08287,0.20414 3.09375,0.0312 0.86326,-0.23638 1.58228,-1.09912 1.46875,-2.03125 0.0845,-1.05873 -0.8672,-1.73104 -1.6875,-2.1875 -0.56124,-0.38349 -1.32207,-0.68918 -1.5625,-1.375 -0.0452,-0.64016 0.75504,-0.90296 1.28125,-0.8125 0.54996,0.007 1.11911,0.22008 1.625,0.34375 0.0407,-0.36393 -0.007,-0.7281 0,-1.09375 -0.64371,-0.0989 -1.28443,-0.20035 -1.9375,-0.1875 z m -3.6875,0.15625 c -0.30534,0.006 -0.60091,0.0254 -0.90625,0.0312 -0.32557,0.0941 -0.93785,-0.20231 -1,0.25 -0.5339,1.55441 -1.01914,3.18131 -1.59375,4.6875 -0.64994,-1.62012 -1.18614,-3.29667 -1.78125,-4.9375 l -1.9375,0 c 0.004,2.38269 -0.0265,4.77703 0.0312,7.15625 0.33735,0.13309 0.70475,0.032 1.0625,0.0625 0.0201,-1.76798 -0.0333,-3.55714 0.0625,-5.3125 0.57555,1.59506 1.10734,3.20799 1.65625,4.8125 l 1.21875,0 c 0.57754,-1.57923 1.13874,-3.14043 1.71875,-4.71875 0.0101,1.74544 0.0191,3.47331 0.0312,5.21875 l 1.4375,0 0,-7.25 z m 6.1875,0 0,0.53125 c -0.14489,0.5303 0.16433,0.6065 0.625,0.53125 l 1.875,0 0,6.1875 1.5,0 0,-6.1875 c 0.86459,-0.01 1.72918,-0.0192 2.59375,-0.0312 -0.0363,-0.31816 0.1426,-0.81761 0,-1.03125 l -6.59375,0 z m 7.1875,0 0,3.625 0,3.625 4.8125,0 c -0.0446,-0.3304 0.0865,-0.83649 -0.0625,-1.0625 l -3.25,0 0,-2.125 2.5,0 c -0.0446,-0.3304 0.0865,-0.83649 -0.0625,-1.0625 l -2.4375,0 0,-1.9375 3,0 c -0.0446,-0.3304 0.0865,-0.83649 -0.0625,-1.0625 l -4.4375,0 z m 28.9375,0 c -0.33659,0.006 -0.66341,0.0254 -1,0.0312 -0.29714,0.0867 -0.94155,-0.16642 -1.03125,0.125 0.004,2.34091 -0.0257,4.69433 0.0312,7.03125 0.38157,0.13343 0.78742,0.0315 1.1875,0.0625 0.003,-1.80209 0.0283,-3.60417 0.0312,-5.40625 0.55312,1.62531 1.1013,3.25031 1.65625,4.875 l 1.21875,0 c 0.54921,-1.58366 1.1052,-3.16699 1.65625,-4.75 9.3e-4,1.76041 -0.003,3.52083 0,5.28125 l 1.4375,0 0,-7.25 -1.71875,0 c -0.59467,1.65279 -1.14644,3.33868 -1.78125,4.96875 -0.62321,-1.6349 -1.12164,-3.31269 -1.6875,-4.96875 z m -54.15625,0.125 c -0.25672,0.0221 -0.67784,-0.0779 -0.6875,0.3125 -0.88692,2.24959 -1.8057,4.52101 -2.65625,6.78125 0.37798,0.0993 0.79859,0.0122 1.1875,0.0312 0.24548,-0.6434 0.4851,-1.28974 0.71875,-1.9375 l 2.96875,0 c 0.23369,0.64775 0.47331,1.29409 0.71875,1.9375 0.49379,-0.0157 0.98455,0.0505 1.46875,-0.0312 -0.90252,-2.36815 -1.82688,-4.73349 -2.75,-7.09375 -0.31901,8.4e-4 -0.64976,-0.004 -0.96875,0 z m 31.09375,0 0,3.53125 c 0.0134,1.18685 -0.007,2.38502 0.0625,3.5625 0.50126,0.0627 0.99586,0.0213 1.5,0.0312 l 0,-2.9375 c 0.32938,0.0696 0.82167,-0.12168 0.9375,0.3125 0.54675,0.87976 1.11082,1.74441 1.65625,2.625 l 1.8125,0 c -0.72352,-1.11933 -1.56814,-2.17484 -2.25,-3.3125 0.19904,-0.18098 0.49534,-0.28373 0.65625,-0.53125 0.62267,-0.63203 0.95372,-1.69765 0.375,-2.46875 -0.46392,-0.82006 -1.53278,-0.73941 -2.34375,-0.78125 -0.79877,-0.0118 -1.60742,-0.0294 -2.40625,-0.0312 z m 6.625,0 0,3.59375 0,3.625 c 1.37817,-0.0499 2.78591,0.0372 4.15625,-0.125 0.8567,-0.2238 1.61013,-0.81836 1.9375,-1.65625 0.52993,-1.00052 0.50349,-2.20467 0.25,-3.28125 -0.37375,-1.20248 -1.53693,-2.22087 -2.84375,-2.125 -1.16564,-0.0368 -2.33398,-0.0282 -3.5,-0.0312 z m 9.40625,0 -1.375,3.53125 c -0.45374,1.1885 -0.96831,2.37765 -1.375,3.5625 0.39513,0.0533 0.79024,6e-4 1.1875,0 l 0.6875,-1.90625 2.96875,0 c 0.24195,0.64471 0.47961,1.29174 0.71875,1.9375 0.48918,-0.0235 0.99671,0.0507 1.46875,-0.0625 -0.89832,-2.3414 -1.80847,-4.67976 -2.75,-7 -0.50185,-0.11145 -1.01958,-0.0386 -1.53125,-0.0625 z m -14.65625,0.9375 c 0.20312,0.009 0.42188,0.0228 0.625,0.0312 0.51789,0.003 1.26135,0.12508 1.28125,0.78125 0.11189,0.6362 -0.28178,1.34865 -0.96875,1.40625 -0.30847,0.057 -0.62509,0.0314 -0.9375,0.0312 l 0,-2.25 z m 6.6875,0.0625 c 0.1927,6.5e-4 0.40104,-7e-4 0.59375,0 0.88351,-0.0106 1.9739,0.0828 2.4375,0.96875 0.51958,0.83011 0.53422,1.91482 0.1875,2.8125 -0.27472,0.72258 -0.93748,1.3365 -1.75,1.28125 -0.48271,0.023 -0.9857,-0.003 -1.46875,0 l 0,-5.0625 z m -39.21875,0.4375 0.53125,1.3125 c 0.16886,0.45995 0.365,0.94296 0.5,1.40625 -0.69798,0.0898 -1.39083,0.015 -2.09375,0.0312 0.36464,-0.91695 0.70556,-1.83004 1.0625,-2.75 z m 47.71875,0 0.3125,0.84375 c 0.25027,0.64233 0.49454,1.26595 0.75,1.90625 -0.70379,-0.0203 -1.43026,0.0723 -2.125,-0.0312 0.31947,-0.91012 0.71359,-1.81928 1.0625,-2.71875 z"
       id="path4225"
       style="color:#000000;fill:#ffffff;fill-opacity:1;fill-rule:nonzero;stroke:#ffffff;stroke-width:0.01597048;stroke-linecap:butt;stroke-linejoin:miter;stroke-miterlimit:4;stroke-opacity:1;stroke-dasharray:none;stroke-dashoffset:0;marker:none;visibility:visible;display:inline;overflow:visible;enable-background:accumulate" />
  </g>
</svg>
