<?xml version="1.0" encoding="UTF-8" standalone="no"?>
<!-- Generator: Adobe Illustrator 16.0.4, SVG Export Plug-In . SVG Version: 6.00 Build 0)  -->

<svg
   xmlns:dc="http://purl.org/dc/elements/1.1/"
   xmlns:cc="http://creativecommons.org/ns#"
   xmlns:rdf="http://www.w3.org/1999/02/22-rdf-syntax-ns#"
   xmlns:svg="http://www.w3.org/2000/svg"
   xmlns="http://www.w3.org/2000/svg"
   xmlns:sodipodi="http://sodipodi.sourceforge.net/DTD/sodipodi-0.dtd"
   xmlns:inkscape="http://www.inkscape.org/namespaces/inkscape"
   version="1.1"
   id="Layer_1"
   x="0px"
   y="0px"
   width="217.819"
   height="79.273003"
   viewBox="0 0 217.819 79.273003"
   enable-background="new 0 0 240 150"
   xml:space="preserve"
   inkscape:version="0.48.4 r9939"
   sodipodi:docname="Logo_ministerie_OCW.svg"><sodipodi:namedview
     pagecolor="#ffffff"
     bordercolor="#666666"
     borderopacity="1"
     objecttolerance="10"
     gridtolerance="10"
     guidetolerance="10"
     inkscape:pageopacity="0"
     inkscape:pageshadow="2"
     inkscape:window-width="1920"
     inkscape:window-height="1056"
     id="namedview119"
     showgrid="false"
     fit-margin-top="0"
     fit-margin-left="0"
     fit-margin-right="0"
     fit-margin-bottom="0"
     inkscape:zoom="1.2166667"
     inkscape:cx="107.923"
     inkscape:cy="39.391"
     inkscape:window-x="0"
     inkscape:window-y="24"
     inkscape:window-maximized="1"
     inkscape:current-layer="Layer_1" /><metadata
     id="metadata123"><rdf:RDF><cc:Work
         rdf:about=""><dc:format>image/svg+xml</dc:format><dc:type
           rdf:resource="http://purl.org/dc/dcmitype/StillImage" /></cc:Work></rdf:RDF></metadata><defs
     id="defs121" /><g
     transform="translate(-12.077,-35.118)"
     id="g3"><rect
       style="fill:#000000"
       id="rect5"
       height="1.814"
       width="0.65399998"
       y="87.502998"
       x="33.827999" /><path
       style="fill:#000000"
       inkscape:connector-curvature="0"
       id="path7"
       d="m 30.581,88.376 c 0.292,-0.202 0.675,-0.162 0.61,0.214 0,0 -0.063,0.08 -0.424,0.08 0,0 0.016,0.129 0.048,0.168 0,0 -0.084,0.102 -0.026,0.197 0,0 0.321,-0.161 0.497,-0.114 0.074,0.179 0.008,0.417 -0.508,0.5 -0.646,0.102 -0.997,0.286 -1.067,0.988 0.502,-0.038 0.818,0.2 1.207,0.387 0.586,0.272 1.232,-0.109 1.232,-0.111 -0.142,-0.128 -0.175,-0.502 0.058,-0.678 0.123,0.237 0.387,0.266 0.557,0.142 0.018,-0.013 0.015,-0.033 0,-0.042 -0.284,-0.153 -0.315,-0.413 -0.183,-0.691 0.148,0.215 0.473,0.049 0.507,-0.134 0.002,-0.011 -0.008,-0.014 -0.019,-0.009 -0.218,0.069 -0.318,-0.17 -0.318,-0.333 0,-0.145 0.111,-0.666 -0.125,-1.019 0.068,-0.114 0.479,-0.292 0.608,-0.314 0.039,-0.006 0.041,-0.037 -0.003,-0.056 -0.172,-0.075 -0.567,0.008 -0.635,-0.076 0,0 -0.072,-0.571 -0.097,-0.585 -0.025,-0.015 -0.536,0.253 -0.536,0.253 -0.107,-0.007 -0.266,-0.378 -0.425,-0.479 -0.04,-0.025 -0.065,-0.005 -0.048,0.031 0.056,0.118 0.144,0.558 0.09,0.679 -0.454,-0.041 -0.61,0.132 -0.637,0.257 -0.11,0.027 -0.539,0.268 -0.539,0.356 0,0.027 0.025,0.09 0.065,0.11 -0.003,0.001 -0.025,0.16 0.111,0.279 z m 0.809,-0.581 c -0.141,0.276 -0.332,0.294 -0.476,0.142 -0.01,-0.094 0.18,-0.16 0.476,-0.142 z" /><path
       style="fill:#000000"
       inkscape:connector-curvature="0"
       id="path9"
       d="M 21.841,85.193 C 21.82,84.964 21.59,84.91 21.056,84.938 c 0.102,0.479 0.526,0.544 0.785,0.255 z" /><path
       style="fill:#000000"
       inkscape:connector-curvature="0"
       id="path11"
       d="m 27.581,89.473 -0.267,0.365 c -0.058,0.079 0.221,0.283 0.279,0.204 l 0.35,-0.478 c 0,0 1.126,0.604 1.408,0.777 0.017,-0.236 0.102,-0.454 0.237,-0.634 -0.349,-0.097 -1.055,-0.326 -1.055,-0.326 -0.034,0.056 -0.153,0.103 -0.234,0.103 -0.181,0 -0.302,-0.203 -0.333,-0.271 -0.003,-0.008 -0.002,-0.013 0.009,-0.008 0.048,0.021 0.174,0.076 0.212,0.024 l 0.143,-0.197 0.318,0.149 0.149,-0.21 -0.27,-0.089 1.279,-1.797 c 0.031,-0.045 0.021,-0.312 0.01,-0.41 -0.097,0.02 -0.354,0.095 -0.387,0.139 l -1.301,1.781 -0.169,-0.229 -0.151,0.209 0.242,0.254 -0.12,0.164 c -0.274,-0.162 -0.52,0.036 -0.602,0.123 -0.008,0.01 -0.005,0.014 0.004,0.012 0.079,-0.021 0.38,-0.086 0.379,0.115 -0.332,-0.1 -0.464,0.122 -0.498,0.194 -0.008,0.014 0,0.018 0.008,0.016 0.059,-0.015 0.271,-0.073 0.36,0.02 z" /><path
       style="fill:#000000"
       inkscape:connector-curvature="0"
       id="path13"
       d="m 40.704,84.938 c -0.535,-0.028 -0.764,0.025 -0.786,0.255 0.259,0.289 0.683,0.224 0.786,-0.255 z" /><path
       style="fill:#000000"
       inkscape:connector-curvature="0"
       id="path15"
       d="m 29.76,88.368 c -0.007,-0.032 -0.035,-0.032 -0.045,0.003 -0.075,0.272 0.124,0.457 0.307,0.457 0.278,0 0.298,-0.2 0.734,-0.257 0.038,-0.005 0.039,-0.055 0.005,-0.065 -0.024,-0.007 -0.254,-0.032 -0.463,0.021 -0.34,0.086 -0.51,-0.041 -0.538,-0.159 z" /><path
       style="fill:#000000"
       inkscape:connector-curvature="0"
       id="path17"
       d="m 31.206,93.164 c 0.02,-0.006 0.017,-0.026 -0.005,-0.021 -0.184,0.036 -0.428,-0.252 -0.182,-0.552 -0.163,-0.114 -0.366,-0.2 -0.524,-0.201 -0.715,0 -1.252,0.78 -1.353,0.893 -0.092,0.104 -0.279,0.283 -0.393,0.125 -0.014,-0.021 -0.022,-0.019 -0.022,0.007 0,0.321 0.262,0.324 0.364,0.267 0.01,-0.006 0.017,-0.005 0.015,0.009 -0.041,0.331 0.164,0.885 0.169,0.899 -0.029,0.031 -0.331,0.318 -0.543,0.318 -0.143,0 -0.169,-0.274 -0.387,-0.274 -0.068,0 -0.135,0.033 -0.205,0.107 -0.008,0.01 -0.005,0.022 0.015,0.022 0.166,0.008 0.262,0.107 0.225,0.255 -0.204,-0.171 -0.514,-0.144 -0.507,0.247 0,0.019 0.014,0.025 0.025,0.011 0.145,-0.21 0.371,-0.058 0.393,-0.035 -0.15,0.023 -0.408,0.194 -0.177,0.51 0.009,0.013 0.015,0.008 0.016,-0.005 0.005,-0.068 0.039,-0.238 0.243,-0.238 0.216,0 0.36,0.191 0.525,-0.009 0.065,0.265 0.344,0.24 0.423,0.226 0.007,-10e-4 0.012,-0.008 0.003,-0.013 -0.124,-0.083 -0.166,-0.171 -0.166,-0.237 0,-0.173 0.353,-0.381 0.46,-0.381 0.106,0 0.142,0.107 0.338,0.107 0.084,0 0.186,-0.034 0.273,-0.138 0.013,-0.015 0.008,-0.022 -0.011,-0.019 -0.243,0.055 -0.384,-0.174 -0.384,-0.588 0.002,-0.793 0.425,-0.935 1.372,-1.292 z" /><path
       style="fill:#000000"
       inkscape:connector-curvature="0"
       id="path19"
       d="m 26.79,91.896 0.429,0.188 0.031,-0.046 0.37,0.096 c -0.098,0.104 -0.061,0.249 -0.044,0.301 0.002,0.007 0.011,0.01 0.017,0.001 0.033,-0.053 0.15,-0.206 0.359,-0.198 0.015,0 0.016,0.006 0.007,0.011 -0.072,0.036 -0.306,0.18 -0.227,0.462 0.003,0.011 0.017,0.014 0.023,0.004 0.09,-0.129 0.259,-0.188 0.326,-0.21 l -0.066,0.499 c 0.385,0.107 0.803,-0.147 0.844,-0.583 l -0.43,-0.098 c 0.462,-0.337 1.085,-0.563 1.665,-0.563 0.917,0 1.505,0.988 1.505,1.577 0,0.147 -0.016,0.364 -0.128,0.526 -0.17,0.247 -0.3,0.192 -0.36,0.131 -0.016,-0.016 -0.026,-0.014 -0.02,0.012 0.076,0.318 0.488,0.308 0.538,0.146 0.013,-0.041 0.032,-0.028 0.036,-0.012 0.211,0.758 1.157,-0.052 1.643,0.916 -0.021,0.011 -0.263,0.138 -0.402,0.051 -0.273,-0.177 -0.423,-0.002 -0.473,0.117 -0.008,0.018 0,0.023 0.014,0.021 0.301,-0.062 0.421,0.128 0.438,0.183 -0.229,-0.097 -0.547,0.016 -0.402,0.403 0.008,0.02 0.021,0.019 0.028,-0.002 0.098,-0.27 0.328,-0.174 0.351,-0.16 -0.134,0.064 -0.326,0.325 0.007,0.547 0.013,0.01 0.024,0.004 0.021,-0.012 -0.033,-0.192 0.06,-0.335 0.2,-0.335 0.078,0 0.281,0.007 0.379,-0.23 0.133,0.229 0.406,0.144 0.534,0.097 0.021,-0.009 0.022,-0.027 -0.004,-0.035 -0.174,-0.051 -0.405,-0.172 -0.213,-0.306 0,0 0.365,0.134 0.502,-0.222 0.008,-0.021 0,-0.032 -0.019,-0.021 -0.018,0.009 -0.38,0.199 -0.464,-0.143 -0.056,-0.229 -0.09,-0.61 -0.279,-0.695 0.206,-0.086 0.279,-0.256 0.118,-0.478 -0.011,-0.016 -0.031,-0.037 -0.032,-0.002 -0.026,0.521 -1.112,0.088 -1.138,-0.64 0.765,0.192 1.526,0.008 1.526,-0.761 0,-0.739 -0.714,-1.064 -0.714,-1.422 0,-0.249 0.215,-0.311 0.323,-0.311 0.293,0 0.626,0.351 0.688,0.634 0.003,0.016 0.02,0.02 0.032,0.003 0.103,-0.151 0.122,-0.387 0.036,-0.458 -0.021,-0.016 0,-0.048 0.03,-0.027 0.071,0.05 0.648,-0.002 0.648,-0.399 0,-0.134 -0.042,-0.216 -0.033,-0.275 0.007,-0.049 -0.07,-0.07 -0.096,-0.006 -0.032,0.083 -0.092,0.29 -0.376,0.29 -0.239,0 -0.654,-0.122 -0.937,-0.122 -0.536,0 -0.731,0.402 -0.731,0.683 0,0.626 0.655,0.742 0.655,1.342 0,0.446 -0.63,0.588 -1.077,0.166 -0.113,-0.521 -0.216,-0.897 -0.508,-1.331 -1.161,0.372 -1.389,-0.363 -2.016,-0.363 -0.527,0 -1.215,0.943 -1.767,1.073 l 0.078,-0.558 0.062,-0.012 -0.016,-0.462 c 0,0 -0.125,0.3 -0.143,0.344 -0.015,0.036 -0.036,0.033 -0.048,0.006 -0.059,-0.138 -0.177,-0.407 -0.177,-0.407 0,0 -0.007,0.366 -0.009,0.445 0,0.027 -0.021,0.034 -0.038,0.011 l -0.278,-0.406 c 0,0 0.068,0.316 0.105,0.486 0.005,0.023 -0.015,0.033 -0.032,0.017 l -0.379,-0.357 c 0,0 0.105,0.257 0.197,0.486 0.009,0.022 -0.009,0.038 -0.031,0.021 -0.07,-0.047 -0.416,-0.278 -0.416,-0.278 0,0 0.163,0.237 0.283,0.414 0.014,0.019 0.003,0.04 -0.025,0.03 -0.249,-0.094 -0.424,-0.158 -0.424,-0.158 0,0 0.153,0.149 0.328,0.321 0.019,0.018 0.017,0.041 -0.02,0.041 -0.068,0 -0.384,0.002 -0.384,0.002 z" /><path
       style="fill:#000000"
       inkscape:connector-curvature="0"
       id="path21"
       d="M 12.077,114.391 H 49.682 V 35.118 H 12.077 v 79.273 z m 12.839,-11.417 c 0,1.428 -2.352,0.088 -4.622,-0.057 -1.885,-0.123 -2.411,0.358 -2.411,0.358 l 0.346,-1.906 c 0.019,-0.103 0.426,-0.396 1.725,-0.396 1.564,0 2.348,0.3 2.634,0.4 v 1 c 0,0.228 0.114,0.34 0.288,0.41 0,-0.085 0.261,-0.65 2.04,-0.65 v 0.841 z m -2.108,-7.548 c -0.25,-0.215 -1.352,-0.632 -1.958,-0.863 -0.032,-0.013 -0.029,-0.035 0,-0.042 0.167,-0.047 0.331,-0.148 0.353,-0.354 0.015,-0.129 -0.013,-0.305 -0.158,-0.39 0.299,-0.324 0.893,-0.551 1.206,-0.551 1.199,0 2.216,1.624 2.703,1.624 0.061,0 0.14,-0.022 0.211,-0.126 0.017,-0.022 0.033,-0.024 0.033,0.013 0,0.49 -0.26,0.534 -0.399,0.534 -0.078,0.001 -0.162,-0.024 -0.222,-0.059 -0.016,-0.009 -0.024,-0.001 -0.024,0.017 0,0.019 0.004,0.068 0.004,0.102 0,0.578 -0.604,1.21 -0.604,1.21 0.272,0.284 0.955,0.762 1.146,0.508 0.082,-0.104 0.439,-0.746 0.917,-0.234 0.017,0.02 0.005,0.041 -0.027,0.041 -0.27,0 -0.479,0.183 -0.406,0.461 0.387,-0.309 0.921,-0.259 0.921,0.454 0,0.029 -0.028,0.035 -0.042,0.015 -0.255,-0.366 -0.659,-0.118 -0.718,-0.065 0.271,0.041 0.741,0.358 0.328,0.922 -0.018,0.025 -0.034,0.02 -0.036,0 -0.042,-0.37 -0.268,-0.434 -0.452,-0.434 -0.378,0 -0.655,0.349 -0.944,-0.021 -0.104,0.483 -0.641,0.438 -0.771,0.416 -0.017,-0.003 -0.019,-0.017 -0.008,-0.024 0.169,-0.109 0.3,-0.262 0.3,-0.429 0,-0.3 -0.574,-0.692 -0.848,-0.692 -0.163,0 -0.28,0.195 -0.595,0.195 -0.163,0 -0.353,-0.066 -0.509,-0.263 -0.012,-0.016 -0.005,-0.027 0.014,-0.024 0.13,0.021 0.485,0.108 0.65,-0.531 0.173,-0.671 0.231,-1.155 -0.065,-1.41 z m 0.219,6.585 c -0.039,0.043 -0.055,-10e-4 -0.055,-0.034 l -0.001,-1.938 c 0,-0.564 3.83,-0.894 7.908,-0.894 4.078,0 7.908,0.329 7.908,0.894 l -10e-4,1.938 c 0,0.033 -0.016,0.077 -0.055,0.034 -0.485,-0.552 -4.197,-0.743 -7.852,-0.743 -3.655,0 -7.366,0.191 -7.852,0.743 z m 12.742,-5.157 c -0.032,0 -0.043,-0.021 -0.027,-0.041 0.478,-0.512 0.835,0.131 0.917,0.234 0.191,0.254 0.874,-0.224 1.147,-0.508 0,0 -0.604,-0.632 -0.604,-1.21 0,-0.033 0.003,-0.083 0.003,-0.102 0,-0.018 -0.008,-0.025 -0.023,-0.017 -0.06,0.034 -0.145,0.06 -0.223,0.059 -0.138,0 -0.398,-0.044 -0.398,-0.534 0,-0.037 0.017,-0.035 0.033,-0.013 0.071,0.104 0.151,0.126 0.211,0.126 0.487,0 1.504,-1.624 2.703,-1.624 0.313,0 0.906,0.227 1.206,0.551 -0.146,0.085 -0.172,0.261 -0.158,0.39 0.022,0.206 0.186,0.308 0.353,0.354 0.03,0.007 0.032,0.029 0,0.042 -0.606,0.231 -1.707,0.648 -1.957,0.863 -0.296,0.255 -0.238,0.739 -0.067,1.407 0.165,0.64 0.52,0.553 0.65,0.531 0.019,-0.003 0.025,0.009 0.014,0.024 -0.157,0.196 -0.347,0.263 -0.51,0.263 -0.314,0 -0.432,-0.195 -0.595,-0.195 -0.274,0 -0.848,0.393 -0.848,0.692 0,0.167 0.131,0.319 0.3,0.429 0.011,0.008 0.008,0.021 -0.008,0.024 -0.13,0.021 -0.667,0.067 -0.771,-0.416 -0.289,0.37 -0.565,0.021 -0.944,0.021 -0.184,0 -0.41,0.063 -0.452,0.434 -0.002,0.02 -0.018,0.025 -0.036,0 -0.413,-0.563 0.057,-0.881 0.328,-0.922 -0.059,-0.053 -0.462,-0.301 -0.717,0.065 -0.014,0.021 -0.042,0.015 -0.042,-0.015 0,-0.713 0.535,-0.763 0.922,-0.454 0.072,-0.275 -0.137,-0.458 -0.407,-0.458 z m 5.697,6.063 c -2.27,0.145 -4.622,1.484 -4.622,0.057 v -0.841 c 1.779,0 2.04,0.565 2.04,0.65 0.174,-0.07 0.289,-0.183 0.289,-0.41 v -1 c 0.286,-0.101 1.07,-0.4 2.633,-0.4 1.3,0 1.708,0.294 1.726,0.396 l 0.346,1.906 c -0.002,0 -0.528,-0.481 -2.412,-0.358 z M 39.969,84.643 c 0.047,-0.232 0.345,-0.567 1.246,-0.447 0.426,0.053 0.733,-0.059 0.589,-0.307 -0.024,-0.042 0.052,-0.05 0.092,-0.009 0.099,0.099 0.234,0.377 -0.139,0.563 -0.414,0.21 -0.438,0.624 -0.441,0.684 -0.007,0.088 0.099,0.097 0.123,0.009 0.19,-0.7 1.146,-0.85 1.712,-0.479 -0.034,0.375 -0.437,0.623 -0.657,0.623 -0.127,0 -0.303,-0.127 -0.303,-0.302 0,-0.084 -0.043,-0.073 -0.068,-0.007 -0.094,0.249 0.274,0.763 0.822,0.449 0.558,0.558 0.335,1.244 0.279,1.497 -0.1,0.454 0.123,0.896 0.532,0.689 0.021,-0.009 0.042,-0.018 0.042,0.032 0,0.285 -0.373,0.608 -0.812,0.362 -0.058,0.081 -0.675,0.88 0.273,1.188 0.041,0.014 0.056,0.055 -0.007,0.08 -0.7,0.293 -1.039,-0.244 -1.039,-0.244 -0.352,0.805 0.188,1.252 0.188,1.252 -0.076,0.145 -0.411,0.388 -0.917,0.502 -0.193,-0.104 -0.463,-0.301 -0.575,-0.604 0,0 -0.137,0.352 -0.013,0.687 -1.429,0.131 -1.935,-1.012 -3.035,-0.807 -0.032,0.006 -0.047,-0.014 -0.047,-0.048 0,-0.704 0.432,-1.992 1.794,-2.253 1.359,-0.263 0.993,-0.82 0.993,-0.82 -0.573,-0.026 -0.904,0.223 -0.904,0.223 -0.105,-0.171 0.043,-0.356 0.043,-0.356 -0.055,-0.066 -0.086,-0.3 -0.086,-0.3 0.646,0 0.815,-0.139 0.815,-0.139 0.098,-0.383 -0.167,-0.924 -1.125,-0.345 -0.239,-0.213 -0.221,-0.539 -0.221,-0.539 -0.072,-0.033 -0.118,-0.146 -0.118,-0.195 0,-0.16 0.767,-0.589 0.964,-0.639 z m -2.221,1.335 c 0.021,-0.081 0.068,-0.062 0.08,-0.007 0.051,0.215 0.315,0.339 0.594,0.339 0.345,0 0.419,-0.119 0.963,-0.119 0.049,0 0.388,0 0.388,0.07 0,0.069 -0.158,0.033 -0.388,0.072 -0.522,0.09 -0.729,0.353 -1.096,0.353 -0.334,0 -0.674,-0.226 -0.541,-0.708 z m -7.505,-8.681 c 0.12,0 0.226,0.052 0.284,0.095 0.121,0.084 0.187,0.07 0.226,0.03 0.04,-0.04 0.053,-0.105 -0.031,-0.226 -0.041,-0.059 -0.093,-0.164 -0.093,-0.284 0,-0.206 0.135,-0.31 0.251,-0.31 0.116,0 0.251,0.104 0.251,0.31 0,0.12 -0.052,0.226 -0.094,0.284 -0.084,0.12 -0.071,0.186 -0.032,0.226 0.04,0.04 0.106,0.054 0.226,-0.03 0.059,-0.043 0.164,-0.095 0.285,-0.095 0.206,0 0.308,0.136 0.308,0.252 0,0.116 -0.102,0.251 -0.308,0.251 -0.121,0 -0.226,-0.051 -0.285,-0.094 -0.12,-0.084 -0.187,-0.07 -0.226,-0.031 -0.039,0.039 0.019,0.453 0.065,0.779 0.341,0.072 0.506,0.346 0.506,0.505 0,0.41 -0.439,0.647 -0.697,0.785 -0.258,-0.138 -0.697,-0.375 -0.697,-0.785 0,-0.159 0.165,-0.433 0.506,-0.505 0.046,-0.326 0.104,-0.74 0.064,-0.779 -0.039,-0.039 -0.105,-0.053 -0.226,0.031 -0.059,0.043 -0.164,0.094 -0.284,0.094 -0.207,0 -0.309,-0.135 -0.309,-0.251 0,-0.116 0.104,-0.252 0.31,-0.252 z m 1.137,3.165 c 0,0.276 -0.224,0.501 -0.5,0.501 -0.276,0 -0.501,-0.225 -0.501,-0.501 0,-0.276 0.225,-0.5 0.501,-0.5 0.276,0 0.5,0.224 0.5,0.5 z m -4.602,0.1 c 0.454,0 0.382,0.295 0.769,0.295 0.048,0 0.097,-0.012 0.097,0.022 0,0.128 -0.108,0.346 -0.285,0.346 -0.237,0 -0.242,-0.237 -0.418,-0.237 -0.076,0 -0.186,0.062 -0.186,0.305 0,0.473 0.309,0.996 0.674,1.399 0.083,-0.115 0.197,-0.188 0.334,-0.188 0.215,0 0.405,0.226 0.405,0.504 0,0.103 -0.017,0.178 -0.054,0.264 0.122,0.068 0.229,0.106 0.311,0.106 0.165,0 0.413,-0.066 0.413,-0.427 0,-0.804 -1.077,-1.511 -1.077,-2.529 0,-0.486 0.325,-0.971 1.004,-0.971 0.728,0 0.592,0.665 1.222,0.665 0.029,0 0.052,0.009 0.052,0.035 0,0.041 -0.109,0.408 -0.435,0.408 -0.349,0 -0.447,-0.603 -0.755,-0.603 -0.115,0 -0.288,0.067 -0.288,0.477 0,0.317 0.157,0.831 0.383,1.323 0.082,-0.082 0.192,-0.141 0.317,-0.141 0.27,0 0.464,0.26 0.464,0.572 0,0.197 -0.078,0.388 -0.212,0.514 0.159,0.203 0.321,0.368 0.542,0.368 0.435,0 0.627,-0.247 0.627,-0.516 0,-0.292 -0.531,-0.397 -0.531,-0.853 0,-0.309 0.201,-0.482 0.394,-0.482 0.208,0 0.314,0.138 0.336,0.138 0.021,0 0.127,-0.138 0.335,-0.138 0.193,0 0.395,0.174 0.395,0.482 0,0.455 -0.532,0.561 -0.532,0.853 0,0.269 0.192,0.516 0.627,0.516 0.22,0 0.383,-0.165 0.542,-0.368 -0.134,-0.126 -0.211,-0.316 -0.211,-0.514 0,-0.312 0.194,-0.572 0.464,-0.572 0.125,0 0.236,0.059 0.318,0.141 0.226,-0.492 0.383,-1.006 0.383,-1.323 0,-0.409 -0.172,-0.477 -0.288,-0.477 -0.309,0 -0.407,0.603 -0.755,0.603 -0.326,0 -0.435,-0.367 -0.435,-0.408 0,-0.026 0.023,-0.035 0.052,-0.035 0.63,0 0.495,-0.665 1.222,-0.665 0.679,0 1.004,0.484 1.004,0.971 0,1.019 -1.078,1.726 -1.078,2.529 0,0.36 0.249,0.427 0.413,0.427 0.081,0 0.189,-0.038 0.311,-0.106 -0.038,-0.086 -0.054,-0.161 -0.054,-0.264 0,-0.278 0.189,-0.504 0.405,-0.504 0.136,0 0.25,0.072 0.334,0.188 0.365,-0.403 0.673,-0.927 0.673,-1.399 0,-0.242 -0.109,-0.305 -0.186,-0.305 -0.176,0 -0.181,0.237 -0.418,0.237 -0.177,0 -0.286,-0.218 -0.286,-0.346 0,-0.034 0.049,-0.022 0.097,-0.022 0.387,0 0.315,-0.295 0.769,-0.295 0.153,0 0.669,0.082 0.669,0.813 0,1.108 -1.368,1.442 -1.051,2.293 -0.581,-0.084 -0.574,0.481 -0.584,1.493 0,0 -1.131,-0.383 -3.136,-0.383 -2.005,0 -3.136,0.383 -3.136,0.383 -0.011,-1.012 -0.004,-1.577 -0.585,-1.493 0.318,-0.851 -1.05,-1.185 -1.05,-2.293 -0.001,-0.731 0.516,-0.813 0.669,-0.813 z m -2.846,5.409 c 0.011,-0.055 0.058,-0.074 0.08,0.007 0.133,0.482 -0.208,0.708 -0.541,0.708 -0.367,0 -0.573,-0.263 -1.097,-0.353 -0.23,-0.039 -0.388,-0.003 -0.388,-0.072 0,-0.07 0.338,-0.07 0.388,-0.07 0.544,0 0.618,0.119 0.964,0.119 0.279,0 0.543,-0.124 0.594,-0.339 z m -5.928,1.635 c 0.409,0.206 0.631,-0.235 0.532,-0.689 -0.056,-0.253 -0.278,-0.939 0.279,-1.497 0.547,0.313 0.916,-0.2 0.822,-0.449 -0.025,-0.066 -0.068,-0.077 -0.068,0.007 0,0.175 -0.176,0.302 -0.303,0.302 -0.22,0 -0.624,-0.248 -0.657,-0.623 0.566,-0.37 1.522,-0.221 1.712,0.479 0.023,0.088 0.129,0.079 0.123,-0.009 -0.003,-0.06 -0.029,-0.474 -0.442,-0.684 -0.372,-0.187 -0.236,-0.465 -0.138,-0.563 0.04,-0.041 0.116,-0.033 0.092,0.009 -0.144,0.248 0.164,0.359 0.59,0.307 0.901,-0.12 1.198,0.215 1.246,0.447 0.197,0.051 0.963,0.479 0.963,0.64 0,0.049 -0.044,0.162 -0.117,0.195 0,0 0.018,0.326 -0.221,0.539 -0.958,-0.579 -1.225,-0.038 -1.125,0.345 0,0 0.169,0.139 0.814,0.139 0,0 -0.031,0.233 -0.085,0.3 0,0 0.148,0.186 0.043,0.356 0,0 -0.331,-0.249 -0.904,-0.223 0,0 -0.366,0.558 0.993,0.82 1.363,0.261 1.794,1.549 1.794,2.253 0,0.034 -0.015,0.054 -0.046,0.048 -1.101,-0.205 -1.606,0.938 -3.035,0.807 0.124,-0.335 -0.013,-0.687 -0.013,-0.687 -0.113,0.303 -0.383,0.499 -0.575,0.604 -0.508,-0.114 -0.842,-0.357 -0.919,-0.502 0,0 0.54,-0.447 0.188,-1.252 0,0 -0.339,0.537 -1.039,0.244 -0.062,-0.025 -0.048,-0.066 -0.006,-0.08 0.947,-0.308 0.33,-1.106 0.273,-1.188 -0.439,0.246 -0.812,-0.077 -0.812,-0.362 -0.001,-0.05 0.019,-0.041 0.041,-0.033 z m -3.342,0.964 c -0.021,-0.045 0.034,-0.077 0.062,-0.021 0.074,0.146 0.207,0.529 0.739,0.529 0.005,0 1.088,0.002 1.271,0.002 1.42,0 1.55,1.147 1.55,1.43 0,1.163 -1.478,1.669 -1.478,2.85 0,0.277 0.141,0.739 0.905,0.739 0.313,0 0.645,-0.09 0.844,-0.175 0,0 0.341,-2.069 1.343,-2.784 0,0 1.174,0.569 2.335,-0.06 0.888,-0.48 1.306,-0.802 2.084,-0.264 0.778,0.538 1.458,1.116 1.543,1.101 l 0.186,-0.036 v -4.649 c -0.361,-0.038 -0.386,0.285 -0.37,0.37 0.02,0.109 0.139,0.193 -0.109,0.562 -0.02,0.026 -0.048,0.016 -0.051,-0.015 -0.01,-0.094 -0.058,-0.251 -0.184,-0.251 -0.122,0 -0.674,0.416 -1.146,0.889 0,0 -0.271,-0.819 -0.922,-1.071 0.369,-0.057 1.963,-0.443 1.963,-1.141 0,-0.233 0.263,-0.287 0.435,-0.273 0.007,-0.021 0.268,-0.64 0.754,-0.316 0.026,0.017 0.019,0.054 -0.009,0.062 -0.215,0.049 -0.307,0.272 -0.315,0.514 0.175,-0.054 0.567,-0.167 1.112,-0.286 v 1.482 h 0.654 v -1.612 c 0.834,-0.15 1.884,-0.281 3.022,-0.281 2.346,0 4.324,0.555 4.789,0.697 -0.009,-0.241 -0.101,-0.465 -0.315,-0.514 -0.028,-0.008 -0.035,-0.045 -0.009,-0.062 0.486,-0.323 0.747,0.296 0.755,0.316 0.171,-0.014 0.434,0.04 0.434,0.273 0,0.697 1.594,1.084 1.963,1.141 -0.651,0.252 -0.922,1.071 -0.922,1.071 -0.473,-0.473 -1.026,-0.889 -1.147,-0.889 -0.125,0 -0.173,0.157 -0.183,0.251 -0.003,0.03 -0.032,0.041 -0.051,0.015 -0.247,-0.369 -0.129,-0.453 -0.109,-0.562 0.017,-0.085 -0.009,-0.408 -0.37,-0.37 v 4.649 l 0.186,0.036 c 0.085,0.016 0.764,-0.562 1.543,-1.101 0.778,-0.538 1.196,-0.217 2.084,0.264 1.161,0.629 2.336,0.06 2.336,0.06 1.001,0.715 1.343,2.784 1.343,2.784 0.199,0.085 0.529,0.175 0.843,0.175 0.765,0 0.905,-0.462 0.905,-0.739 0,-1.181 -1.477,-1.687 -1.477,-2.85 0,-0.282 0.13,-1.43 1.549,-1.43 0.182,0 1.266,-0.002 1.271,-0.002 0.532,0 0.664,-0.383 0.738,-0.529 0.028,-0.056 0.083,-0.023 0.062,0.021 -0.041,0.097 0.061,0.245 0.061,0.541 0,0.472 -0.278,0.756 -0.794,0.756 -0.234,0 -0.457,-0.066 -0.528,-0.109 -0.048,-0.028 -0.074,0.018 -0.051,0.044 0.226,0.263 0.244,0.755 0.151,0.875 -0.022,0.029 -0.05,0.021 -0.055,-0.003 -0.125,-0.498 -0.592,-0.97 -1.222,-0.97 -0.77,0 -0.767,0.654 -0.767,0.812 0,0.947 1.663,1.642 1.663,2.943 0,1.32 -1.395,1.604 -2.203,1.394 0.048,1.322 1.561,1.772 1.607,0.827 0.003,-0.045 0.036,-0.056 0.061,0.004 0.191,0.467 0.116,0.878 -0.473,1.008 -0.041,0.011 -0.021,0.032 0.016,0.057 0.583,0.372 0.267,1.828 0.238,2.258 -0.044,0.617 0.57,0.543 0.621,0.525 0.024,-0.011 0.049,0.003 0.011,0.052 -0.436,0.534 -0.974,0.046 -0.974,0.046 -0.407,0.127 -0.155,0.474 0.117,0.656 0.042,0.028 0.038,0.056 -0.007,0.06 -0.061,0.003 -0.69,0.056 -0.802,-0.445 -0.279,0.333 -0.688,0.212 -0.774,0.168 -0.122,-0.062 -0.711,-0.276 -0.77,0.386 -0.004,0.049 -0.032,0.018 -0.051,-0.007 -0.445,-0.56 0.032,-0.906 0.297,-0.946 -0.022,-0.032 -0.379,-0.327 -0.7,0.083 -0.021,0.028 -0.042,0.034 -0.046,-0.022 -0.037,-0.71 0.542,-0.774 0.915,-0.466 0.018,-0.073 0.142,-0.473 -0.422,-0.458 -0.014,0 -0.041,-0.021 -0.012,-0.049 0.439,-0.463 0.799,-0.041 0.883,0.059 0.196,0.23 0.682,0.14 0.727,0.134 -0.152,-2.47 -2.328,-1.595 -2.627,-2.795 -0.014,-0.064 -0.042,-0.039 -0.049,-0.018 -0.082,0.294 -0.82,0.334 -0.956,-0.243 -0.008,-0.035 -0.003,-0.062 0.023,-0.036 0.629,0.628 2.048,-1.337 0.112,-2.935 -1.652,-1.363 -3.133,-0.603 -3.696,-0.155 -0.03,0.197 0.087,0.261 0.162,0.285 0.027,0.008 0.036,0.033 -0.007,0.05 -0.158,0.06 -0.379,0.041 -0.483,-0.106 -0.355,0.248 -0.051,0.561 0.093,0.646 0.036,0.022 0.021,0.047 -0.01,0.053 -0.325,0.059 -0.594,-0.273 -0.607,-0.465 l -0.055,0.03 v 1.404 c 0,1.997 -2.305,2.274 -4.834,3.969 -2.53,-1.694 -4.835,-1.972 -4.835,-3.969 v -1.404 l -0.055,-0.03 c -0.013,0.191 -0.281,0.523 -0.607,0.465 -0.03,-0.006 -0.046,-0.03 -0.009,-0.053 0.143,-0.086 0.447,-0.398 0.092,-0.646 -0.104,0.147 -0.326,0.166 -0.483,0.106 -0.043,-0.017 -0.034,-0.042 -0.008,-0.05 0.076,-0.024 0.193,-0.088 0.164,-0.285 -0.563,-0.447 -2.044,-1.208 -3.696,0.155 -1.936,1.598 -0.517,3.562 0.112,2.935 0.026,-0.026 0.03,10e-4 0.023,0.036 -0.135,0.577 -0.874,0.537 -0.956,0.243 -0.006,-0.021 -0.035,-0.047 -0.048,0.018 -0.299,1.2 -2.475,0.325 -2.627,2.795 0.044,0.006 0.531,0.097 0.727,-0.134 0.083,-0.1 0.445,-0.521 0.883,-0.059 0.028,0.028 0.002,0.049 -0.012,0.049 -0.565,-0.015 -0.441,0.385 -0.423,0.458 0.375,-0.309 0.952,-0.244 0.916,0.466 -0.004,0.057 -0.024,0.051 -0.046,0.022 -0.321,-0.41 -0.678,-0.115 -0.7,-0.083 0.265,0.04 0.743,0.387 0.297,0.946 -0.019,0.024 -0.047,0.056 -0.05,0.007 -0.059,-0.662 -0.649,-0.447 -0.77,-0.386 -0.086,0.044 -0.496,0.165 -0.775,-0.168 -0.112,0.501 -0.741,0.448 -0.802,0.445 -0.046,-0.004 -0.049,-0.031 -0.007,-0.06 0.271,-0.183 0.523,-0.529 0.117,-0.656 0,0 -0.538,0.488 -0.974,-0.046 -0.039,-0.049 -0.015,-0.062 0.011,-0.052 0.05,0.018 0.665,0.092 0.621,-0.525 -0.029,-0.43 -0.345,-1.886 0.238,-2.258 0.037,-0.024 0.056,-0.046 0.016,-0.057 -0.589,-0.13 -0.665,-0.541 -0.473,-1.008 0.024,-0.06 0.057,-0.049 0.061,-0.004 0.046,0.945 1.559,0.495 1.606,-0.827 -0.809,0.21 -2.203,-0.073 -2.203,-1.394 0,-1.302 1.663,-1.996 1.663,-2.943 0,-0.158 0.004,-0.812 -0.767,-0.812 -0.629,0 -1.097,0.472 -1.221,0.97 -0.005,0.023 -0.033,0.032 -0.055,0.003 -0.093,-0.12 -0.075,-0.612 0.15,-0.875 0.022,-0.026 -0.003,-0.072 -0.051,-0.044 -0.072,0.043 -0.293,0.109 -0.528,0.109 -0.518,0 -0.795,-0.284 -0.795,-0.756 -0.002,-0.296 0.1,-0.444 0.06,-0.541 z" /><rect
       style="fill:#000000"
       id="rect23"
       height="1.813"
       width="0.65399998"
       y="95.496002"
       x="30.879999" /><path
       style="fill:#000000"
       inkscape:connector-curvature="0"
       id="path25"
       d="m 58.909,87.976 c 0.141,0 0.27,0 0.376,-0.013 0.117,0 0.223,-0.012 0.328,-0.035 0.094,-0.012 0.2,-0.035 0.306,-0.059 0.094,-0.024 0.211,-0.059 0.34,-0.094 v -0.258 l -0.763,-0.201 0.364,-5.882 0.012,-0.012 2.113,6.564 0.458,-0.06 2.09,-6.517 h 0.024 l 0.293,5.332 c 0.023,0.48 -0.212,0.774 -0.693,0.891 v 0.223 c 0.106,0.024 0.2,0.048 0.306,0.06 0.094,0.012 0.188,0.023 0.293,0.035 0.105,0 0.211,0.012 0.317,0.012 0.118,0.013 0.235,0.013 0.375,0.013 0.224,0 0.435,-0.024 0.635,-0.048 0.199,-0.035 0.364,-0.083 0.505,-0.152 V 87.517 L 65.907,87.387 65.39,80.93 66.118,80.753 V 80.412 C 65.884,80.378 65.637,80.353 65.39,80.342 65.144,80.33 64.909,80.33 64.698,80.33 h -0.505 l -1.785,5.694 H 62.396 L 60.553,80.33 H 60.13 c -0.106,0 -0.222,0 -0.352,0 -0.129,0 -0.27,0.012 -0.411,0.012 -0.141,0.012 -0.282,0.012 -0.423,0.023 -0.141,0.013 -0.282,0.036 -0.411,0.047 v 0.341 l 0.682,0.2 -0.517,6 c -0.012,0.176 -0.082,0.317 -0.2,0.434 -0.105,0.106 -0.27,0.188 -0.493,0.259 v 0.21 c 0.14,0.036 0.305,0.06 0.458,0.083 0.164,0.024 0.317,0.037 0.446,0.037 z" /><path
       style="fill:#000000"
       inkscape:connector-curvature="0"
       id="path27"
       d="m 68.074,81.001 c 0.059,0.059 0.129,0.105 0.2,0.142 0.083,0.034 0.165,0.047 0.247,0.047 0.094,0 0.176,-0.013 0.258,-0.06 0.082,-0.036 0.152,-0.082 0.212,-0.153 0.058,-0.058 0.105,-0.14 0.14,-0.223 0.035,-0.094 0.047,-0.188 0.047,-0.294 0,-0.094 -0.012,-0.187 -0.047,-0.257 -0.035,-0.083 -0.07,-0.153 -0.129,-0.2 -0.059,-0.059 -0.129,-0.105 -0.199,-0.13 -0.071,-0.034 -0.153,-0.047 -0.235,-0.047 -0.106,0 -0.199,0.024 -0.282,0.06 -0.082,0.035 -0.152,0.082 -0.211,0.152 -0.059,0.07 -0.105,0.141 -0.129,0.224 -0.035,0.081 -0.046,0.165 -0.046,0.257 0,0.096 0.012,0.189 0.046,0.271 0.034,0.08 0.081,0.152 0.128,0.211 z" /><path
       style="fill:#000000"
       inkscape:connector-curvature="0"
       id="path29"
       d="m 68.027,87.023 c 0,0.07 -0.011,0.143 -0.047,0.2 -0.035,0.07 -0.082,0.129 -0.141,0.176 -0.058,0.059 -0.129,0.106 -0.199,0.153 -0.083,0.048 -0.152,0.081 -0.235,0.105 v 0.198 c 0.129,0.048 0.282,0.071 0.446,0.083 0.152,0.012 0.305,0.023 0.434,0.023 0.153,0 0.282,-0.012 0.411,-0.012 0.118,-0.012 0.235,-0.023 0.341,-0.035 0.117,-0.012 0.211,-0.035 0.316,-0.06 0.094,-0.022 0.188,-0.058 0.294,-0.093 V 87.538 L 68.99,87.361 V 82.9 l 0.058,-0.635 h -0.376 c -0.164,0 -0.375,0.012 -0.622,0.059 -0.246,0.036 -0.505,0.083 -0.775,0.164 v 0.248 l 0.751,0.316 v 3.971 z" /><path
       style="fill:#000000"
       inkscape:connector-curvature="0"
       id="path31"
       d="m 75.439,84.077 c 0,-0.294 -0.047,-0.563 -0.118,-0.798 -0.083,-0.224 -0.2,-0.411 -0.341,-0.564 -0.141,-0.153 -0.316,-0.27 -0.516,-0.352 -0.199,-0.083 -0.422,-0.118 -0.669,-0.118 -0.34,0 -0.669,0.059 -0.975,0.177 -0.304,0.117 -0.563,0.281 -0.762,0.481 v -0.635 h -0.282 c -0.176,0 -0.387,0.012 -0.634,0.047 -0.247,0.035 -0.505,0.082 -0.775,0.164 v 0.26 l 0.763,0.316 v 3.968 c 0,0.07 -0.012,0.143 -0.047,0.2 -0.047,0.07 -0.093,0.129 -0.152,0.176 -0.059,0.059 -0.118,0.106 -0.2,0.153 -0.07,0.048 -0.141,0.081 -0.223,0.105 v 0.198 c 0.129,0.048 0.282,0.071 0.435,0.083 0.153,0.012 0.305,0.023 0.446,0.023 0.152,0 0.282,-0.012 0.399,-0.012 0.129,-0.012 0.247,-0.023 0.353,-0.035 0.105,-0.012 0.211,-0.035 0.317,-0.06 0.094,-0.022 0.188,-0.058 0.293,-0.093 v -0.223 l -0.657,-0.177 v -3.945 c 0.128,-0.094 0.304,-0.188 0.528,-0.258 0.211,-0.07 0.446,-0.105 0.681,-0.105 0.176,0 0.328,0.023 0.481,0.082 0.141,0.06 0.259,0.153 0.364,0.281 0.106,0.118 0.188,0.282 0.247,0.493 0.047,0.2 0.083,0.446 0.083,0.729 v 2.241 c 0,0.212 -0.036,0.378 -0.106,0.495 -0.059,0.129 -0.165,0.211 -0.316,0.281 v 0.198 c 0.117,0.048 0.246,0.071 0.375,0.083 0.141,0.012 0.27,0.023 0.388,0.023 0.493,0 0.904,-0.07 1.233,-0.199 v -0.223 l -0.61,-0.177 v -3.283 z" /><path
       style="fill:#000000"
       inkscape:connector-curvature="0"
       id="path33"
       d="m 77.555,87.023 c 0,0.07 -0.012,0.143 -0.047,0.2 -0.035,0.07 -0.083,0.129 -0.141,0.176 -0.058,0.059 -0.129,0.106 -0.199,0.153 -0.082,0.048 -0.153,0.081 -0.235,0.105 v 0.198 c 0.129,0.048 0.281,0.071 0.446,0.083 0.153,0.012 0.305,0.023 0.435,0.023 0.152,0 0.281,-0.012 0.411,-0.012 0.117,-0.012 0.235,-0.023 0.34,-0.035 0.117,-0.012 0.211,-0.035 0.317,-0.06 0.094,-0.022 0.188,-0.058 0.293,-0.093 V 87.538 L 78.518,87.361 V 82.9 l 0.058,-0.635 h -0.375 c -0.165,0 -0.376,0.012 -0.622,0.059 -0.246,0.036 -0.505,0.083 -0.775,0.164 v 0.248 l 0.752,0.316 v 3.971 z" /><path
       style="fill:#000000"
       inkscape:connector-curvature="0"
       id="path35"
       d="m 77.602,81.001 c 0.059,0.059 0.129,0.105 0.2,0.142 0.082,0.034 0.165,0.047 0.247,0.047 0.094,0 0.176,-0.013 0.258,-0.06 0.083,-0.036 0.153,-0.082 0.212,-0.153 0.058,-0.058 0.106,-0.14 0.141,-0.223 0.035,-0.094 0.047,-0.188 0.047,-0.294 0,-0.094 -0.012,-0.187 -0.047,-0.257 -0.035,-0.083 -0.07,-0.153 -0.129,-0.2 -0.059,-0.059 -0.128,-0.105 -0.199,-0.13 -0.07,-0.034 -0.153,-0.047 -0.235,-0.047 -0.105,0 -0.199,0.024 -0.281,0.06 -0.083,0.035 -0.153,0.082 -0.212,0.152 -0.059,0.07 -0.105,0.141 -0.129,0.224 -0.036,0.081 -0.047,0.165 -0.047,0.257 0,0.096 0.012,0.189 0.047,0.271 0.033,0.08 0.08,0.152 0.127,0.211 z" /><path
       style="fill:#000000"
       inkscape:connector-curvature="0"
       id="path37"
       d="m 82.966,87.506 c 0.188,-0.153 0.341,-0.34 0.447,-0.541 0.105,-0.211 0.152,-0.435 0.152,-0.656 0,-0.166 -0.023,-0.329 -0.059,-0.471 -0.047,-0.141 -0.117,-0.27 -0.199,-0.398 -0.094,-0.118 -0.223,-0.224 -0.364,-0.317 -0.152,-0.094 -0.329,-0.188 -0.54,-0.271 l -0.634,-0.246 c -0.176,-0.071 -0.329,-0.129 -0.446,-0.2 -0.117,-0.059 -0.211,-0.129 -0.282,-0.211 -0.07,-0.07 -0.116,-0.14 -0.152,-0.235 -0.023,-0.082 -0.035,-0.176 -0.035,-0.281 0,-0.094 0.023,-0.188 0.059,-0.281 0.046,-0.083 0.117,-0.165 0.211,-0.235 0.094,-0.059 0.2,-0.118 0.34,-0.152 0.141,-0.035 0.306,-0.059 0.493,-0.059 0.223,0 0.458,0.047 0.693,0.129 0.247,0.082 0.458,0.188 0.646,0.317 0.012,-0.083 0.035,-0.165 0.047,-0.247 0.012,-0.07 0.012,-0.152 0.012,-0.246 0,-0.105 -0.023,-0.212 -0.071,-0.307 -0.047,-0.081 -0.129,-0.163 -0.235,-0.223 -0.105,-0.059 -0.246,-0.117 -0.411,-0.139 -0.164,-0.037 -0.364,-0.061 -0.599,-0.061 -0.306,0 -0.587,0.047 -0.833,0.141 -0.258,0.095 -0.47,0.224 -0.646,0.376 -0.176,0.153 -0.317,0.34 -0.422,0.552 -0.094,0.2 -0.141,0.422 -0.141,0.657 0,0.341 0.094,0.622 0.27,0.869 0.188,0.247 0.446,0.446 0.787,0.587 l 0.587,0.246 c 0.2,0.083 0.364,0.165 0.481,0.235 0.129,0.082 0.234,0.153 0.317,0.235 0.07,0.081 0.129,0.163 0.165,0.246 0.036,0.083 0.047,0.177 0.047,0.281 0,0.212 -0.082,0.376 -0.247,0.518 -0.176,0.142 -0.422,0.211 -0.752,0.211 -0.316,0 -0.598,-0.058 -0.868,-0.188 -0.258,-0.118 -0.529,-0.305 -0.787,-0.553 -0.036,0.071 -0.059,0.143 -0.082,0.224 -0.012,0.094 -0.023,0.176 -0.023,0.259 0,0.316 0.117,0.562 0.363,0.716 0.235,0.164 0.611,0.247 1.127,0.247 0.329,0 0.634,-0.047 0.892,-0.142 0.269,-0.093 0.504,-0.222 0.692,-0.386 z" /><path
       style="fill:#000000"
       inkscape:connector-curvature="0"
       id="path39"
       d="m 87.054,87.142 c -0.153,0.059 -0.305,0.082 -0.481,0.082 -0.105,0 -0.211,-0.023 -0.293,-0.07 -0.094,-0.047 -0.164,-0.118 -0.223,-0.211 -0.071,-0.105 -0.117,-0.235 -0.153,-0.4 -0.036,-0.164 -0.047,-0.363 -0.047,-0.599 0,-0.223 0,-0.435 0,-0.657 0,-0.234 0.011,-0.47 0.011,-0.716 l 0.024,-1.479 h 1.503 l 0.083,-0.634 h -1.55 l 0.047,-1.058 -0.388,0.047 -1.268,1.257 v 0.388 h 0.646 l -0.035,1.562 c -0.012,0.271 -0.012,0.552 -0.023,0.856 -0.012,0.295 -0.012,0.588 -0.012,0.869 0,0.576 0.117,0.986 0.34,1.245 0.235,0.258 0.587,0.388 1.057,0.388 0.799,0 1.221,-0.353 1.269,-1.046 l -0.118,-0.047 c -0.119,0.093 -0.248,0.164 -0.389,0.223 z" /><path
       style="fill:#000000"
       inkscape:connector-curvature="0"
       id="path41"
       d="m 92.535,86.837 c -0.012,-0.061 -0.023,-0.105 -0.035,-0.13 -0.105,0.069 -0.235,0.142 -0.364,0.211 -0.141,0.059 -0.27,0.117 -0.422,0.153 -0.142,0.047 -0.282,0.082 -0.435,0.105 -0.153,0.023 -0.294,0.035 -0.435,0.035 -0.247,0 -0.47,-0.046 -0.681,-0.141 -0.211,-0.095 -0.399,-0.234 -0.552,-0.411 -0.153,-0.177 -0.282,-0.388 -0.376,-0.646 -0.082,-0.259 -0.128,-0.553 -0.128,-0.882 h 3.464 c 0.011,-0.14 0.011,-0.281 0.011,-0.399 0,-0.128 0,-0.233 0,-0.352 0,-0.34 -0.047,-0.634 -0.141,-0.916 -0.094,-0.269 -0.223,-0.492 -0.399,-0.692 -0.176,-0.188 -0.387,-0.328 -0.634,-0.433 -0.258,-0.105 -0.54,-0.154 -0.857,-0.154 -0.306,0 -0.61,0.07 -0.904,0.211 -0.293,0.13 -0.552,0.342 -0.775,0.6 -0.235,0.27 -0.422,0.599 -0.563,0.985 -0.141,0.399 -0.212,0.857 -0.212,1.363 0,0.41 0.071,0.785 0.188,1.114 0.129,0.329 0.305,0.611 0.528,0.846 0.223,0.235 0.47,0.411 0.775,0.539 0.293,0.131 0.599,0.189 0.939,0.189 0.305,0 0.587,-0.023 0.845,-0.083 0.247,-0.059 0.458,-0.129 0.635,-0.223 0.176,-0.095 0.305,-0.211 0.399,-0.329 0.094,-0.117 0.141,-0.246 0.141,-0.388 0,-0.055 0,-0.114 -0.012,-0.172 z m -3.287,-2.972 c 0.082,-0.2 0.176,-0.388 0.306,-0.54 0.117,-0.151 0.258,-0.282 0.422,-0.363 0.165,-0.094 0.317,-0.142 0.481,-0.142 0.165,0 0.329,0.036 0.47,0.105 0.153,0.071 0.27,0.177 0.376,0.317 0.105,0.141 0.188,0.317 0.247,0.527 0.059,0.212 0.093,0.459 0.093,0.752 h -2.512 c 0,-0.233 0.035,-0.444 0.117,-0.656 z" /><path
       style="fill:#000000"
       inkscape:connector-curvature="0"
       id="path43"
       d="m 96.432,82.21 c -0.2,0 -0.376,0.047 -0.541,0.131 -0.164,0.081 -0.34,0.21 -0.493,0.386 l -0.329,0.364 h -0.012 v -0.822 h -0.282 c -0.175,0 -0.387,0.012 -0.634,0.047 -0.247,0.035 -0.505,0.082 -0.775,0.164 v 0.26 l 0.763,0.316 v 3.968 c 0,0.07 -0.012,0.143 -0.047,0.2 -0.046,0.07 -0.093,0.129 -0.152,0.176 -0.059,0.059 -0.118,0.106 -0.2,0.153 -0.071,0.048 -0.141,0.081 -0.223,0.105 v 0.198 c 0.128,0.048 0.281,0.071 0.446,0.083 0.152,0.012 0.317,0.023 0.493,0.023 0.164,0 0.317,-0.012 0.458,-0.012 0.129,-0.012 0.258,-0.023 0.376,-0.035 0.117,-0.012 0.222,-0.035 0.316,-0.06 0.106,-0.022 0.211,-0.058 0.305,-0.093 v -0.223 l -0.81,-0.177 v -3.733 c 0.328,-0.317 0.669,-0.481 1.033,-0.481 0.129,0 0.247,0.024 0.375,0.071 0.129,0.046 0.247,0.116 0.353,0.198 0.059,-0.105 0.105,-0.222 0.141,-0.352 0.035,-0.13 0.047,-0.247 0.047,-0.353 0.002,-0.338 -0.198,-0.502 -0.608,-0.502 z" /><path
       style="fill:#000000"
       inkscape:connector-curvature="0"
       id="path45"
       d="m 98.283,87.023 c 0,0.07 -0.011,0.143 -0.047,0.2 -0.035,0.07 -0.082,0.129 -0.141,0.176 -0.058,0.059 -0.128,0.106 -0.199,0.153 -0.083,0.048 -0.153,0.081 -0.235,0.105 v 0.198 c 0.129,0.048 0.282,0.071 0.446,0.083 0.152,0.012 0.306,0.023 0.435,0.023 0.152,0 0.281,-0.012 0.411,-0.012 0.117,-0.012 0.235,-0.023 0.34,-0.035 0.118,-0.012 0.211,-0.035 0.317,-0.06 0.094,-0.022 0.188,-0.058 0.294,-0.093 V 87.538 L 99.246,87.361 V 82.9 l 0.059,-0.635 h -0.376 c -0.164,0 -0.375,0.012 -0.622,0.059 -0.247,0.036 -0.505,0.083 -0.775,0.164 v 0.248 l 0.751,0.316 v 3.971 z" /><path
       style="fill:#000000"
       inkscape:connector-curvature="0"
       id="path47"
       d="m 98.331,81.001 c 0.059,0.059 0.129,0.105 0.2,0.142 0.082,0.034 0.164,0.047 0.247,0.047 0.094,0 0.176,-0.013 0.258,-0.06 0.082,-0.036 0.153,-0.082 0.211,-0.153 0.059,-0.058 0.105,-0.14 0.141,-0.223 0.036,-0.094 0.047,-0.188 0.047,-0.294 0,-0.094 -0.012,-0.187 -0.047,-0.257 -0.035,-0.083 -0.07,-0.153 -0.129,-0.2 -0.059,-0.059 -0.129,-0.105 -0.199,-0.13 -0.071,-0.034 -0.153,-0.047 -0.235,-0.047 -0.106,0 -0.199,0.024 -0.281,0.06 -0.082,0.036 -0.153,0.082 -0.211,0.152 -0.058,0.07 -0.105,0.141 -0.129,0.224 -0.035,0.081 -0.047,0.165 -0.047,0.257 0,0.096 0.012,0.189 0.047,0.271 0.032,0.08 0.079,0.152 0.127,0.211 z" /><path
       style="fill:#000000"
       inkscape:connector-curvature="0"
       id="path49"
       d="m 104.599,87.729 c 0.176,-0.095 0.305,-0.211 0.399,-0.329 0.094,-0.117 0.142,-0.246 0.142,-0.388 0,-0.058 0,-0.117 -0.013,-0.175 -0.012,-0.061 -0.023,-0.105 -0.035,-0.13 -0.105,0.069 -0.235,0.142 -0.364,0.211 -0.141,0.059 -0.27,0.117 -0.423,0.153 -0.141,0.047 -0.282,0.082 -0.435,0.105 -0.153,0.023 -0.293,0.035 -0.434,0.035 -0.247,0 -0.47,-0.046 -0.681,-0.141 -0.211,-0.095 -0.399,-0.234 -0.552,-0.411 -0.153,-0.177 -0.282,-0.388 -0.376,-0.646 -0.082,-0.259 -0.129,-0.553 -0.129,-0.882 h 3.463 c 0.012,-0.14 0.012,-0.281 0.012,-0.399 0,-0.128 0,-0.233 0,-0.352 0,-0.34 -0.047,-0.634 -0.14,-0.916 -0.095,-0.269 -0.224,-0.492 -0.4,-0.692 -0.176,-0.188 -0.387,-0.328 -0.634,-0.433 -0.258,-0.105 -0.541,-0.154 -0.857,-0.154 -0.305,0 -0.61,0.07 -0.904,0.211 -0.293,0.13 -0.552,0.342 -0.775,0.6 -0.234,0.27 -0.422,0.599 -0.562,0.985 -0.141,0.399 -0.211,0.857 -0.211,1.363 0,0.41 0.07,0.785 0.188,1.114 0.129,0.329 0.305,0.611 0.528,0.846 0.222,0.235 0.469,0.411 0.774,0.539 0.293,0.131 0.599,0.189 0.94,0.189 0.304,0 0.586,-0.023 0.845,-0.083 0.246,-0.056 0.457,-0.127 0.634,-0.22 z m -2.76,-3.864 c 0.083,-0.2 0.176,-0.388 0.306,-0.54 0.117,-0.151 0.258,-0.282 0.423,-0.363 0.164,-0.094 0.317,-0.142 0.481,-0.142 0.165,0 0.329,0.036 0.47,0.105 0.152,0.071 0.27,0.177 0.375,0.317 0.105,0.141 0.188,0.317 0.247,0.527 0.059,0.212 0.094,0.459 0.094,0.752 h -2.512 c -0.001,-0.233 0.034,-0.444 0.116,-0.656 z" /><polygon
       style="fill:#000000"
       id="polygon51"
       points="113.178,82.269 111.357,82.269 111.357,82.551 112.039,82.868 110.736,86.555 110.724,86.555 109.444,82.833 110.113,82.551 110.113,82.269 107.882,82.269 107.882,82.551 108.364,82.892 110.348,88.022 110.759,87.999 112.837,82.82 113.178,82.551 " /><path
       style="fill:#000000"
       inkscape:connector-curvature="0"
       id="path53"
       d="m 117.472,86.849 0.036,-1.902 c 0,-0.083 0.012,-0.188 0.012,-0.294 0,-0.106 0.012,-0.224 0.012,-0.329 0.012,-0.118 0.012,-0.223 0.012,-0.316 0.012,-0.106 0.012,-0.188 0.012,-0.246 0,-0.247 -0.047,-0.47 -0.129,-0.658 -0.082,-0.188 -0.211,-0.352 -0.375,-0.494 -0.165,-0.14 -0.353,-0.234 -0.587,-0.316 -0.235,-0.07 -0.505,-0.105 -0.798,-0.105 -0.341,0 -0.634,0.023 -0.881,0.082 -0.247,0.047 -0.446,0.129 -0.599,0.234 -0.152,0.094 -0.27,0.224 -0.34,0.365 -0.07,0.151 -0.106,0.317 -0.106,0.504 0,0.13 0.012,0.248 0.036,0.354 0.247,-0.248 0.528,-0.435 0.821,-0.564 0.305,-0.13 0.61,-0.199 0.939,-0.199 0.188,0 0.341,0.023 0.469,0.058 0.142,0.048 0.247,0.13 0.329,0.235 0.083,0.117 0.141,0.27 0.188,0.471 0.035,0.199 0.059,0.457 0.059,0.774 v 0.316 c -0.481,0 -0.916,0.059 -1.292,0.152 -0.375,0.105 -0.693,0.247 -0.951,0.423 -0.27,0.177 -0.469,0.376 -0.599,0.61 -0.141,0.224 -0.211,0.47 -0.211,0.729 0,0.187 0.036,0.362 0.106,0.516 0.082,0.164 0.176,0.306 0.317,0.423 0.129,0.117 0.282,0.199 0.47,0.27 0.176,0.06 0.375,0.095 0.598,0.095 0.153,0 0.306,-0.012 0.458,-0.047 0.165,-0.024 0.306,-0.06 0.447,-0.118 0.141,-0.047 0.258,-0.105 0.387,-0.176 0.118,-0.07 0.211,-0.141 0.293,-0.224 0.07,0.118 0.152,0.224 0.235,0.329 0.094,0.094 0.188,0.177 0.305,0.248 0.153,-0.071 0.305,-0.166 0.446,-0.283 0.152,-0.105 0.271,-0.211 0.353,-0.317 -0.105,-0.082 -0.2,-0.175 -0.282,-0.28 -0.084,-0.109 -0.142,-0.215 -0.19,-0.32 z m -0.892,0.163 c -0.071,0.048 -0.152,0.082 -0.247,0.118 -0.094,0.047 -0.188,0.082 -0.293,0.105 -0.095,0.024 -0.2,0.047 -0.306,0.07 -0.094,0.011 -0.188,0.023 -0.282,0.023 -0.305,0 -0.528,-0.069 -0.681,-0.211 -0.152,-0.142 -0.234,-0.329 -0.234,-0.563 0,-0.164 0.047,-0.306 0.129,-0.458 0.094,-0.142 0.223,-0.271 0.399,-0.376 0.164,-0.106 0.375,-0.188 0.634,-0.259 0.258,-0.059 0.552,-0.093 0.88,-0.093 v 1.644 z" /><path
       style="fill:#000000"
       inkscape:connector-curvature="0"
       id="path55"
       d="m 123.821,84.077 c 0,-0.294 -0.047,-0.563 -0.117,-0.798 -0.083,-0.224 -0.2,-0.411 -0.34,-0.564 -0.143,-0.153 -0.317,-0.27 -0.518,-0.352 -0.199,-0.083 -0.423,-0.118 -0.669,-0.118 -0.341,0 -0.67,0.059 -0.975,0.177 -0.306,0.117 -0.564,0.281 -0.763,0.481 v -0.635 h -0.282 c -0.176,0 -0.388,0.012 -0.634,0.047 -0.246,0.035 -0.505,0.082 -0.774,0.164 v 0.26 l 0.763,0.316 v 3.968 c 0,0.07 -0.012,0.143 -0.047,0.2 -0.047,0.07 -0.094,0.129 -0.152,0.176 -0.059,0.059 -0.118,0.106 -0.201,0.153 -0.069,0.048 -0.14,0.081 -0.222,0.105 v 0.198 c 0.128,0.048 0.281,0.071 0.434,0.083 0.153,0.012 0.305,0.023 0.446,0.023 0.153,0 0.282,-0.012 0.399,-0.012 0.129,-0.012 0.247,-0.023 0.353,-0.035 0.106,-0.012 0.21,-0.035 0.316,-0.06 0.095,-0.022 0.188,-0.058 0.293,-0.093 v -0.223 l -0.656,-0.177 v -3.945 c 0.129,-0.094 0.305,-0.188 0.528,-0.258 0.211,-0.07 0.445,-0.105 0.681,-0.105 0.177,0 0.327,0.023 0.481,0.082 0.141,0.06 0.258,0.153 0.363,0.281 0.106,0.118 0.189,0.282 0.246,0.493 0.049,0.2 0.083,0.446 0.083,0.729 v 2.241 c 0,0.212 -0.034,0.378 -0.105,0.495 -0.059,0.129 -0.165,0.211 -0.317,0.281 v 0.198 c 0.117,0.048 0.247,0.071 0.377,0.083 0.14,0.012 0.269,0.023 0.386,0.023 0.494,0 0.905,-0.07 1.234,-0.199 v -0.223 l -0.611,-0.177 v -3.283 z" /><path
       style="fill:#000000"
       inkscape:connector-curvature="0"
       id="path57"
       d="m 133.34,81.2 c -0.271,-0.305 -0.599,-0.54 -0.987,-0.703 -0.376,-0.166 -0.774,-0.248 -1.21,-0.248 -0.305,0 -0.598,0.048 -0.892,0.13 -0.306,0.093 -0.575,0.224 -0.834,0.387 -0.27,0.165 -0.504,0.364 -0.739,0.601 -0.224,0.233 -0.41,0.504 -0.575,0.809 -0.153,0.305 -0.282,0.634 -0.376,0.999 -0.081,0.363 -0.129,0.738 -0.129,1.149 0,0.588 0.082,1.104 0.246,1.562 0.164,0.47 0.388,0.858 0.67,1.175 0.281,0.317 0.61,0.563 0.998,0.739 0.375,0.177 0.774,0.26 1.209,0.26 0.471,0 0.916,-0.096 1.351,-0.295 0.422,-0.188 0.798,-0.47 1.126,-0.834 0.318,-0.364 0.577,-0.811 0.764,-1.339 0.2,-0.528 0.294,-1.138 0.294,-1.808 0,-0.54 -0.082,-1.032 -0.246,-1.468 -0.166,-0.434 -0.389,-0.81 -0.67,-1.116 z m -0.424,4.275 c -0.128,0.41 -0.306,0.762 -0.517,1.033 -0.223,0.269 -0.457,0.469 -0.728,0.599 -0.27,0.141 -0.552,0.199 -0.834,0.199 -0.271,0 -0.528,-0.059 -0.775,-0.199 -0.246,-0.13 -0.468,-0.33 -0.656,-0.587 -0.2,-0.259 -0.353,-0.588 -0.47,-0.975 -0.117,-0.388 -0.176,-0.845 -0.176,-1.362 0,-0.517 0.07,-0.962 0.188,-1.362 0.129,-0.398 0.306,-0.728 0.517,-0.997 0.211,-0.271 0.446,-0.471 0.716,-0.611 0.271,-0.141 0.552,-0.211 0.834,-0.211 0.27,0 0.528,0.059 0.786,0.176 0.247,0.117 0.47,0.307 0.67,0.551 0.188,0.248 0.34,0.553 0.457,0.929 0.118,0.375 0.177,0.821 0.177,1.339 -10e-4,0.562 -0.059,1.055 -0.189,1.478 z" /><path
       style="fill:#000000"
       inkscape:connector-curvature="0"
       id="path59"
       d="m 140.181,84.077 c 0,-0.294 -0.047,-0.563 -0.117,-0.798 -0.082,-0.224 -0.199,-0.411 -0.341,-0.564 -0.141,-0.153 -0.316,-0.27 -0.517,-0.352 -0.199,-0.083 -0.422,-0.118 -0.669,-0.118 -0.341,0 -0.67,0.059 -0.975,0.177 -0.306,0.117 -0.563,0.281 -0.763,0.481 v -0.635 h -0.282 c -0.177,0 -0.388,0.012 -0.635,0.047 -0.245,0.035 -0.505,0.082 -0.774,0.164 v 0.26 l 0.763,0.316 v 3.968 c 0,0.07 -0.012,0.143 -0.047,0.2 -0.047,0.07 -0.093,0.129 -0.151,0.176 -0.06,0.059 -0.118,0.106 -0.199,0.153 -0.071,0.048 -0.143,0.081 -0.224,0.105 v 0.198 c 0.128,0.048 0.282,0.071 0.435,0.083 0.153,0.012 0.305,0.023 0.445,0.023 0.153,0 0.282,-0.012 0.399,-0.012 0.13,-0.012 0.246,-0.023 0.352,-0.035 0.106,-0.012 0.211,-0.035 0.318,-0.06 0.094,-0.022 0.188,-0.058 0.293,-0.093 v -0.223 l -0.657,-0.177 v -3.945 c 0.129,-0.094 0.306,-0.188 0.527,-0.258 0.212,-0.07 0.446,-0.105 0.682,-0.105 0.176,0 0.329,0.023 0.481,0.082 0.141,0.06 0.259,0.153 0.363,0.281 0.106,0.118 0.188,0.282 0.247,0.493 0.048,0.2 0.082,0.446 0.082,0.729 v 2.241 c 0,0.212 -0.034,0.378 -0.105,0.495 -0.059,0.129 -0.165,0.211 -0.316,0.281 v 0.198 c 0.117,0.048 0.246,0.071 0.375,0.083 0.141,0.012 0.271,0.023 0.389,0.023 0.492,0 0.903,-0.07 1.232,-0.199 v -0.223 l -0.611,-0.177 v -3.283 z" /><path
       style="fill:#000000"
       inkscape:connector-curvature="0"
       id="path61"
       d="m 146.177,86.812 v -6.726 l 0.071,-0.659 h -0.376 c -0.177,0 -0.388,0.023 -0.658,0.046 -0.257,0.036 -0.527,0.084 -0.798,0.166 v 0.258 l 0.798,0.317 v 2.065 c -0.093,-0.023 -0.223,-0.045 -0.375,-0.059 -0.152,-0.012 -0.293,-0.023 -0.435,-0.023 -0.387,0 -0.739,0.07 -1.079,0.212 -0.341,0.141 -0.646,0.353 -0.894,0.633 -0.258,0.271 -0.456,0.612 -0.609,1.022 -0.153,0.399 -0.223,0.869 -0.223,1.396 0,0.389 0.059,0.74 0.164,1.058 0.116,0.317 0.271,0.587 0.457,0.81 0.199,0.212 0.423,0.388 0.682,0.505 0.258,0.117 0.539,0.177 0.834,0.177 0.117,0 0.245,-0.012 0.387,-0.048 0.141,-0.035 0.271,-0.082 0.411,-0.141 0.13,-0.059 0.258,-0.129 0.376,-0.211 0.129,-0.082 0.234,-0.177 0.328,-0.271 0.059,0.117 0.142,0.247 0.234,0.376 0.106,0.128 0.212,0.234 0.329,0.33 0.164,-0.084 0.316,-0.178 0.446,-0.26 0.13,-0.094 0.258,-0.187 0.375,-0.293 -0.117,-0.095 -0.199,-0.212 -0.27,-0.328 -0.069,-0.117 -0.127,-0.234 -0.175,-0.352 z m -0.95,0.059 c -0.071,0.059 -0.141,0.105 -0.235,0.152 -0.094,0.048 -0.188,0.083 -0.293,0.118 -0.105,0.035 -0.211,0.059 -0.329,0.082 -0.117,0.012 -0.223,0.023 -0.34,0.023 -0.188,0 -0.364,-0.035 -0.529,-0.129 -0.175,-0.083 -0.316,-0.212 -0.445,-0.375 -0.129,-0.166 -0.234,-0.377 -0.316,-0.624 -0.083,-0.245 -0.118,-0.528 -0.118,-0.845 0,-0.411 0.047,-0.763 0.13,-1.069 0.094,-0.305 0.211,-0.55 0.362,-0.751 0.165,-0.199 0.354,-0.352 0.564,-0.445 0.211,-0.105 0.446,-0.152 0.692,-0.152 0.165,0 0.317,0.012 0.47,0.035 0.164,0.034 0.294,0.059 0.388,0.094 v 3.886 z" /><path
       style="fill:#000000"
       inkscape:connector-curvature="0"
       id="path63"
       d="m 151.47,82.773 c -0.176,-0.188 -0.388,-0.328 -0.634,-0.433 -0.258,-0.105 -0.54,-0.154 -0.856,-0.154 -0.305,0 -0.611,0.07 -0.905,0.211 -0.293,0.13 -0.551,0.342 -0.773,0.6 -0.235,0.27 -0.423,0.599 -0.564,0.985 -0.141,0.399 -0.211,0.857 -0.211,1.363 0,0.41 0.07,0.785 0.188,1.114 0.13,0.329 0.305,0.611 0.528,0.846 0.223,0.235 0.471,0.411 0.774,0.539 0.294,0.131 0.601,0.189 0.939,0.189 0.306,0 0.587,-0.023 0.847,-0.083 0.245,-0.059 0.457,-0.129 0.633,-0.223 0.177,-0.095 0.306,-0.211 0.399,-0.329 0.095,-0.117 0.142,-0.246 0.142,-0.388 0,-0.058 0,-0.117 -0.012,-0.175 -0.012,-0.061 -0.024,-0.105 -0.035,-0.13 -0.105,0.069 -0.236,0.142 -0.365,0.211 -0.141,0.059 -0.27,0.117 -0.423,0.153 -0.14,0.047 -0.28,0.082 -0.435,0.105 -0.151,0.023 -0.293,0.035 -0.434,0.035 -0.246,0 -0.47,-0.046 -0.681,-0.141 -0.212,-0.095 -0.398,-0.234 -0.553,-0.411 -0.152,-0.177 -0.28,-0.388 -0.375,-0.646 -0.082,-0.259 -0.129,-0.553 -0.129,-0.882 h 3.463 c 0.013,-0.14 0.013,-0.281 0.013,-0.399 0,-0.128 0,-0.233 0,-0.352 0,-0.34 -0.047,-0.634 -0.141,-0.916 -0.095,-0.265 -0.224,-0.488 -0.4,-0.689 z m -2.912,1.749 c 0,-0.234 0.036,-0.445 0.118,-0.657 0.083,-0.2 0.176,-0.388 0.306,-0.54 0.117,-0.151 0.259,-0.282 0.423,-0.363 0.164,-0.094 0.316,-0.142 0.48,-0.142 0.165,0 0.329,0.036 0.47,0.105 0.153,0.071 0.271,0.177 0.376,0.317 0.105,0.14 0.188,0.317 0.246,0.527 0.059,0.212 0.096,0.459 0.096,0.752 h -2.515 z" /><path
       style="fill:#000000"
       inkscape:connector-curvature="0"
       id="path65"
       d="m 155.857,82.21 c -0.199,0 -0.375,0.047 -0.54,0.131 -0.164,0.081 -0.34,0.21 -0.492,0.386 l -0.329,0.364 h -0.012 v -0.822 h -0.281 c -0.177,0 -0.388,0.012 -0.635,0.047 -0.245,0.035 -0.506,0.082 -0.774,0.164 v 0.26 l 0.763,0.316 v 3.968 c 0,0.07 -0.012,0.143 -0.047,0.2 -0.047,0.07 -0.094,0.129 -0.152,0.176 -0.059,0.059 -0.117,0.106 -0.199,0.153 -0.07,0.048 -0.142,0.081 -0.223,0.105 v 0.198 c 0.127,0.048 0.281,0.071 0.446,0.083 0.152,0.012 0.316,0.023 0.492,0.023 0.164,0 0.317,-0.012 0.458,-0.012 0.128,-0.012 0.259,-0.023 0.376,-0.035 0.117,-0.012 0.223,-0.035 0.316,-0.06 0.106,-0.022 0.212,-0.058 0.305,-0.093 v -0.223 l -0.81,-0.177 v -3.733 c 0.328,-0.317 0.67,-0.481 1.033,-0.481 0.13,0 0.246,0.024 0.376,0.071 0.129,0.046 0.246,0.116 0.352,0.198 0.06,-0.105 0.106,-0.222 0.142,-0.352 0.036,-0.13 0.047,-0.247 0.047,-0.353 0,-0.338 -0.2,-0.502 -0.612,-0.502 z" /><polygon
       style="fill:#000000"
       id="polygon67"
       points="162.455,86.589 161.398,82.809 161.738,82.551 161.738,82.269 159.742,82.269 159.742,82.551 160.388,82.856 159.226,86.601 159.214,86.601 158.17,82.833 158.839,82.551 158.839,82.269 156.572,82.269 156.572,82.551 157.078,82.903 158.827,88.022 159.355,87.999 160.718,83.701 160.729,83.701 162.021,88.022 162.514,87.999 164.485,82.809 164.814,82.551 164.814,82.269 162.995,82.269 162.995,82.551 163.676,82.868 162.468,86.589 " /><path
       style="fill:#000000"
       inkscape:connector-curvature="0"
       id="path69"
       d="m 165.938,81.001 c 0.06,0.059 0.13,0.105 0.201,0.142 0.081,0.034 0.164,0.047 0.246,0.047 0.094,0 0.177,-0.013 0.259,-0.06 0.082,-0.036 0.151,-0.082 0.21,-0.153 0.06,-0.058 0.106,-0.14 0.143,-0.223 0.035,-0.094 0.047,-0.188 0.047,-0.294 0,-0.094 -0.012,-0.187 -0.047,-0.257 -0.036,-0.083 -0.071,-0.153 -0.13,-0.2 -0.059,-0.059 -0.13,-0.105 -0.199,-0.13 -0.07,-0.034 -0.152,-0.047 -0.235,-0.047 -0.105,0 -0.2,0.024 -0.282,0.06 -0.082,0.036 -0.152,0.082 -0.212,0.152 -0.059,0.07 -0.105,0.141 -0.128,0.224 -0.036,0.081 -0.046,0.165 -0.046,0.257 0,0.096 0.01,0.189 0.046,0.271 0.033,0.08 0.08,0.152 0.127,0.211 z" /><path
       style="fill:#000000"
       inkscape:connector-curvature="0"
       id="path71"
       d="m 166.854,82.903 0.06,-0.635 h -0.375 c -0.165,0 -0.377,0.012 -0.623,0.059 -0.247,0.036 -0.505,0.083 -0.775,0.164 v 0.248 l 0.751,0.316 v 3.968 c 0,0.07 -0.012,0.143 -0.047,0.2 -0.034,0.07 -0.08,0.129 -0.14,0.176 -0.059,0.059 -0.13,0.106 -0.201,0.153 -0.081,0.048 -0.152,0.081 -0.233,0.105 v 0.198 c 0.128,0.048 0.282,0.071 0.445,0.083 0.153,0.012 0.306,0.023 0.435,0.023 0.153,0 0.282,-0.012 0.412,-0.012 0.117,-0.012 0.233,-0.023 0.34,-0.035 0.117,-0.012 0.21,-0.035 0.315,-0.06 0.096,-0.022 0.189,-0.058 0.295,-0.093 v -0.223 l -0.658,-0.177 v -4.458 z" /><path
       style="fill:#000000"
       inkscape:connector-curvature="0"
       id="path73"
       d="m 169.947,80.003 c -0.06,-0.059 -0.119,-0.105 -0.202,-0.13 -0.068,-0.034 -0.151,-0.047 -0.223,-0.047 -0.105,0 -0.199,0.024 -0.28,0.06 -0.083,0.035 -0.154,0.082 -0.212,0.152 -0.059,0.07 -0.106,0.141 -0.142,0.224 -0.023,0.081 -0.035,0.165 -0.035,0.257 0,0.096 0.012,0.189 0.047,0.271 0.023,0.081 0.071,0.153 0.13,0.212 0.058,0.059 0.116,0.105 0.2,0.142 0.07,0.034 0.152,0.047 0.245,0.047 0.094,0 0.177,-0.013 0.258,-0.06 0.083,-0.036 0.143,-0.082 0.214,-0.153 0.057,-0.058 0.093,-0.14 0.127,-0.223 0.035,-0.094 0.047,-0.188 0.047,-0.294 0,-0.094 -0.012,-0.187 -0.047,-0.257 -0.034,-0.084 -0.07,-0.154 -0.127,-0.201 z" /><path
       style="fill:#000000"
       inkscape:connector-curvature="0"
       id="path75"
       d="m 169.007,82.327 c -0.247,0.036 -0.505,0.083 -0.775,0.164 v 0.248 l 0.752,0.316 v 5.412 c 0,0.294 -0.035,0.553 -0.095,0.775 -0.047,0.223 -0.129,0.411 -0.223,0.563 -0.094,0.153 -0.212,0.259 -0.329,0.341 -0.129,0.07 -0.258,0.105 -0.387,0.105 v 0.188 c 0.081,0.094 0.176,0.165 0.293,0.212 0.117,0.048 0.234,0.07 0.376,0.07 0.176,0 0.353,-0.034 0.517,-0.117 0.165,-0.083 0.306,-0.223 0.424,-0.423 0.117,-0.199 0.21,-0.458 0.28,-0.774 0.07,-0.329 0.107,-0.729 0.107,-1.21 v -5.272 l 0.068,-0.657 h -0.388 c -0.163,0.001 -0.375,0.012 -0.62,0.059 z" /><path
       style="fill:#000000"
       inkscape:connector-curvature="0"
       id="path77"
       d="m 174.641,85.439 c -0.094,-0.118 -0.224,-0.224 -0.364,-0.317 -0.152,-0.094 -0.329,-0.188 -0.54,-0.271 l -0.634,-0.246 c -0.177,-0.071 -0.329,-0.129 -0.447,-0.2 -0.115,-0.059 -0.211,-0.129 -0.28,-0.211 -0.071,-0.07 -0.117,-0.14 -0.154,-0.235 -0.021,-0.082 -0.034,-0.176 -0.034,-0.281 0,-0.094 0.024,-0.188 0.059,-0.281 0.047,-0.083 0.118,-0.165 0.212,-0.235 0.093,-0.059 0.198,-0.118 0.341,-0.152 0.14,-0.035 0.305,-0.059 0.493,-0.059 0.222,0 0.458,0.047 0.692,0.129 0.246,0.082 0.457,0.188 0.646,0.317 0.012,-0.083 0.035,-0.165 0.047,-0.247 0.012,-0.07 0.012,-0.152 0.012,-0.246 0,-0.105 -0.023,-0.212 -0.07,-0.307 -0.047,-0.081 -0.13,-0.163 -0.235,-0.223 -0.105,-0.059 -0.245,-0.117 -0.41,-0.139 -0.164,-0.037 -0.364,-0.061 -0.599,-0.061 -0.306,0 -0.588,0.047 -0.833,0.141 -0.26,0.095 -0.471,0.224 -0.646,0.376 -0.177,0.153 -0.317,0.34 -0.423,0.552 -0.095,0.2 -0.142,0.422 -0.142,0.657 0,0.341 0.094,0.622 0.271,0.869 0.188,0.247 0.446,0.446 0.786,0.587 l 0.587,0.246 c 0.2,0.083 0.365,0.165 0.481,0.235 0.13,0.082 0.236,0.153 0.318,0.235 0.069,0.081 0.128,0.163 0.162,0.246 0.037,0.083 0.049,0.177 0.049,0.281 0,0.212 -0.083,0.376 -0.247,0.518 -0.177,0.142 -0.422,0.211 -0.752,0.211 -0.317,0 -0.599,-0.058 -0.869,-0.188 -0.258,-0.118 -0.527,-0.305 -0.786,-0.553 -0.035,0.071 -0.059,0.143 -0.081,0.224 -0.013,0.094 -0.024,0.176 -0.024,0.259 0,0.316 0.117,0.562 0.364,0.716 0.234,0.164 0.611,0.247 1.127,0.247 0.329,0 0.634,-0.047 0.893,-0.142 0.271,-0.094 0.505,-0.223 0.693,-0.387 0.187,-0.153 0.34,-0.34 0.445,-0.541 0.105,-0.211 0.153,-0.435 0.153,-0.656 0,-0.166 -0.024,-0.329 -0.059,-0.471 -0.049,-0.139 -0.12,-0.268 -0.202,-0.397 z" /><path
       style="fill:#000000"
       inkscape:connector-curvature="0"
       id="path79"
       d="m 176.835,86.577 c -0.059,0 -0.13,0.012 -0.201,0.048 -0.069,0.023 -0.14,0.059 -0.198,0.106 -0.071,0.045 -0.13,0.093 -0.188,0.163 -0.059,0.06 -0.118,0.129 -0.165,0.199 l 0.411,0.518 c 0,0.34 -0.059,0.658 -0.188,0.928 -0.116,0.27 -0.305,0.54 -0.539,0.787 l 0.316,0.082 c 0.13,-0.035 0.271,-0.118 0.423,-0.247 0.165,-0.117 0.316,-0.281 0.457,-0.471 0.143,-0.199 0.259,-0.421 0.353,-0.668 0.105,-0.247 0.153,-0.505 0.153,-0.775 0,-0.2 -0.06,-0.365 -0.177,-0.493 -0.117,-0.117 -0.27,-0.177 -0.457,-0.177 z" /><path
       style="fill:#000000"
       inkscape:connector-curvature="0"
       id="path81"
       d="m 185.736,86.425 c -0.129,0.307 -0.306,0.54 -0.54,0.693 -0.247,0.142 -0.575,0.211 -1.01,0.211 -0.271,0 -0.54,-0.058 -0.81,-0.188 -0.259,-0.118 -0.493,-0.305 -0.694,-0.564 -0.21,-0.258 -0.375,-0.575 -0.493,-0.975 -0.127,-0.398 -0.187,-0.869 -0.187,-1.408 0,-0.505 0.06,-0.963 0.199,-1.361 0.13,-0.399 0.294,-0.74 0.505,-1.01 0.212,-0.282 0.458,-0.482 0.729,-0.634 0.281,-0.142 0.563,-0.213 0.856,-0.213 0.211,0 0.388,0.024 0.54,0.06 0.152,0.036 0.282,0.094 0.388,0.176 0.106,0.082 0.199,0.188 0.27,0.317 0.071,0.129 0.142,0.282 0.177,0.47 l 0.047,0.211 h 0.317 l 0.094,-1.632 c -0.212,-0.106 -0.446,-0.188 -0.729,-0.235 -0.27,-0.058 -0.61,-0.081 -1.009,-0.081 -0.307,0 -0.611,0.046 -0.904,0.129 -0.294,0.095 -0.575,0.224 -0.834,0.387 -0.27,0.165 -0.505,0.365 -0.728,0.599 -0.212,0.246 -0.412,0.518 -0.564,0.822 -0.164,0.293 -0.282,0.635 -0.375,0.999 -0.081,0.352 -0.13,0.739 -0.13,1.149 0,0.61 0.083,1.15 0.26,1.608 0.165,0.47 0.397,0.857 0.681,1.163 0.293,0.316 0.621,0.552 1.009,0.704 0.376,0.153 0.786,0.236 1.21,0.236 0.445,0 0.846,-0.036 1.197,-0.096 0.341,-0.07 0.622,-0.164 0.846,-0.27 l 0.116,-1.551 h -0.316 l -0.118,0.284 z" /><path
       style="fill:#000000"
       inkscape:connector-curvature="0"
       id="path83"
       d="m 191.897,86.882 v -3.968 l 0.071,-0.657 h -0.388 c -0.165,0 -0.363,0.012 -0.587,0.059 -0.224,0.035 -0.471,0.082 -0.739,0.164 v 0.247 l 0.681,0.329 v 3.804 c -0.071,0.047 -0.143,0.095 -0.224,0.129 -0.094,0.035 -0.188,0.071 -0.282,0.105 -0.105,0.036 -0.211,0.06 -0.317,0.072 -0.117,0.022 -0.223,0.034 -0.328,0.034 -0.188,0 -0.352,-0.023 -0.493,-0.082 -0.141,-0.059 -0.259,-0.142 -0.364,-0.27 -0.094,-0.129 -0.165,-0.294 -0.211,-0.507 -0.047,-0.199 -0.071,-0.457 -0.071,-0.773 v -2.654 l 0.071,-0.657 h -0.388 c -0.164,0 -0.352,0.012 -0.575,0.059 -0.224,0.035 -0.469,0.082 -0.739,0.164 v 0.247 l 0.669,0.329 v 3.005 c 0,0.342 0.035,0.623 0.105,0.869 0.082,0.247 0.188,0.447 0.329,0.6 0.141,0.164 0.317,0.27 0.517,0.352 0.199,0.07 0.423,0.106 0.669,0.106 0.188,0 0.363,-0.012 0.528,-0.06 0.176,-0.035 0.329,-0.094 0.481,-0.152 0.152,-0.058 0.282,-0.129 0.399,-0.199 0.117,-0.07 0.211,-0.142 0.282,-0.212 0.059,0.13 0.128,0.259 0.224,0.375 0.105,0.117 0.211,0.224 0.327,0.308 0.07,-0.036 0.153,-0.071 0.223,-0.119 0.082,-0.047 0.153,-0.094 0.225,-0.141 0.07,-0.048 0.14,-0.094 0.198,-0.153 0.06,-0.046 0.105,-0.093 0.153,-0.14 -0.094,-0.095 -0.176,-0.2 -0.258,-0.306 -0.082,-0.106 -0.14,-0.212 -0.188,-0.307 z" /><path
       style="fill:#000000"
       inkscape:connector-curvature="0"
       id="path85"
       d="m 194.936,80.087 0.059,-0.659 h -0.376 c -0.081,0 -0.176,0.013 -0.281,0.013 -0.106,0.011 -0.223,0.022 -0.34,0.033 -0.13,0.024 -0.259,0.049 -0.388,0.072 -0.13,0.023 -0.271,0.057 -0.4,0.094 v 0.258 l 0.764,0.317 v 6.809 c 0,0.07 -0.012,0.143 -0.047,0.2 -0.047,0.07 -0.094,0.129 -0.153,0.176 -0.059,0.059 -0.117,0.106 -0.198,0.153 -0.07,0.048 -0.142,0.081 -0.224,0.105 v 0.198 c 0.129,0.048 0.282,0.071 0.435,0.083 0.153,0.012 0.305,0.023 0.445,0.023 0.154,0 0.282,-0.012 0.399,-0.012 0.13,-0.012 0.247,-0.023 0.352,-0.035 0.106,-0.012 0.213,-0.035 0.317,-0.06 0.095,-0.022 0.188,-0.058 0.294,-0.093 v -0.223 l -0.657,-0.177 v -7.275 z" /><path
       style="fill:#000000"
       inkscape:connector-curvature="0"
       id="path87"
       d="m 199.102,87.142 c -0.152,0.059 -0.304,0.082 -0.48,0.082 -0.106,0 -0.212,-0.023 -0.294,-0.07 -0.094,-0.047 -0.164,-0.118 -0.224,-0.211 -0.07,-0.105 -0.117,-0.235 -0.151,-0.4 -0.036,-0.164 -0.048,-0.363 -0.048,-0.599 0,-0.223 0,-0.435 0,-0.657 0,-0.234 0.012,-0.47 0.012,-0.716 l 0.023,-1.479 h 1.503 l 0.082,-0.634 h -1.55 l 0.047,-1.058 -0.387,0.047 -1.269,1.257 v 0.388 h 0.646 l -0.035,1.562 c -0.012,0.271 -0.012,0.552 -0.024,0.856 -0.012,0.295 -0.012,0.588 -0.012,0.869 0,0.576 0.117,0.986 0.341,1.245 0.235,0.258 0.587,0.388 1.057,0.388 0.8,0 1.222,-0.353 1.268,-1.046 l -0.117,-0.047 c -0.119,0.093 -0.246,0.164 -0.388,0.223 z" /><path
       style="fill:#000000"
       inkscape:connector-curvature="0"
       id="path89"
       d="m 204.911,86.882 v -3.968 l 0.071,-0.657 h -0.388 c -0.164,0 -0.363,0.012 -0.587,0.059 -0.223,0.035 -0.47,0.082 -0.74,0.164 v 0.247 l 0.682,0.329 v 3.804 c -0.07,0.047 -0.141,0.095 -0.223,0.129 -0.095,0.035 -0.188,0.071 -0.283,0.105 -0.105,0.036 -0.211,0.06 -0.316,0.072 -0.118,0.022 -0.223,0.034 -0.329,0.034 -0.187,0 -0.352,-0.023 -0.493,-0.082 -0.141,-0.059 -0.258,-0.142 -0.363,-0.27 -0.095,-0.129 -0.165,-0.294 -0.212,-0.507 -0.047,-0.199 -0.07,-0.457 -0.07,-0.773 v -2.654 l 0.07,-0.657 h -0.388 c -0.164,0 -0.352,0.012 -0.574,0.059 -0.224,0.035 -0.47,0.082 -0.74,0.164 v 0.247 l 0.669,0.329 v 3.005 c 0,0.342 0.036,0.623 0.105,0.869 0.083,0.247 0.188,0.447 0.329,0.6 0.142,0.164 0.316,0.27 0.518,0.352 0.198,0.07 0.422,0.106 0.668,0.106 0.188,0 0.363,-0.012 0.528,-0.06 0.177,-0.035 0.328,-0.094 0.481,-0.152 0.154,-0.059 0.282,-0.129 0.4,-0.199 0.117,-0.07 0.211,-0.142 0.281,-0.212 0.059,0.13 0.129,0.259 0.224,0.375 0.105,0.117 0.211,0.224 0.328,0.308 0.07,-0.036 0.153,-0.071 0.223,-0.119 0.083,-0.047 0.152,-0.094 0.224,-0.141 0.07,-0.048 0.142,-0.094 0.199,-0.153 0.059,-0.046 0.105,-0.093 0.153,-0.14 -0.095,-0.095 -0.177,-0.2 -0.259,-0.306 -0.082,-0.106 -0.141,-0.212 -0.188,-0.307 z" /><path
       style="fill:#000000"
       inkscape:connector-curvature="0"
       id="path91"
       d="m 211.085,86.882 v -3.968 l 0.07,-0.657 h -0.388 c -0.164,0 -0.364,0.012 -0.587,0.059 -0.224,0.035 -0.47,0.082 -0.74,0.164 v 0.247 l 0.682,0.329 v 3.804 c -0.07,0.047 -0.142,0.095 -0.224,0.129 -0.094,0.035 -0.188,0.071 -0.281,0.105 -0.106,0.036 -0.212,0.06 -0.317,0.072 -0.117,0.022 -0.224,0.034 -0.329,0.034 -0.187,0 -0.352,-0.023 -0.492,-0.082 -0.14,-0.059 -0.26,-0.142 -0.365,-0.27 -0.094,-0.129 -0.164,-0.294 -0.211,-0.507 -0.047,-0.199 -0.07,-0.457 -0.07,-0.773 v -2.654 l 0.07,-0.657 h -0.388 c -0.165,0 -0.352,0.012 -0.575,0.059 -0.223,0.035 -0.47,0.082 -0.738,0.164 v 0.247 l 0.668,0.329 v 3.005 c 0,0.342 0.035,0.623 0.105,0.869 0.083,0.247 0.188,0.447 0.329,0.6 0.142,0.164 0.316,0.27 0.518,0.352 0.198,0.07 0.421,0.106 0.669,0.106 0.188,0 0.363,-0.012 0.527,-0.06 0.177,-0.035 0.329,-0.094 0.481,-0.152 0.153,-0.059 0.282,-0.129 0.399,-0.199 0.117,-0.07 0.212,-0.142 0.282,-0.212 0.06,0.13 0.129,0.259 0.223,0.375 0.106,0.117 0.212,0.224 0.328,0.308 0.071,-0.036 0.153,-0.071 0.224,-0.119 0.083,-0.047 0.152,-0.094 0.224,-0.141 0.07,-0.048 0.141,-0.094 0.199,-0.153 0.059,-0.046 0.105,-0.093 0.153,-0.14 -0.095,-0.095 -0.177,-0.2 -0.26,-0.306 -0.081,-0.106 -0.139,-0.212 -0.186,-0.307 z" /><path
       style="fill:#000000"
       inkscape:connector-curvature="0"
       id="path93"
       d="m 215.46,82.21 c -0.198,0 -0.375,0.047 -0.539,0.131 -0.164,0.081 -0.341,0.21 -0.493,0.386 l -0.328,0.364 h -0.013 v -0.822 h -0.281 c -0.178,0 -0.388,0.012 -0.635,0.047 -0.245,0.035 -0.505,0.082 -0.775,0.164 v 0.26 l 0.764,0.316 v 3.968 c 0,0.07 -0.012,0.143 -0.047,0.2 -0.047,0.07 -0.094,0.129 -0.152,0.176 -0.059,0.059 -0.118,0.106 -0.199,0.153 -0.071,0.048 -0.142,0.081 -0.223,0.105 v 0.198 c 0.128,0.048 0.281,0.071 0.446,0.083 0.151,0.012 0.316,0.023 0.492,0.023 0.164,0 0.316,-0.012 0.459,-0.012 0.127,-0.012 0.257,-0.023 0.375,-0.035 0.117,-0.012 0.223,-0.035 0.316,-0.06 0.106,-0.022 0.212,-0.058 0.306,-0.093 v -0.223 l -0.812,-0.177 v -3.733 c 0.33,-0.317 0.671,-0.481 1.035,-0.481 0.129,0 0.245,0.024 0.375,0.071 0.13,0.046 0.246,0.116 0.352,0.198 0.06,-0.105 0.106,-0.222 0.143,-0.352 0.034,-0.13 0.047,-0.247 0.047,-0.353 -0.001,-0.338 -0.201,-0.502 -0.613,-0.502 z" /><path
       style="fill:#000000"
       inkscape:connector-curvature="0"
       id="path95"
       d="m 222.89,82.773 c -0.177,-0.188 -0.388,-0.328 -0.634,-0.433 -0.258,-0.105 -0.54,-0.154 -0.857,-0.154 -0.304,0 -0.61,0.07 -0.903,0.211 -0.294,0.13 -0.552,0.342 -0.774,0.6 -0.235,0.27 -0.423,0.599 -0.564,0.985 -0.141,0.399 -0.21,0.857 -0.21,1.363 0,0.41 0.069,0.785 0.187,1.114 0.129,0.329 0.306,0.611 0.528,0.846 0.224,0.235 0.47,0.411 0.775,0.539 0.293,0.131 0.599,0.189 0.938,0.189 0.306,0 0.588,-0.023 0.846,-0.083 0.247,-0.059 0.457,-0.129 0.635,-0.223 0.176,-0.095 0.304,-0.211 0.398,-0.329 0.095,-0.117 0.142,-0.246 0.142,-0.388 0,-0.058 0,-0.117 -0.012,-0.175 -0.012,-0.061 -0.023,-0.105 -0.035,-0.13 -0.106,0.069 -0.236,0.142 -0.365,0.211 -0.141,0.059 -0.271,0.117 -0.423,0.153 -0.14,0.047 -0.281,0.082 -0.434,0.105 -0.153,0.023 -0.294,0.035 -0.435,0.035 -0.247,0 -0.47,-0.046 -0.681,-0.141 -0.211,-0.095 -0.398,-0.234 -0.553,-0.411 -0.152,-0.177 -0.28,-0.388 -0.376,-0.646 -0.081,-0.259 -0.128,-0.553 -0.128,-0.882 h 3.464 c 0.012,-0.14 0.012,-0.281 0.012,-0.399 0,-0.128 0,-0.233 0,-0.352 0,-0.34 -0.047,-0.634 -0.142,-0.916 -0.094,-0.265 -0.224,-0.488 -0.399,-0.689 z m -2.912,1.749 c 0,-0.234 0.036,-0.445 0.118,-0.657 0.083,-0.2 0.177,-0.388 0.306,-0.54 0.116,-0.151 0.259,-0.282 0.423,-0.363 0.164,-0.094 0.317,-0.142 0.481,-0.142 0.164,0 0.328,0.036 0.469,0.105 0.153,0.071 0.271,0.177 0.376,0.317 0.105,0.14 0.188,0.317 0.246,0.527 0.059,0.212 0.096,0.459 0.096,0.752 h -2.515 z" /><path
       style="fill:#000000"
       inkscape:connector-curvature="0"
       id="path97"
       d="m 229.286,87.364 v -3.287 c 0,-0.294 -0.047,-0.563 -0.117,-0.798 -0.083,-0.224 -0.2,-0.411 -0.342,-0.564 -0.14,-0.153 -0.317,-0.27 -0.515,-0.352 -0.201,-0.083 -0.424,-0.118 -0.67,-0.118 -0.341,0 -0.669,0.059 -0.975,0.177 -0.307,0.117 -0.563,0.281 -0.764,0.481 v -0.635 h -0.281 c -0.177,0 -0.388,0.012 -0.635,0.047 -0.246,0.035 -0.505,0.082 -0.774,0.164 v 0.26 l 0.763,0.316 v 3.968 c 0,0.07 -0.012,0.143 -0.047,0.2 -0.046,0.07 -0.093,0.129 -0.152,0.176 -0.059,0.059 -0.117,0.106 -0.199,0.153 -0.07,0.048 -0.141,0.081 -0.223,0.105 v 0.198 c 0.128,0.048 0.281,0.071 0.435,0.083 0.152,0.012 0.304,0.023 0.445,0.023 0.153,0 0.281,-0.012 0.399,-0.012 0.13,-0.012 0.246,-0.023 0.352,-0.035 0.106,-0.012 0.211,-0.035 0.317,-0.06 0.094,-0.022 0.188,-0.058 0.294,-0.093 v -0.223 l -0.658,-0.177 v -3.945 c 0.13,-0.094 0.306,-0.188 0.528,-0.258 0.211,-0.07 0.446,-0.105 0.682,-0.105 0.175,0 0.329,0.023 0.48,0.082 0.141,0.06 0.259,0.153 0.364,0.281 0.105,0.118 0.188,0.282 0.247,0.493 0.047,0.2 0.083,0.446 0.083,0.729 v 2.241 c 0,0.212 -0.036,0.378 -0.106,0.495 -0.06,0.129 -0.165,0.211 -0.317,0.281 v 0.198 c 0.117,0.048 0.246,0.071 0.376,0.083 0.141,0.012 0.271,0.023 0.388,0.023 0.493,0 0.903,-0.07 1.232,-0.199 v -0.223 l -0.61,-0.173 z" /><path
       style="fill:#000000"
       inkscape:connector-curvature="0"
       id="path99"
       d="m 66.33,93.574 c -0.2,0 -0.4,0.012 -0.599,0.048 -0.211,0.023 -0.411,0.081 -0.634,0.14 v 0.247 l 0.717,0.223 -1.292,5.061 H 64.51 l -1.139,-4.756 c -0.083,-0.328 0,-0.527 0.223,-0.61 v -0.223 c -0.117,-0.034 -0.258,-0.069 -0.434,-0.093 -0.177,-0.013 -0.341,-0.024 -0.517,-0.024 -0.224,0 -0.435,0.012 -0.646,0.048 -0.2,0.022 -0.411,0.069 -0.634,0.141 v 0.258 l 0.622,0.187 -1.244,5.086 h -0.012 l -1.28,-4.732 c -0.047,-0.188 -0.047,-0.341 0,-0.446 0.059,-0.105 0.176,-0.188 0.364,-0.224 V 93.68 c -0.188,-0.046 -0.352,-0.082 -0.516,-0.094 -0.165,-0.012 -0.341,-0.012 -0.529,-0.012 -0.188,0 -0.387,0.012 -0.598,0.048 -0.2,0.034 -0.4,0.081 -0.599,0.152 v 0.246 l 0.646,0.198 2.196,7.01 0.446,-0.046 1.621,-6.152 h 0.012 l 1.632,6.198 0.458,-0.046 1.925,-6.458 c 0.059,-0.199 0.129,-0.364 0.224,-0.493 0.093,-0.117 0.211,-0.234 0.364,-0.329 V 93.691 C 66.977,93.656 66.86,93.622 66.742,93.597 66.623,93.586 66.494,93.574 66.33,93.574 z" /><path
       style="fill:#000000"
       inkscape:connector-curvature="0"
       id="path101"
       d="m 71.16,96.039 c -0.176,-0.188 -0.387,-0.328 -0.634,-0.434 -0.258,-0.104 -0.541,-0.151 -0.857,-0.151 -0.306,0 -0.61,0.068 -0.904,0.21 -0.293,0.13 -0.552,0.342 -0.774,0.599 -0.235,0.271 -0.424,0.6 -0.564,0.986 -0.14,0.399 -0.211,0.857 -0.211,1.362 0,0.41 0.071,0.786 0.188,1.115 0.13,0.328 0.306,0.609 0.529,0.846 0.223,0.234 0.469,0.411 0.775,0.539 0.293,0.13 0.598,0.188 0.939,0.188 0.305,0 0.586,-0.024 0.845,-0.083 0.247,-0.059 0.458,-0.127 0.634,-0.223 0.176,-0.095 0.305,-0.212 0.399,-0.329 0.094,-0.117 0.141,-0.246 0.141,-0.387 0,-0.059 0,-0.117 -0.012,-0.177 -0.012,-0.059 -0.023,-0.105 -0.035,-0.128 -0.106,0.069 -0.235,0.14 -0.364,0.211 -0.142,0.059 -0.271,0.118 -0.423,0.151 -0.141,0.048 -0.282,0.083 -0.435,0.105 -0.152,0.024 -0.293,0.036 -0.434,0.036 -0.247,0 -0.47,-0.047 -0.682,-0.142 -0.211,-0.093 -0.399,-0.234 -0.552,-0.41 -0.152,-0.175 -0.282,-0.387 -0.375,-0.646 -0.083,-0.259 -0.129,-0.553 -0.129,-0.88 h 3.463 C 71.7,98.26 71.7,98.118 71.7,98.001 c 0,-0.13 0,-0.235 0,-0.353 0,-0.341 -0.047,-0.635 -0.142,-0.915 -0.093,-0.27 -0.222,-0.493 -0.398,-0.694 z m -2.912,1.75 c 0,-0.234 0.035,-0.446 0.118,-0.658 0.082,-0.199 0.176,-0.386 0.305,-0.54 0.118,-0.151 0.258,-0.28 0.423,-0.362 0.165,-0.096 0.317,-0.143 0.481,-0.143 0.165,0 0.329,0.035 0.47,0.106 0.152,0.07 0.27,0.176 0.375,0.317 0.106,0.141 0.188,0.317 0.247,0.527 0.059,0.212 0.094,0.459 0.094,0.752 h -2.513 z" /><path
       style="fill:#000000"
       inkscape:connector-curvature="0"
       id="path103"
       d="m 75.29,100.407 c -0.152,0.059 -0.305,0.082 -0.481,0.082 -0.105,0 -0.212,-0.023 -0.293,-0.07 -0.094,-0.047 -0.165,-0.116 -0.223,-0.211 -0.071,-0.106 -0.118,-0.234 -0.153,-0.399 -0.035,-0.164 -0.047,-0.363 -0.047,-0.599 0,-0.223 0,-0.435 0,-0.657 0,-0.235 0.012,-0.471 0.012,-0.717 l 0.023,-1.479 h 1.503 l 0.082,-0.635 h -1.55 l 0.047,-1.057 -0.388,0.047 -1.268,1.256 v 0.389 H 73.2 l -0.035,1.561 c -0.012,0.27 -0.012,0.553 -0.024,0.857 -0.012,0.293 -0.012,0.588 -0.012,0.869 0,0.575 0.117,0.986 0.341,1.243 0.234,0.261 0.587,0.388 1.057,0.388 0.798,0 1.221,-0.351 1.268,-1.045 l -0.117,-0.046 c -0.118,0.094 -0.247,0.165 -0.388,0.223 z" /><path
       style="fill:#000000"
       inkscape:connector-curvature="0"
       id="path105"
       d="m 80.278,96.039 c -0.176,-0.188 -0.387,-0.328 -0.634,-0.434 -0.258,-0.104 -0.541,-0.151 -0.857,-0.151 -0.305,0 -0.61,0.068 -0.904,0.21 -0.293,0.13 -0.552,0.342 -0.775,0.599 -0.235,0.271 -0.422,0.6 -0.563,0.986 -0.141,0.399 -0.211,0.857 -0.211,1.362 0,0.41 0.07,0.786 0.188,1.115 0.129,0.328 0.306,0.609 0.529,0.846 0.223,0.234 0.469,0.411 0.774,0.539 0.294,0.13 0.599,0.188 0.939,0.188 0.305,0 0.587,-0.024 0.845,-0.083 0.247,-0.059 0.458,-0.127 0.634,-0.223 0.176,-0.095 0.305,-0.212 0.399,-0.329 0.094,-0.117 0.141,-0.246 0.141,-0.387 0,-0.059 0,-0.117 -0.012,-0.177 -0.012,-0.059 -0.023,-0.105 -0.035,-0.128 -0.106,0.069 -0.235,0.14 -0.364,0.211 -0.141,0.059 -0.27,0.118 -0.422,0.151 -0.141,0.048 -0.282,0.083 -0.435,0.105 -0.153,0.024 -0.293,0.036 -0.435,0.036 -0.247,0 -0.47,-0.047 -0.681,-0.142 -0.211,-0.093 -0.399,-0.234 -0.551,-0.41 -0.152,-0.175 -0.282,-0.387 -0.376,-0.646 -0.083,-0.259 -0.129,-0.553 -0.129,-0.88 h 3.464 c 0.012,-0.141 0.012,-0.282 0.012,-0.399 0,-0.13 0,-0.235 0,-0.353 0,-0.341 -0.047,-0.635 -0.141,-0.915 -0.095,-0.267 -0.224,-0.49 -0.4,-0.691 z m -2.912,1.75 c 0,-0.234 0.036,-0.446 0.118,-0.658 0.082,-0.199 0.176,-0.386 0.305,-0.54 0.118,-0.151 0.258,-0.28 0.422,-0.362 0.165,-0.096 0.318,-0.143 0.481,-0.143 0.165,0 0.329,0.035 0.47,0.106 0.152,0.07 0.27,0.176 0.375,0.317 0.106,0.141 0.188,0.317 0.247,0.527 0.059,0.212 0.094,0.459 0.094,0.752 h -2.512 z" /><path
       style="fill:#000000"
       inkscape:connector-curvature="0"
       id="path107"
       d="m 86.674,97.343 c 0,-0.293 -0.047,-0.562 -0.118,-0.798 -0.082,-0.223 -0.199,-0.412 -0.34,-0.564 -0.141,-0.152 -0.317,-0.27 -0.517,-0.353 -0.199,-0.081 -0.422,-0.117 -0.669,-0.117 -0.34,0 -0.669,0.061 -0.975,0.178 -0.305,0.116 -0.564,0.28 -0.763,0.48 V 95.534 H 83.01 c -0.176,0 -0.387,0.013 -0.634,0.047 -0.247,0.035 -0.505,0.083 -0.775,0.165 v 0.26 l 0.763,0.316 v 3.968 c 0,0.07 -0.012,0.141 -0.047,0.199 -0.047,0.07 -0.094,0.13 -0.152,0.176 -0.059,0.061 -0.118,0.107 -0.2,0.154 -0.07,0.047 -0.141,0.08 -0.223,0.105 v 0.198 c 0.129,0.047 0.282,0.071 0.434,0.082 0.153,0.012 0.306,0.023 0.447,0.023 0.152,0 0.282,-0.012 0.399,-0.012 0.129,-0.012 0.247,-0.022 0.353,-0.034 0.105,-0.013 0.211,-0.034 0.316,-0.06 0.094,-0.023 0.188,-0.059 0.293,-0.093 v -0.224 l -0.657,-0.176 v -3.946 c 0.129,-0.094 0.305,-0.187 0.528,-0.257 0.211,-0.07 0.446,-0.105 0.681,-0.105 0.176,0 0.329,0.023 0.481,0.082 0.141,0.059 0.258,0.152 0.364,0.28 0.105,0.117 0.188,0.283 0.246,0.495 0.047,0.198 0.082,0.445 0.082,0.727 v 2.243 c 0,0.211 -0.035,0.375 -0.105,0.494 -0.059,0.129 -0.165,0.21 -0.318,0.281 v 0.198 c 0.118,0.047 0.247,0.071 0.376,0.082 0.141,0.012 0.27,0.023 0.388,0.023 0.493,0 0.904,-0.07 1.232,-0.198 v -0.224 l -0.61,-0.176 v -3.284 z" /><path
       style="fill:#000000"
       inkscape:connector-curvature="0"
       id="path109"
       d="M 91.438,98.704 C 91.344,98.587 91.215,98.481 91.074,98.388 90.922,98.293 90.746,98.2 90.534,98.118 L 89.9,97.871 c -0.176,-0.07 -0.329,-0.129 -0.446,-0.199 -0.118,-0.058 -0.212,-0.129 -0.282,-0.212 -0.07,-0.069 -0.117,-0.141 -0.153,-0.234 -0.023,-0.082 -0.035,-0.176 -0.035,-0.281 0,-0.094 0.023,-0.188 0.059,-0.282 0.047,-0.083 0.118,-0.164 0.211,-0.234 0.094,-0.06 0.2,-0.117 0.34,-0.152 0.141,-0.035 0.306,-0.059 0.494,-0.059 0.223,0 0.458,0.046 0.692,0.129 0.247,0.082 0.458,0.188 0.646,0.316 0.012,-0.083 0.035,-0.164 0.047,-0.246 0.012,-0.07 0.012,-0.153 0.012,-0.247 0,-0.106 -0.024,-0.212 -0.071,-0.306 -0.047,-0.081 -0.129,-0.165 -0.235,-0.224 -0.105,-0.059 -0.247,-0.117 -0.41,-0.139 -0.165,-0.035 -0.364,-0.06 -0.599,-0.06 -0.305,0 -0.587,0.047 -0.833,0.14 -0.258,0.096 -0.469,0.224 -0.646,0.376 -0.176,0.153 -0.317,0.342 -0.423,0.553 -0.094,0.199 -0.141,0.422 -0.141,0.658 0,0.34 0.095,0.621 0.27,0.869 0.188,0.245 0.446,0.444 0.787,0.585 l 0.587,0.247 c 0.199,0.082 0.363,0.165 0.481,0.235 0.129,0.081 0.234,0.152 0.316,0.234 0.071,0.083 0.129,0.164 0.165,0.246 0.036,0.082 0.047,0.178 0.047,0.283 0,0.21 -0.082,0.375 -0.247,0.516 -0.176,0.141 -0.422,0.212 -0.751,0.212 -0.317,0 -0.599,-0.06 -0.868,-0.188 -0.259,-0.117 -0.529,-0.306 -0.787,-0.552 -0.035,0.07 -0.059,0.141 -0.082,0.223 -0.012,0.095 -0.023,0.177 -0.023,0.258 0,0.319 0.118,0.563 0.364,0.717 0.235,0.164 0.611,0.247 1.127,0.247 0.329,0 0.634,-0.047 0.893,-0.142 0.27,-0.094 0.504,-0.222 0.692,-0.386 0.188,-0.153 0.341,-0.342 0.447,-0.542 0.105,-0.211 0.152,-0.435 0.152,-0.657 0,-0.164 -0.024,-0.328 -0.059,-0.469 -0.048,-0.141 -0.117,-0.27 -0.2,-0.4 z" /><path
       style="fill:#000000"
       inkscape:connector-curvature="0"
       id="path111"
       d="m 96.155,100.208 c -0.106,0.059 -0.211,0.105 -0.329,0.152 -0.117,0.035 -0.234,0.07 -0.352,0.093 -0.117,0.024 -0.234,0.036 -0.352,0.036 -0.224,0 -0.447,-0.048 -0.646,-0.129 -0.2,-0.094 -0.375,-0.223 -0.528,-0.399 -0.152,-0.176 -0.271,-0.388 -0.353,-0.656 -0.082,-0.26 -0.129,-0.565 -0.129,-0.917 0,-0.339 0.036,-0.646 0.118,-0.916 0.082,-0.257 0.188,-0.493 0.329,-0.67 0.14,-0.187 0.293,-0.329 0.481,-0.434 0.176,-0.093 0.375,-0.14 0.575,-0.14 0.247,0 0.481,0.047 0.705,0.14 0.211,0.095 0.435,0.223 0.658,0.399 0.047,-0.093 0.083,-0.199 0.106,-0.295 0.023,-0.092 0.035,-0.197 0.035,-0.315 0,-0.095 -0.023,-0.188 -0.07,-0.27 -0.036,-0.083 -0.106,-0.165 -0.211,-0.224 -0.094,-0.059 -0.223,-0.104 -0.388,-0.142 -0.165,-0.034 -0.364,-0.057 -0.599,-0.057 -0.388,0 -0.751,0.068 -1.081,0.223 -0.34,0.14 -0.634,0.351 -0.88,0.622 -0.247,0.269 -0.447,0.597 -0.586,0.986 -0.141,0.387 -0.212,0.821 -0.212,1.303 0,0.411 0.059,0.774 0.188,1.115 0.129,0.328 0.293,0.61 0.517,0.845 0.211,0.235 0.458,0.424 0.74,0.552 0.293,0.13 0.587,0.188 0.916,0.188 0.282,0 0.529,-0.024 0.74,-0.071 0.211,-0.059 0.387,-0.129 0.528,-0.211 0.153,-0.093 0.259,-0.198 0.33,-0.315 0.082,-0.118 0.117,-0.249 0.117,-0.389 0,-0.116 -0.024,-0.212 -0.059,-0.294 -0.096,0.072 -0.19,0.131 -0.308,0.19 z" /><path
       style="fill:#000000"
       inkscape:connector-curvature="0"
       id="path113"
       d="m 102.289,97.343 c 0,-0.293 -0.036,-0.562 -0.118,-0.798 -0.07,-0.223 -0.188,-0.412 -0.329,-0.564 -0.141,-0.152 -0.316,-0.27 -0.516,-0.353 -0.2,-0.081 -0.434,-0.117 -0.681,-0.117 -0.364,0 -0.693,0.061 -0.963,0.166 -0.281,0.117 -0.528,0.28 -0.739,0.48 V 93.351 L 99,92.694 h -0.375 c -0.199,0 -0.422,0.022 -0.657,0.047 -0.235,0.035 -0.481,0.08 -0.751,0.164 v 0.258 l 0.763,0.316 v 6.811 c 0,0.07 -0.012,0.141 -0.047,0.199 -0.035,0.07 -0.082,0.13 -0.141,0.176 -0.059,0.061 -0.129,0.107 -0.2,0.154 -0.082,0.047 -0.152,0.08 -0.234,0.105 v 0.198 c 0.128,0.047 0.281,0.071 0.445,0.082 0.153,0.012 0.306,0.023 0.435,0.023 0.152,0 0.281,-0.012 0.411,-0.012 0.117,-0.012 0.235,-0.022 0.34,-0.034 0.117,-0.013 0.211,-0.034 0.317,-0.06 0.094,-0.023 0.188,-0.059 0.293,-0.093 v -0.224 l -0.657,-0.176 v -3.946 c 0.07,-0.046 0.153,-0.094 0.235,-0.14 0.094,-0.047 0.188,-0.082 0.293,-0.117 0.094,-0.035 0.211,-0.06 0.317,-0.082 0.117,-0.012 0.235,-0.023 0.34,-0.023 0.188,0 0.352,0.023 0.505,0.082 0.14,0.059 0.27,0.152 0.375,0.28 0.094,0.117 0.176,0.283 0.234,0.495 0.059,0.198 0.083,0.445 0.083,0.727 v 2.243 c 0,0.211 -0.035,0.375 -0.106,0.494 -0.07,0.129 -0.176,0.21 -0.316,0.281 v 0.198 c 0.117,0.047 0.234,0.071 0.375,0.082 0.129,0.012 0.258,0.023 0.375,0.023 0.258,0 0.481,-0.023 0.693,-0.046 0.199,-0.034 0.386,-0.083 0.551,-0.152 v -0.224 l -0.61,-0.176 v -3.284 z" /><path
       style="fill:#000000"
       inkscape:connector-curvature="0"
       id="path115"
       d="m 107.557,100.113 0.035,-1.901 c 0,-0.082 0.012,-0.188 0.012,-0.294 0,-0.105 0.011,-0.223 0.011,-0.328 0.012,-0.118 0.012,-0.224 0.012,-0.316 0.012,-0.105 0.012,-0.189 0.012,-0.248 0,-0.245 -0.047,-0.469 -0.129,-0.657 -0.082,-0.188 -0.211,-0.353 -0.376,-0.492 -0.164,-0.142 -0.353,-0.236 -0.587,-0.316 -0.234,-0.071 -0.504,-0.105 -0.798,-0.105 -0.34,0 -0.634,0.021 -0.881,0.08 -0.246,0.047 -0.447,0.13 -0.599,0.236 -0.152,0.093 -0.27,0.223 -0.34,0.362 -0.071,0.154 -0.106,0.318 -0.106,0.506 0,0.129 0.012,0.247 0.035,0.352 0.246,-0.245 0.529,-0.434 0.822,-0.562 0.305,-0.129 0.61,-0.199 0.939,-0.199 0.188,0 0.34,0.023 0.469,0.059 0.141,0.047 0.247,0.129 0.329,0.234 0.083,0.117 0.142,0.269 0.188,0.469 0.036,0.201 0.059,0.458 0.059,0.775 v 0.316 c -0.481,0 -0.916,0.06 -1.292,0.153 -0.375,0.105 -0.692,0.246 -0.952,0.423 -0.27,0.176 -0.468,0.376 -0.598,0.61 -0.141,0.223 -0.212,0.47 -0.212,0.728 0,0.188 0.036,0.364 0.106,0.517 0.083,0.164 0.177,0.307 0.317,0.424 0.129,0.116 0.282,0.199 0.469,0.269 0.177,0.059 0.376,0.095 0.599,0.095 0.153,0 0.306,-0.013 0.458,-0.047 0.165,-0.024 0.306,-0.059 0.446,-0.117 0.141,-0.046 0.259,-0.105 0.388,-0.177 0.118,-0.071 0.211,-0.14 0.293,-0.224 0.07,0.118 0.152,0.224 0.235,0.329 0.094,0.094 0.188,0.177 0.305,0.246 0.153,-0.069 0.305,-0.162 0.446,-0.28 0.153,-0.105 0.27,-0.211 0.353,-0.316 -0.106,-0.083 -0.2,-0.178 -0.282,-0.283 -0.082,-0.105 -0.139,-0.214 -0.186,-0.321 z m -0.893,0.165 c -0.071,0.047 -0.152,0.082 -0.247,0.117 -0.094,0.046 -0.188,0.082 -0.293,0.105 -0.094,0.023 -0.2,0.047 -0.305,0.071 -0.094,0.012 -0.188,0.023 -0.282,0.023 -0.305,0 -0.528,-0.071 -0.681,-0.212 -0.152,-0.141 -0.234,-0.329 -0.234,-0.563 0,-0.163 0.046,-0.306 0.129,-0.457 0.094,-0.142 0.223,-0.271 0.399,-0.376 0.165,-0.105 0.376,-0.188 0.634,-0.26 0.258,-0.058 0.552,-0.094 0.88,-0.094 v 1.646 z" /><path
       style="fill:#000000"
       inkscape:connector-curvature="0"
       id="path117"
       d="m 113.496,96.11 c -0.188,-0.21 -0.423,-0.364 -0.681,-0.471 -0.259,-0.105 -0.541,-0.164 -0.834,-0.164 -0.27,0 -0.54,0.059 -0.822,0.164 -0.271,0.118 -0.506,0.261 -0.693,0.435 v -0.54 h -0.281 c -0.176,0 -0.376,0.013 -0.623,0.047 -0.247,0.035 -0.517,0.083 -0.786,0.165 v 0.26 l 0.763,0.316 v 6.738 c 0,0.07 -0.012,0.142 -0.047,0.212 -0.035,0.059 -0.082,0.117 -0.153,0.176 -0.059,0.059 -0.117,0.105 -0.199,0.141 -0.071,0.047 -0.141,0.083 -0.223,0.106 v 0.198 c 0.141,0.036 0.282,0.071 0.434,0.083 0.153,0.012 0.306,0.022 0.446,0.022 0.306,0 0.587,-0.011 0.821,-0.047 0.236,-0.022 0.458,-0.069 0.658,-0.14 v -0.235 l -0.775,-0.164 v -2.302 c 0.093,0.047 0.211,0.083 0.353,0.105 0.141,0.024 0.27,0.036 0.399,0.036 0.376,0 0.739,-0.07 1.08,-0.211 0.353,-0.13 0.658,-0.34 0.917,-0.623 0.27,-0.281 0.481,-0.623 0.634,-1.033 0.152,-0.423 0.234,-0.892 0.234,-1.443 0,-0.399 -0.059,-0.751 -0.165,-1.057 -0.117,-0.305 -0.27,-0.562 -0.457,-0.774 z m -0.529,3.182 c -0.094,0.293 -0.234,0.54 -0.398,0.739 -0.165,0.188 -0.365,0.341 -0.587,0.422 -0.235,0.095 -0.481,0.143 -0.74,0.143 -0.141,0 -0.282,0 -0.411,-0.012 -0.129,-0.012 -0.246,-0.036 -0.34,-0.071 v -3.979 c 0.153,-0.094 0.317,-0.152 0.493,-0.199 0.176,-0.047 0.375,-0.071 0.587,-0.071 0.2,0 0.387,0.036 0.576,0.118 0.187,0.082 0.351,0.21 0.492,0.376 0.141,0.163 0.259,0.362 0.341,0.609 0.082,0.248 0.129,0.528 0.129,0.846 -10e-4,0.409 -0.048,0.774 -0.142,1.079 z" /></g></svg>