<?xml version="1.0" encoding="UTF-8" standalone="no"?>
<!-- Created with Inkscape (http://www.inkscape.org/) -->

<svg
   xmlns:dc="http://purl.org/dc/elements/1.1/"
   xmlns:cc="http://creativecommons.org/ns#"
   xmlns:rdf="http://www.w3.org/1999/02/22-rdf-syntax-ns#"
   xmlns:svg="http://www.w3.org/2000/svg"
   xmlns="http://www.w3.org/2000/svg"
   version="1.1"
   width="100%"
   height="100%"
   viewBox="0 0 220 220"
   id="svg2">
  <title
     id="title8">logo</title>
  <metadata
     id="metadata22">
    <rdf:RDF>
      <cc:Work
         rdf:about="">
        <dc:format>image/svg+xml</dc:format>
        <dc:type
           rdf:resource="http://purl.org/dc/dcmitype/StillImage" />
        <dc:title>logo</dc:title>
      </cc:Work>
    </rdf:RDF>
  </metadata>
  <defs
     id="defs4">
    <style
       id="style6" />
  </defs>
  <g
     id="Layer_2">
    <g
       id="Layer_1-2">
      <path
         d="m 0,0 220,0 0,220 -220,0 z"
         id="rect12" />
      <g
         transform="translate(13.56,38.95)"
         id="text14"
         style="font-size:18px;fill:#ffffff;font-family:'RobotoMono-Regular, Roboto Mono'">
        <path
           d="m 7.6376953,-3.3134766 -4.2714844,0 L 2.3378906,0 0.71191406,0 4.8427734,-12.796875 l 1.3623047,0 L 10.265625,0 8.6484375,0 7.6376953,-3.3134766 m -3.8320312,-1.415039 3.4013671,0 -1.6875,-5.5546874 -1.7138671,5.5546874"
           id="path3001"
           style="font-size:18px;fill:#ffffff;font-family:'RobotoMono-Regular, Roboto Mono'" />
        <path
           d="m 16.374023,-1.1425781 c 0.292963,1.1e-6 0.577143,-0.046874 0.852539,-0.140625 0.281244,-0.093749 0.530267,-0.2226548 0.747071,-0.3867188 0.216789,-0.16992 0.389641,-0.3662089 0.518554,-0.5888672 0.134758,-0.2285131 0.205071,-0.4746066 0.210938,-0.7382812 l 1.538086,0 c -0.0059,0.4218776 -0.117197,0.826174 -0.333984,1.2128906 -0.210947,0.3808608 -0.495126,0.7177745 -0.85254,1.0107422 -0.357429,0.28710986 -0.767585,0.51855494 -1.230468,0.69433594 -0.462897,0.16992178 -0.946295,0.25488263 -1.450196,0.25488281 -0.720708,-1.8e-7 -1.35059,-0.1289063 -1.889648,-0.38671875 -0.539066,-0.25781203 -0.990237,-0.60351481 -1.353516,-1.0371094 -0.357423,-0.4394514 -0.626954,-0.9433572 -0.808593,-1.5117187 -0.181642,-0.5742154 -0.272463,-1.1777305 -0.272461,-1.8105469 l 0,-0.3691406 c -2e-6,-0.6269476 0.09082,-1.2275329 0.272461,-1.8017578 0.181639,-0.5742115 0.45117,-1.0781172 0.808593,-1.5117188 0.363279,-0.4394444 0.81445,-0.7880769 1.353516,-1.0458984 0.539058,-0.257803 1.16894,-0.3867091 1.889648,-0.3867188 0.562494,9.7e-6 1.078119,0.09083 1.546875,0.272461 0.474602,0.1757904 0.881828,0.4189543 1.22168,0.7294921 0.345695,0.3046959 0.615226,0.6679768 0.808594,1.0898438 0.19335,0.4218822 0.290029,0.8730536 0.290039,1.3535156 l -1.538086,0 c -0.0059,-0.2871028 -0.07032,-0.5566338 -0.193359,-0.8085937 C 18.392571,-7.3066333 18.231438,-7.532219 18.026367,-7.7255859 17.821282,-7.9189374 17.575189,-8.071281 17.288086,-8.1826172 17.00683,-8.293937 16.702143,-8.349601 16.374023,-8.3496094 c -0.503911,8.4e-6 -0.928715,0.1025473 -1.274414,0.3076172 -0.339847,0.1992266 -0.615238,0.4628982 -0.826171,0.7910156 -0.210941,0.3222726 -0.363285,0.6855535 -0.457032,1.0898438 -0.08789,0.4043026 -0.131839,0.8115288 -0.131836,1.2216797 l 0,0.3691406 c -3e-6,0.4160198 0.04394,0.8291053 0.131836,1.2392578 0.09375,0.4042998 0.243161,0.7705104 0.448242,1.0986328 0.210934,0.3222676 0.486325,0.5859392 0.826172,0.7910157 0.345699,0.1992199 0.773433,0.2988292 1.283203,0.2988281"
           id="path3003"
           style="font-size:18px;fill:#ffffff;font-family:'RobotoMono-Regular, Roboto Mono'" />
        <path
           d="m 27.166992,-1.1425781 c 0.292963,1.1e-6 0.577142,-0.046874 0.852539,-0.140625 0.281244,-0.093749 0.530267,-0.2226548 0.747071,-0.3867188 0.216789,-0.16992 0.38964,-0.3662089 0.518554,-0.5888672 0.134758,-0.2285131 0.20507,-0.4746066 0.210938,-0.7382812 l 1.538086,0 c -0.0059,0.4218776 -0.117197,0.826174 -0.333985,1.2128906 -0.210946,0.3808608 -0.495125,0.7177745 -0.852539,1.0107422 -0.35743,0.28710986 -0.767585,0.51855494 -1.230469,0.69433594 -0.462897,0.16992178 -0.946295,0.25488263 -1.450195,0.25488281 -0.720708,-1.8e-7 -1.35059,-0.1289063 -1.889648,-0.38671875 -0.539066,-0.25781203 -0.990237,-0.60351481 -1.353516,-1.0371094 -0.357424,-0.4394514 -0.626955,-0.9433572 -0.808594,-1.5117187 -0.181642,-0.5742154 -0.272462,-1.1777305 -0.272461,-1.8105469 l 0,-0.3691406 c -1e-6,-0.6269476 0.09082,-1.2275329 0.272461,-1.8017578 0.181639,-0.5742115 0.45117,-1.0781172 0.808594,-1.5117188 0.363279,-0.4394444 0.81445,-0.7880769 1.353516,-1.0458984 0.539058,-0.257803 1.16894,-0.3867091 1.889648,-0.3867188 0.562494,9.7e-6 1.078119,0.09083 1.546875,0.272461 0.474602,0.1757904 0.881828,0.4189543 1.22168,0.7294921 0.345694,0.3046959 0.615225,0.6679768 0.808594,1.0898438 0.19335,0.4218822 0.290029,0.8730536 0.290039,1.3535156 l -1.538086,0 c -0.0059,-0.2871028 -0.07032,-0.5566338 -0.19336,-0.8085937 -0.117195,-0.2578052 -0.278327,-0.4833909 -0.483398,-0.6767578 -0.205085,-0.1933515 -0.451179,-0.3456951 -0.738281,-0.4570313 -0.281257,-0.1113198 -0.585944,-0.1669838 -0.914063,-0.1669922 -0.503911,8.4e-6 -0.928715,0.1025473 -1.274414,0.3076172 -0.339848,0.1992266 -0.615238,0.4628982 -0.826172,0.7910156 -0.210941,0.3222726 -0.363284,0.6855535 -0.457031,1.0898438 -0.08789,0.4043026 -0.131839,0.8115288 -0.131836,1.2216797 l 0,0.3691406 c -3e-6,0.4160198 0.04394,0.8291053 0.131836,1.2392578 0.09375,0.4042998 0.243161,0.7705104 0.448242,1.0986328 0.210934,0.3222676 0.486324,0.5859392 0.826172,0.7910157 0.345699,0.1992199 0.773432,0.2988292 1.283203,0.2988281"
           id="path3005"
           style="font-size:18px;fill:#ffffff;font-family:'RobotoMono-Regular, Roboto Mono'" />
        <path
           d="M 33.451172,-4.8427734 C 33.451171,-5.5283148 33.55078,-6.1640563 33.75,-6.75 c 0.199217,-0.5917895 0.483397,-1.1044843 0.852539,-1.5380859 0.374997,-0.4335851 0.829099,-0.7734285 1.362305,-1.0195313 0.533199,-0.2519436 1.133784,-0.37792 1.801758,-0.3779297 0.673822,9.7e-6 1.277337,0.1259861 1.810546,0.3779297 0.539055,0.2461028 0.993156,0.5859462 1.362305,1.0195313 0.374991,0.4336016 0.6621,0.9462964 0.861328,1.5380859 0.199209,0.5859437 0.298819,1.2216852 0.298828,1.9072266 l 0,0.1933593 c -9e-6,0.6855509 -0.09962,1.3212924 -0.298828,1.9072266 -0.199228,0.5859397 -0.486337,1.0957048 -0.861328,1.5292969 -0.369149,0.4335945 -0.82032,0.77343791 -1.353516,1.01953123 -0.533209,0.24609369 -1.133795,0.36914044 -1.801757,0.36914062 -0.673833,-1.8e-7 -1.280278,-0.12304693 -1.819336,-0.36914062 C 35.431638,-0.43945269 34.977536,-0.7792961 34.602539,-1.2128906 34.233397,-1.6464827 33.949217,-2.1562478 33.75,-2.7421875 33.55078,-3.3281217 33.451171,-3.9638632 33.451172,-4.6494141 l 0,-0.1933593 m 1.625976,0.1933593 c -2e-6,0.4687542 0.05566,0.916996 0.166993,1.3447266 0.111325,0.4218779 0.278317,0.7939478 0.500976,1.1162109 0.228512,0.3222675 0.512692,0.5771501 0.852539,0.7646485 0.339839,0.1875012 0.735347,0.2812511 1.186524,0.28125 0.445306,1.1e-6 0.834954,-0.093749 1.168945,-0.28125 0.339837,-0.1874984 0.621087,-0.442381 0.84375,-0.7646485 0.228508,-0.3222631 0.39843,-0.694333 0.509766,-1.1162109 0.11132,-0.4277306 0.166984,-0.8759724 0.166992,-1.3447266 l 0,-0.1933593 c -8e-6,-0.4628854 -0.0586,-0.9052677 -0.175781,-1.3271485 -0.111336,-0.4277278 -0.281258,-0.8027274 -0.509766,-1.125 -0.222663,-0.322258 -0.503913,-0.5771405 -0.84375,-0.7646484 -0.333991,-0.1933511 -0.726568,-0.2900307 -1.177734,-0.2900391 -0.451177,8.4e-6 -0.843755,0.096688 -1.177735,0.2900391 -0.333988,0.1875079 -0.615238,0.4423904 -0.84375,0.7646484 -0.222659,0.3222726 -0.389651,0.6972722 -0.500976,1.125 -0.111331,0.4218808 -0.166995,0.8642631 -0.166993,1.3271485 l 0,0.1933593"
           id="path3007"
           style="font-size:18px;fill:#ffffff;font-family:'RobotoMono-Regular, Roboto Mono'" />
        <path
           d="M 50.871094,-1.3095703 C 50.55468,-0.84081947 50.159173,-0.4746089 49.68457,-0.2109375 49.209955,0.04687495 48.662104,0.17578107 48.041016,0.17578125 47.542964,0.17578107 47.091793,0.09960928 46.6875,-0.05273437 46.2832,-0.21093729 45.937497,-0.45410111 45.650391,-0.78222656 45.363279,-1.1103505 45.140623,-1.5263657 44.982422,-2.0302734 44.830076,-2.5400365 44.753905,-3.1494109 44.753906,-3.8583984 l 0,-5.6513672 1.625977,0 0,5.6689453 c -3e-6,0.5156283 0.04101,0.9433623 0.123047,1.2832031 0.08203,0.339846 0.205074,0.6123066 0.36914,0.8173828 0.164059,0.1992203 0.363277,0.3398452 0.597657,0.421875 0.240229,0.082033 0.51562,0.1230481 0.826171,0.1230469 0.662104,1.2e-6 1.195307,-0.1347643 1.59961,-0.4042969 0.410149,-0.2695294 0.714836,-0.6328102 0.914062,-1.0898437 l 0,-6.8203125 1.634766,0 0,9.5097656 -1.476563,0 -0.09668,-1.3095703"
           id="path3009"
           style="font-size:18px;fill:#ffffff;font-family:'RobotoMono-Regular, Roboto Mono'" />
        <path
           d="m 56.953125,-9.5097656 0.114258,1.40625 c 0.345699,-0.4921789 0.770504,-0.8759676 1.274414,-1.1513672 0.503901,-0.2812405 1.066401,-0.424795 1.6875,-0.4306641 0.49804,9.7e-6 0.949212,0.070322 1.353515,0.2109375 0.410149,0.1406344 0.758781,0.3603607 1.045899,0.6591797 0.287101,0.2988367 0.506827,0.6796956 0.65918,1.1425781 0.158193,0.4570385 0.237295,1.0019598 0.237304,1.6347657 l 0,6.0380859 -1.625976,0 0,-6.0029297 c -8e-6,-0.4218686 -0.04688,-0.7792901 -0.140625,-1.0722656 -0.09376,-0.2929614 -0.234383,-0.5302658 -0.421875,-0.7119141 -0.181648,-0.1816326 -0.407234,-0.3134684 -0.676758,-0.3955078 -0.263678,-0.082023 -0.568365,-0.1230386 -0.914063,-0.1230469 -0.544926,8.3e-6 -1.025395,0.1377035 -1.441406,0.413086 -0.41016,0.2695388 -0.738284,0.6269604 -0.984375,1.0722656 l 0,6.8203125 -1.625976,0 0,-9.5097656 1.458984,0"
           id="path3011"
           style="font-size:18px;fill:#ffffff;font-family:'RobotoMono-Regular, Roboto Mono'" />
        <path
           d="m 70.136719,-11.8125 0,2.3027344 3.621093,0 0,1.2568359 -3.621093,0 0,5.1679688 c -6e-6,0.3691433 0.04687,0.6738305 0.140625,0.9140625 0.09374,0.2402363 0.22265,0.4335954 0.386718,0.5800781 0.164057,0.1406264 0.351557,0.2402357 0.5625,0.2988281 0.216791,0.058595 0.445306,0.087892 0.685547,0.087891 0.175774,1.2e-6 0.357415,-0.00879 0.544922,-0.026367 0.187492,-0.023436 0.369133,-0.049803 0.544922,-0.079102 0.181632,-0.029295 0.348624,-0.058592 0.500977,-0.087891 0.158194,-0.035155 0.2871,-0.064452 0.386718,-0.087891 l 0.228516,1.15136722 c -0.134775,0.0820315 -0.298837,0.15527362 -0.492187,0.21972657 -0.193368,0.0585938 -0.404306,0.10839844 -0.632813,0.14941406 C 72.76464,0.08203057 72.521477,0.11718678 72.263672,0.1406244 72.011711,0.1640617 71.759759,0.1757805 71.507812,0.1757807 71.085931,0.17578107 70.690424,0.11718738 70.321289,0 69.958003,-0.12304675 69.641597,-0.31347625 69.37207,-0.57128906 69.102535,-0.8349601 68.888668,-1.1718738 68.730469,-1.5820312 68.578121,-1.9980449 68.501949,-2.4990209 68.501953,-3.0849609 l 0,-5.1679688 -2.496094,0 0,-1.2568359 2.496094,0 0,-2.3027344 1.634766,0"
           id="path3013"
           style="font-size:18px;fill:#ffffff;font-family:'RobotoMono-Regular, Roboto Mono'" />
        <path
           d="m 83.329102,0 c -0.06446,-0.12304675 -0.117196,-0.27539035 -0.158204,-0.45703125 -0.03516,-0.18749936 -0.06153,-0.38085854 -0.0791,-0.58007815 -0.16407,0.1640634 -0.34864,0.31933668 -0.553711,0.46582034 -0.199226,0.1464848 -0.421882,0.27539092 -0.667969,0.38671875 -0.24024,0.1113282 -0.498053,0.19921873 -0.773437,0.26367187 -0.275396,0.06445298 -0.568365,0.09667951 -0.878907,0.09667969 -0.50391,-1.8e-7 -0.960941,-0.0732423 -1.371093,-0.21972656 -0.4043,-0.14648419 -0.750003,-0.34277305 -1.03711,-0.58886719 -0.281252,-0.25195224 -0.500978,-0.5478504 -0.659179,-0.8876953 -0.152346,-0.3457013 -0.228517,-0.7177712 -0.228516,-1.116211 -10e-7,-0.5214812 0.102538,-0.978512 0.307617,-1.3710937 0.210936,-0.3925737 0.506834,-0.7177687 0.887695,-0.9755859 0.380857,-0.2636667 0.837888,-0.4599555 1.371094,-0.5888672 0.539058,-0.1289006 1.139644,-0.1933536 1.801758,-0.1933594 l 1.775391,0 0,-0.7470703 c -8e-6,-0.2871026 -0.05274,-0.5449148 -0.158203,-0.7734375 -0.105476,-0.2285081 -0.25489,-0.4218673 -0.448243,-0.5800781 -0.193366,-0.1640545 -0.43067,-0.2900309 -0.711914,-0.3779297 -0.275396,-0.087882 -0.585943,-0.1318276 -0.93164,-0.131836 -0.322271,8.4e-6 -0.61231,0.041024 -0.870118,0.1230469 -0.251957,0.082039 -0.465824,0.1904378 -0.641601,0.3251953 -0.175785,0.1347734 -0.31348,0.2959061 -0.413086,0.4833985 -0.09375,0.1816479 -0.140628,0.3720773 -0.140625,0.571289 l -1.634766,0 c 0.0059,-0.3456959 0.09375,-0.6855393 0.263672,-1.0195312 0.175779,-0.3339762 0.424803,-0.632804 0.747071,-0.8964844 0.328122,-0.2695222 0.723629,-0.4863188 1.186523,-0.6503906 0.468746,-0.1640529 0.999019,-0.2460841 1.59082,-0.2460938 0.539057,9.7e-6 1.040033,0.067393 1.50293,0.2021485 0.462883,0.1289156 0.86132,0.3281341 1.195312,0.5976562 0.339836,0.2636805 0.606437,0.5947349 0.799805,0.9931641 0.193351,0.398445 0.29003,0.8642648 0.290039,1.3974609 l 0,4.4208984 c -9e-6,0.3164081 0.02929,0.6533218 0.08789,1.0107422 0.05858,0.35156325 0.140616,0.65918013 0.246094,0.9228516 l 0,0.140625 -1.696289,0 m -2.874024,-1.2392578 c 0.316401,1.2e-6 0.612299,-0.041014 0.887695,-0.1230469 0.275385,-0.08203 0.524408,-0.1904281 0.747071,-0.3251953 0.228509,-0.1347638 0.424797,-0.2871074 0.588867,-0.4570313 0.164055,-0.1757789 0.292961,-0.3574193 0.386719,-0.5449218 l 0,-1.9248047 -1.511719,0 c -0.949224,4.6e-6 -1.687504,0.1406295 -2.214844,0.421875 -0.527347,0.2812539 -0.791018,0.7236363 -0.791015,1.3271484 -3e-6,0.2343777 0.03808,0.4511743 0.114257,0.6503906 0.08203,0.1992208 0.202145,0.3720722 0.360352,0.5185547 0.158199,0.1406266 0.357418,0.2519546 0.597656,0.3339844 0.24023,0.082032 0.51855,0.1230481 0.834961,0.1230469"
           id="path3015"
           style="font-size:18px;fill:#ffffff;font-family:'RobotoMono-Regular, Roboto Mono'" />
        <path
           d="m 95.932617,-4.6494141 c -9e-6,0.6796915 -0.08204,1.3154331 -0.246094,1.9072266 -0.164071,0.5859397 -0.404305,1.0957048 -0.720703,1.5292969 -0.316414,0.4335945 -0.708992,0.77343791 -1.177734,1.01953123 -0.462898,0.24609369 -0.9961,0.36914044 -1.599609,0.36914062 -0.609381,-1.8e-7 -1.139654,-0.1083985 -1.590821,-0.32519531 C 90.15234,-0.36621057 89.771481,-0.67675714 89.455078,-1.0810547 L 89.375977,0 l -1.494141,0 0,-13.5 1.625976,0 0,5.0097656 c 0.310544,-0.3867098 0.685544,-0.682608 1.125,-0.8876953 0.439449,-0.2050685 0.952144,-0.3076075 1.538086,-0.3076172 0.609369,9.7e-6 1.148431,0.1201268 1.617188,0.3603516 0.468742,0.2402434 0.86132,0.5742275 1.177734,1.0019531 0.316398,0.4277423 0.556632,0.9404371 0.720703,1.538086 0.164053,0.591803 0.246085,1.242193 0.246094,1.9511718 l 0,0.1845703 m -1.625976,-0.1845703 c -8e-6,-0.4628853 -0.04688,-0.902338 -0.140625,-1.3183593 -0.0879,-0.4218685 -0.231453,-0.7910087 -0.430664,-1.1074219 -0.199226,-0.3222581 -0.459968,-0.5771406 -0.782227,-0.7646485 -0.322272,-0.1874918 -0.717779,-0.2812417 -1.186523,-0.28125 -0.281256,8.3e-6 -0.539068,0.038094 -0.773438,0.1142578 -0.234379,0.070321 -0.445317,0.1728596 -0.632812,0.3076172 -0.181645,0.128914 -0.345707,0.2841873 -0.492188,0.4658204 -0.140628,0.1757884 -0.260745,0.3691476 -0.360352,0.5800781 l 0,4.1572265 c 0.105466,0.21094 0.228513,0.4072289 0.369141,0.5888672 0.146481,0.1757832 0.313473,0.3310565 0.500977,0.4658203 0.187495,0.1347672 0.398433,0.2402358 0.632812,0.3164063 0.23437,0.070314 0.492183,0.1054699 0.773438,0.1054687 0.445306,1.2e-6 0.826165,-0.090819 1.142578,-0.2724609 0.322259,-0.1874983 0.583,-0.4394512 0.782226,-0.7558594 0.205071,-0.3164037 0.354485,-0.6826142 0.448243,-1.0986328 0.0996,-0.4160119 0.149406,-0.8554646 0.149414,-1.3183594 l 0,-0.1845703"
           id="path3017"
           style="font-size:18px;fill:#ffffff;font-family:'RobotoMono-Regular, Roboto Mono'" />
        <path
           d="m 98.920898,-9.5097656 4.860352,0 0,8.1035156 3.10254,0 0,1.40625 -7.962892,0 0,-1.40625 3.234372,0 0,-6.6884766 -3.234372,0 0,-1.415039 m 3.023442,-2.4960934 c -1e-5,-0.269519 0.0791,-0.495105 0.2373,-0.676758 0.16406,-0.187487 0.41015,-0.281237 0.73828,-0.28125 0.32226,1.3e-5 0.56543,0.09376 0.72949,0.28125 0.16406,0.181653 0.24609,0.407239 0.2461,0.676758 -1e-5,0.263683 -0.082,0.48341 -0.2461,0.659179 -0.16406,0.175793 -0.40723,0.263683 -0.72949,0.263672 -0.32813,1.1e-5 -0.57422,-0.08788 -0.73828,-0.263672 -0.15821,-0.175769 -0.23731,-0.395496 -0.2373,-0.659179"
           id="path3019"
           style="font-size:18px;fill:#ffffff;font-family:'RobotoMono-Regular, Roboto Mono'" />
        <path
           d="m 109.71387,-13.5 4.86035,0 0,12.09375 3.10254,0 0,1.40625 -7.96289,0 0,-1.40625 3.23437,0 0,-10.678711 -3.23437,0 0,-1.415039"
           id="path3021"
           style="font-size:18px;fill:#ffffff;font-family:'RobotoMono-Regular, Roboto Mono'" />
        <path
           d="m 120.50684,-9.5097656 4.86035,0 0,8.1035156 3.10254,0 0,1.40625 -7.96289,0 0,-1.40625 3.23437,0 0,-6.6884766 -3.23437,0 0,-1.415039 m 3.02343,-2.4960934 c 0,-0.269519 0.0791,-0.495105 0.23731,-0.676758 0.16406,-0.187487 0.41015,-0.281237 0.73828,-0.28125 0.32226,1.3e-5 0.56542,0.09376 0.72949,0.28125 0.16406,0.181653 0.24609,0.407239 0.2461,0.676758 -10e-6,0.263683 -0.082,0.48341 -0.2461,0.659179 -0.16407,0.175793 -0.40723,0.263683 -0.72949,0.263672 -0.32813,1.1e-5 -0.57422,-0.08788 -0.73828,-0.263672 -0.15821,-0.175769 -0.23731,-0.395496 -0.23731,-0.659179"
           id="path3023"
           style="font-size:18px;fill:#ffffff;font-family:'RobotoMono-Regular, Roboto Mono'" />
        <path
           d="m 134.89453,-11.8125 0,2.3027344 3.62109,0 0,1.2568359 -3.62109,0 0,5.1679688 c 0,0.3691433 0.0469,0.6738305 0.14063,0.9140625 0.0937,0.2402363 0.22265,0.4335954 0.38671,0.5800781 0.16406,0.1406264 0.35156,0.2402357 0.5625,0.2988281 0.2168,0.058595 0.44531,0.087892 0.68555,0.087891 0.17578,1.2e-6 0.35742,-0.00879 0.54492,-0.026367 0.1875,-0.023436 0.36914,-0.049803 0.54493,-0.079102 0.18163,-0.029295 0.34862,-0.058592 0.50097,-0.087891 0.1582,-0.035155 0.2871,-0.064452 0.38672,-0.087891 l 0.22852,1.15136722 c -0.13478,0.0820315 -0.29884,0.15527362 -0.49219,0.21972657 -0.19337,0.0585938 -0.40431,0.10839844 -0.63281,0.14941406 -0.22853,0.04687492 -0.47169,0.08203113 -0.7295,0.10546875 -0.25196,0.0234373 -0.50391,0.0351561 -0.75586,0.0351563 -0.42188,3.7e-7 -0.81738,-0.0585933 -1.18652,-0.1757807 -0.36328,-0.12304675 -0.67969,-0.31347625 -0.94922,-0.57128906 -0.26953,-0.26367104 -0.4834,-0.60058474 -0.6416,-1.01074214 -0.15235,-0.4160137 -0.22852,-0.9169897 -0.22851,-1.5029297 l 0,-5.1679688 -2.4961,0 0,-1.2568359 2.4961,0 0,-2.3027344 1.63476,0"
           id="path3025"
           style="font-size:18px;fill:#ffffff;font-family:'RobotoMono-Regular, Roboto Mono'" />
        <path
           d="m 145.33594,-3.375 0.42187,1.1513672 2.90039,-7.2861328 1.81934,0 -4.8252,10.977539 c -0.11133,0.2460921 -0.25488,0.506834 -0.43066,0.7822266 -0.16993,0.2753881 -0.37793,0.5302707 -0.62402,0.7646484 -0.2461,0.2343718 -0.53321,0.4306607 -0.86133,0.5888672 -0.32813,0.1581994 -0.70606,0.2373009 -1.13379,0.2373047 -0.0762,-3.8e-6 -0.16114,-0.00586 -0.25488,-0.017578 -0.0938,-0.00586 -0.18751,-0.017582 -0.28125,-0.035156 -0.0938,-0.011722 -0.18165,-0.026371 -0.26368,-0.043945 -0.082,-0.017582 -0.14941,-0.03223 -0.20214,-0.043945 l 0.26367,-1.3271484 c 0.041,-2.4e-6 0.0967,0.00293 0.16699,0.00879 0.0703,0.00586 0.14355,0.011716 0.21973,0.017578 0.0762,0.00586 0.14941,0.00879 0.21972,0.00879 0.0703,0.00586 0.12598,0.00879 0.167,0.00879 0.22265,-2.4e-6 0.4248,-0.061526 0.60644,-0.1845703 0.1875,-0.123049 0.35156,-0.2695332 0.49219,-0.4394532 0.14648,-0.1699234 0.26953,-0.3457045 0.36914,-0.5273437 0.10546,-0.1816417 0.18749,-0.33105562 0.24609,-0.44824219 l 0.65039,-1.265625 -4.0957,-9.06152341 1.81934,0 2.61035,6.1347656"
           id="path3027"
           style="font-size:18px;fill:#ffffff;font-family:'RobotoMono-Regular, Roboto Mono'" />
        <path
           d="m 37.324219,70 -9.501953,0 0,-21.567383 -14.082032,0 0,21.567383 -9.5361324,0 0,-49.765625 9.5361324,0 0,20.405273 14.082032,0 0,-20.405273 9.501953,0 0,49.765625"
           id="path3029" />
        <path
           d="m 69.897461,70 c -0.227892,-0.455729 -0.421577,-0.979817 -0.581055,-1.572266 -0.159532,-0.592445 -0.296251,-1.219072 -0.410156,-1.879882 -0.524115,0.569664 -1.127955,1.105145 -1.811523,1.606445 -0.683619,0.501303 -1.446964,0.945639 -2.29004,1.333008 -0.820334,0.364583 -1.731791,0.649414 -2.734375,0.854492 -1.002623,0.227864 -2.084978,0.341796 -3.24707,0.341797 -1.891291,-10e-7 -3.634453,-0.273438 -5.229492,-0.820313 -1.572276,-0.546874 -2.928069,-1.31022 -4.067383,-2.290039 -1.139329,-0.979814 -2.028,-2.141922 -2.666015,-3.486328 -0.638026,-1.36718 -0.957036,-2.848298 -0.957032,-4.443359 -4e-6,-3.89647 1.446935,-6.90428 4.340821,-9.023438 2.916655,-2.141905 7.257471,-3.212868 13.022461,-3.21289 l 5.297851,0 0,-2.1875 c -2.6e-5,-1.777318 -0.581081,-3.178683 -1.743164,-4.204102 -1.162133,-1.048147 -2.836936,-1.572235 -5.024414,-1.572266 -1.936867,3.1e-5 -3.349626,0.42158 -4.238281,1.264649 -0.888687,0.820341 -1.333022,1.925483 -1.333008,3.315429 l -9.501953,0 c -5e-6,-1.572238 0.341792,-3.064749 1.02539,-4.477539 0.706374,-1.412728 1.720371,-2.654589 3.041993,-3.725586 1.344391,-1.070928 2.973621,-1.914026 4.887695,-2.529296 1.936833,-0.637984 4.147118,-0.956994 6.630859,-0.957032 2.233051,3.8e-5 4.306616,0.273475 6.220703,0.820313 1.936821,0.546911 3.611624,1.35583 5.024414,2.426758 1.412728,1.070997 2.51787,2.426789 3.31543,4.067382 0.797491,1.617868 1.196253,3.497749 1.196289,5.639649 l 0,15.859375 c -3.6e-5,1.982429 0.12529,3.623052 0.375977,4.921875 0.250614,1.298831 0.615197,2.415366 1.09375,3.349609 l 0,0.581055 -9.638672,0 m -9.057617,-6.665039 c 0.957011,7e-6 1.845682,-0.113926 2.666015,-0.341797 0.820291,-0.227857 1.56085,-0.524081 2.22168,-0.888672 0.660783,-0.364575 1.230444,-0.774731 1.708984,-1.230469 0.47849,-0.478506 0.854466,-0.957021 1.12793,-1.435546 l 0,-6.357422 -4.853516,0 c -1.48114,1.7e-5 -2.745787,0.148128 -3.793945,0.444336 -1.048194,0.273453 -1.902685,0.672216 -2.563476,1.196289 -0.660822,0.501317 -1.150731,1.11655 -1.469727,1.845703 -0.319024,0.706393 -0.478529,1.481132 -0.478516,2.324219 -1.3e-5,1.276051 0.444322,2.33562 1.333008,3.17871 0.911443,0.843107 2.278629,1.264656 4.101563,1.264649"
           id="path3031" />
        <path
           d="m 105.13672,63.095703 c 0.93422,7e-6 1.82289,-0.136712 2.66601,-0.410156 0.84308,-0.27343 1.58364,-0.660799 2.22168,-1.16211 0.638,-0.501293 1.12791,-1.105133 1.46973,-1.811523 0.36456,-0.706369 0.52406,-1.492501 0.47852,-2.358398 l 8.95507,0 c 0.0455,1.914073 -0.35322,3.691415 -1.19628,5.332031 -0.82035,1.640631 -1.94828,3.05339 -3.38379,4.238281 -1.43558,1.184898 -3.11038,2.119142 -5.02442,2.802734 -1.8913,0.660807 -3.89651,0.991211 -6.01562,0.991211 -2.87112,0 -5.389016,-0.478515 -7.553714,-1.435546 -2.164725,-0.979816 -3.976247,-2.312823 -5.43457,-3.999024 -1.435554,-1.686191 -2.529303,-3.657218 -3.28125,-5.913086 -0.729171,-2.278633 -1.093754,-4.716781 -1.09375,-7.314453 l 0,-1.025391 c -4e-6,-2.597634 0.364579,-5.02439 1.09375,-7.280273 0.729161,-2.278617 1.82291,-4.261037 3.28125,-5.947266 1.458323,-1.686164 3.258452,-3.01917 5.400391,-3.999023 2.164697,-0.979781 4.671203,-1.469689 7.519533,-1.469727 2.27862,3.8e-5 4.38637,0.341835 6.32324,1.025391 1.93682,0.68363 3.60023,1.652053 4.99023,2.905273 1.41273,1.230502 2.50648,2.734406 3.28125,4.511719 0.77471,1.754585 1.13929,3.725612 1.09375,5.913086 l -8.95507,0 c 0.0455,-0.911434 -0.0912,-1.777319 -0.41016,-2.597656 -0.31904,-0.820286 -0.78616,-1.526665 -1.40137,-2.119141 -0.61526,-0.592419 -1.35582,-1.059541 -2.22168,-1.401367 -0.86591,-0.364553 -1.81154,-0.546845 -2.83691,-0.546875 -1.50393,3e-5 -2.74579,0.307647 -3.72559,0.922852 -0.97983,0.615262 -1.765963,1.435574 -2.358395,2.460937 -0.569676,1.025416 -0.979832,2.198918 -1.230469,3.520508 -0.227878,1.321636 -0.34181,2.688822 -0.341797,4.101562 l 0,1.025391 c -1.3e-5,1.435563 0.113919,2.825536 0.341797,4.169922 0.22785,1.321627 0.626613,2.495128 1.196289,3.520508 0.592432,1.002613 1.378565,1.811532 2.358395,2.426758 1.00259,0.615241 2.26724,0.922858 3.79395,0.922851"
           id="path3033" />
        <path
           d="m 144.64844,54.72168 -4.30664,3.999023 0,11.279297 -9.50196,0 0,-52.5 9.50196,0 0,30.009766 2.87109,-3.28125 10.21973,-11.210938 11.41601,0 L 150.90332,48.432617 166.79687,70 155.1416,70 144.64844,54.72168"
           id="path3035" />
      </g>
    </g>
  </g>
</svg>
