<?xml version="1.0" encoding="UTF-8" standalone="no"?>
<!-- Created with Inkscape (http://www.inkscape.org/) -->

<svg
   xmlns:dc="http://purl.org/dc/elements/1.1/"
   xmlns:cc="http://creativecommons.org/ns#"
   xmlns:rdf="http://www.w3.org/1999/02/22-rdf-syntax-ns#"
   xmlns:svg="http://www.w3.org/2000/svg"
   xmlns="http://www.w3.org/2000/svg"
   xmlns:sodipodi="http://sodipodi.sourceforge.net/DTD/sodipodi-0.dtd"
   xmlns:inkscape="http://www.inkscape.org/namespaces/inkscape"
   version="1.1"
   width="300"
   height="82.370003"
   id="svg2"
   xml:space="preserve"
   inkscape:version="0.48.4 r9939"
   sodipodi:docname="logo-open-state-black.svg"><sodipodi:namedview
     pagecolor="#ffffff"
     bordercolor="#666666"
     borderopacity="1"
     objecttolerance="10"
     gridtolerance="10"
     guidetolerance="10"
     inkscape:pageopacity="0"
     inkscape:pageshadow="2"
     inkscape:window-width="1300"
     inkscape:window-height="1028"
     id="namedview14"
     showgrid="false"
     inkscape:zoom="2.2096104"
     inkscape:cx="254.1793"
     inkscape:cy="113.68815"
     inkscape:window-x="0"
     inkscape:window-y="24"
     inkscape:window-maximized="0"
     inkscape:current-layer="svg2"
     fit-margin-top="10"
     fit-margin-left="10"
     fit-margin-right="10"
     fit-margin-bottom="10" /><metadata
     id="metadata8"><rdf:RDF><cc:Work
         rdf:about=""><dc:format>image/svg+xml</dc:format><dc:type
           rdf:resource="http://purl.org/dc/dcmitype/StillImage" /><dc:title /></cc:Work></rdf:RDF></metadata><defs
     id="defs6" /><g
     transform="matrix(1.0394979,0,0,-1.0394979,9.99991,72.369734)"
     id="g10"
     style="fill:#000000"><g
       transform="scale(0.1,0.1)"
       id="g12"
       style="fill:#000000"><path
         d="m 172.789,306.594 c -5.871,5.855 -12.617,0.715 -17.441,-4.114 l -6.434,-6.429 13.508,-13.508 8.359,8.359 c 4.414,4.414 7.317,10.375 2.008,15.692"
         id="path14"
         style="fill:#000000;fill-opacity:1;fill-rule:nonzero;stroke:none"
         inkscape:connector-curvature="0" /><path
         d="m 84.668,232.758 c -10.6875,-10.703 -9.9766,-25.391 0.6406,-36.004 10.6133,-10.617 25.3164,-11.34 36.0074,-0.645 10.688,10.692 9.977,25.399 -0.64,36.016 -10.602,10.594 -25.3205,11.328 -36.008,0.633"
         id="path16"
         style="fill:#000000;fill-opacity:1;fill-rule:nonzero;stroke:none"
         inkscape:connector-curvature="0" /><path
         d="m 318.813,373.336 -12.543,-12.543 -56.911,56.91 17.047,17.047 63.735,-15.355 0.164,0.16 -39.547,39.547 12.539,12.543 56.906,-56.911 -16.394,-16.398 -65.352,15.672 -0.16,-0.16 40.516,-40.512 z m -74.461,-74.449 -56.895,56.91 38.66,38.668 11.571,-11.582 -26.122,-26.125 10.602,-10.61 24.684,24.676 11.566,-11.578 -24.668,-24.672 11.57,-11.566 27.575,27.558 L 284.473,339 244.352,298.887 z m -61.672,-61.676 -56.914,56.914 21.144,21.129 c 11.813,11.816 25.403,17.844 38.906,4.348 13.34,-13.348 8.36,-26.532 -3.621,-38.504 l -9.168,-9.16 22.2,-22.196 -12.547,-12.531 z m -49.789,-52.684 c -17.77,-17.765 -42.3637,-19.043 -60.598,-0.8 -18.25,18.25 -16.961,42.839 0.8086,60.613 17.7578,17.765 42.3474,19.043 60.5974,0.793 18.242,-18.235 16.965,-42.824 -0.808,-60.606 z M 76.1758,441.555 C -22.3047,343.082 -25.9492,186.246 69.043,83.6484 L 434.078,448.684 c -102.586,94.992 -259.41,91.347 -357.9022,-7.129"
         id="path18"
         style="fill:#000000;fill-opacity:1;fill-rule:nonzero;stroke:none"
         inkscape:connector-curvature="0" /><path
         d="M 697.953,523.828 C 599.469,425.355 595.824,268.531 690.824,165.934 l 365.016,365.015 c -102.574,95.004 -259.41,91.352 -357.887,-7.121"
         id="path20"
         style="fill:#000000;fill-opacity:1;fill-rule:nonzero;stroke:none"
         inkscape:connector-curvature="0" /><path
         d="m 328.59,199.781 -24.676,10.703 10.777,-24.601 13.899,13.898"
         id="path22"
         style="fill:#000000;fill-opacity:1;fill-rule:nonzero;stroke:none"
         inkscape:connector-curvature="0" /><path
         d="m 436.387,262.242 -56.91,56.914 38.664,38.657 11.562,-11.583 -26.109,-26.125 10.601,-10.601 24.676,24.672 11.574,-11.571 -24.668,-24.675 11.567,-11.578 27.574,27.574 11.582,-11.578 -40.113,-40.106 z M 393.539,219.41 347.73,265.219 331.492,248.988 320.391,260.063 365.414,305.09 376.5,294 360.266,277.77 406.09,231.938 393.539,219.41 z m -33.109,-33.117 -16.973,7.141 -22.102,-22.102 7.317,-16.797 -13.824,-13.816 -32.313,81.492 10.371,10.363 81.672,-32.14 -14.148,-14.141 z m -77.055,-77.059 -45.816,45.821 -16.235,-16.231 -11.097,11.082 45.015,45.02 11.086,-11.094 -16.234,-16.23 45.828,-45.829 -12.547,-12.539 z M 234.027,56.9883 C 226.711,49.6719 218.102,45.4141 207.734,45.0156 l -0.886,18.7188 c 5.957,-0.8086 12.136,1.3789 16.32,5.5586 4.094,4.0898 6.758,10.5937 2.738,14.6093 -10.453,10.4571 -31.515,-21.8554 -50.48,-2.8906 -12.137,12.1485 -7.961,29.0313 3.222,40.1953 6.415,6.426 14.297,10.938 23.379,11.504 l 0.805,-18.02 c -4.586,0.567 -9.805,-2.246 -12.855,-5.293 -3.536,-3.554 -6.836,-10.0464 -2.571,-14.316 10.36,-10.3711 29.895,22.512 49.828,2.5703 12.707,-12.6875 8.532,-28.9375 -3.207,-40.664 z M 448.672,434.066 83.6719,69.0586 c 99.3911,-91.5352 259.4961,-91.2813 357.8911,7.1172 98.398,98.3902 98.664,258.5082 7.109,357.8902"
         id="path24"
         style="fill:#000000;fill-opacity:1;fill-rule:nonzero;stroke:none"
         inkscape:connector-curvature="0" /><path
         d="m 981.039,76.168 c 98.481,98.477 102.121,255.309 7.129,357.898 L 623.141,69.0469 c 102.586,-95.0078 259.414,-91.3477 357.898,7.1211"
         id="path26"
         style="fill:#000000;fill-opacity:1;fill-rule:nonzero;stroke:none"
         inkscape:connector-curvature="0" /></g></g></svg>