<svg id="Laag_1" data-name="Laag 1" xmlns="http://www.w3.org/2000/svg" viewBox="0 0 494.25 170.94"><defs><style>.cls-1{fill:#ec0000;}</style></defs><title>Logo_rood_kort</title><path class="cls-1" d="M167.37,59h11.12V40.77h.15L190.78,59h14L190.12,39.21,204.42,23H190.78l-12.3,14.23V3H167.37Zm-6.22-32.09A14.18,14.18,0,0,0,155,23.17a23,23,0,0,0-6.71-1.07,22.7,22.7,0,0,0-7.82,1.33,18.82,18.82,0,0,0-6.37,3.82,17.91,17.91,0,0,0-4.26,6A18.86,18.86,0,0,0,128.31,41a18.86,18.86,0,0,0,1.56,7.78,17.87,17.87,0,0,0,4.26,6,18.81,18.81,0,0,0,6.37,3.82,22.7,22.7,0,0,0,7.82,1.33A23,23,0,0,0,155,58.82a14.18,14.18,0,0,0,6.11-3.74l-7.34-7.71a9.74,9.74,0,0,1-2.3,1.93,6,6,0,0,1-3.19.82,8.5,8.5,0,0,1-6.56-2.52A9.31,9.31,0,0,1,139.43,41a9.32,9.32,0,0,1,2.33-6.6,8.5,8.5,0,0,1,6.56-2.52,6.75,6.75,0,0,1,3.19.78,6.25,6.25,0,0,1,2.3,2ZM110,43.22v2.37a6,6,0,0,1-.7,3,6.1,6.1,0,0,1-1.89,2.07,9.36,9.36,0,0,1-2.71,1.26,11.14,11.14,0,0,1-3.15.44,7.12,7.12,0,0,1-3.56-1,3.18,3.18,0,0,1-1.71-3,3.59,3.59,0,0,1,1.22-2.89,8.09,8.09,0,0,1,3-1.56,16,16,0,0,1,3.63-.63q1.89-.11,3.15-.11ZM110,59h10.23V40.7a38.25,38.25,0,0,0-.74-8,13.85,13.85,0,0,0-2.63-5.82,11.69,11.69,0,0,0-5-3.59,22.48,22.48,0,0,0-8-1.22,26,26,0,0,0-8.6,1.45,20.39,20.39,0,0,0-7.26,4.33L93.86,34a13.67,13.67,0,0,1,4-3.15,10.89,10.89,0,0,1,5-1.15,7.62,7.62,0,0,1,5,1.74A5.78,5.78,0,0,1,110,36.1q-2.3,0-5,.07a50,50,0,0,0-5.41.45,32.67,32.67,0,0,0-5.23,1.15A15.46,15.46,0,0,0,89.89,40a10.28,10.28,0,0,0-3.11,3.56,11,11,0,0,0-1.15,5.26,10.62,10.62,0,0,0,1,4.82,10.19,10.19,0,0,0,2.82,3.48,12.24,12.24,0,0,0,4.11,2.11,16.77,16.77,0,0,0,4.85.7,17,17,0,0,0,6.48-1.26,10.45,10.45,0,0,0,4.93-4.15H110ZM42.65,3V59H53.77V41.07A25.26,25.26,0,0,1,54,37.66a8.47,8.47,0,0,1,.93-2.93,5.31,5.31,0,0,1,2-2.08,6.86,6.86,0,0,1,3.48-.78,4.78,4.78,0,0,1,5,3.19,10.16,10.16,0,0,1,.67,3.08q.11,1.67.11,3.22V59H77.33V39.14a41.17,41.17,0,0,0-.52-6.74,14.55,14.55,0,0,0-2-5.41,9.87,9.87,0,0,0-4-3.59A15.32,15.32,0,0,0,64,22.1a12.7,12.7,0,0,0-3.7.52,11.7,11.7,0,0,0-3,1.33,9.86,9.86,0,0,0-2.15,1.85,6.7,6.7,0,0,0-1.26,2.07h-.15V3Z"/><polygon class="cls-1" points="60.09 159.79 18.51 159.79 18.51 155.98 58.41 155.98 128.56 79.4 205.8 79.4 265.09 0 494.25 0 494.25 3.81 267 3.81 207.71 83.21 130.24 83.21 60.09 159.79"/><polygon class="cls-1" points="122.11 114.11 119.42 111.41 135.81 95.02 235.02 95.03 235.02 98.83 137.39 98.83 122.11 114.11"/><polygon class="cls-1" points="0 68.4 0 72.21 71.07 72.21 71.07 107.22 52.89 122.84 55.37 125.73 74.88 108.97 74.88 68.4 0 68.4"/><polygon class="cls-1" points="24.54 131.04 20.73 131.04 20.73 102.21 29.1 94.7 31.65 97.54 24.54 103.91 24.54 131.04"/><path class="cls-1" d="M242.38,106.61a10.5,10.5,0,1,1,10.5-10.49A10.51,10.51,0,0,1,242.38,106.61Zm0-17.18a6.69,6.69,0,1,0,6.69,6.69A6.7,6.7,0,0,0,242.38,89.43Z"/><path class="cls-1" d="M47.81,138.6a10.5,10.5,0,1,1,10.5-10.49A10.51,10.51,0,0,1,47.81,138.6Zm0-17.18a6.69,6.69,0,1,0,6.69,6.69A6.7,6.7,0,0,0,47.81,121.42Z"/><path class="cls-1" d="M34,101A10,10,0,1,1,44,91,10,10,0,0,1,34,101Zm0-16.19A6.19,6.19,0,1,0,40.2,91,6.2,6.2,0,0,0,34,84.78Z"/><path class="cls-1" d="M116.59,129.63a10,10,0,1,1,10-10A10,10,0,0,1,116.59,129.63Zm0-16.19a6.19,6.19,0,1,0,6.19,6.19A6.2,6.2,0,0,0,116.59,113.44Z"/><path class="cls-1" d="M11.07,170.94a10,10,0,1,1,10-10A10,10,0,0,1,11.07,170.94Zm0-16.19a6.19,6.19,0,1,0,6.19,6.19A6.2,6.2,0,0,0,11.07,154.75Z"/><path class="cls-1" d="M396.41,108.23V105.6a25.33,25.33,0,0,1-4.71.54c-4,0-4.95-2.5-4.95-6V81.47H396V78.73h-9.24V69.79l-3,.72v8.22h-6v2.74h6v18.77c0,5.18,2.15,8.7,7.69,8.7a23.63,23.63,0,0,0,4.95-.72m-22-26.64v-3a16,16,0,0,0-2.92-.18c-4.17,0-8.16,2.21-9.47,6.32l-.36-6H359v29.79h3V94.22c0-6.26,2-12.93,9.47-12.93a12.17,12.17,0,0,1,2.92.3M344.11,94.76c0,5.72-3,11.8-10.49,11.8-4.23,0-7.45-2.14-7.45-6.43,0-3.64,2.86-6,7.27-6.26l10.67-.65Zm6.14,13.76V105.9a3.7,3.7,0,0,1-.83.06c-2,0-2.32-1.19-2.32-3.22V89.16a15.46,15.46,0,0,0-.77-5.72c-1.61-4.11-6-5.48-10.07-5.48-6.43,0-11.14,3.34-11.56,9.35h3c.3-4.41,3.87-6.56,8.58-6.56,4.53,0,7.87,1.85,7.87,6.79v2.92l-11,.77c-5.9.42-10,3.58-10,8.88,0,5.72,4.47,9.18,10.25,9.18,4.59,0,9.12-2.21,10.73-6.44,0,3.16,1,5.84,4.71,5.84a5.88,5.88,0,0,0,1.43-.18m-32.59-.3V105.6a25.32,25.32,0,0,1-4.71.54c-4,0-4.95-2.5-4.95-6V81.47h9.24V78.73H308V69.79l-3,.72v8.22h-6v2.74h6v18.77c0,5.18,2.14,8.7,7.69,8.7a23.62,23.62,0,0,0,4.95-.72m-23.05-8c0-3.63-2.62-7.45-8.22-8.22l-5.66-.77c-4.53-.6-5.78-2.5-5.78-5a5,5,0,0,1,2.32-4.11,8.83,8.83,0,0,1,5.36-1.37c3.1,0,5.42,1,6.79,2.62A7.21,7.21,0,0,1,290.91,87h3a9.09,9.09,0,0,0-2.26-5.48c-2-2.38-5.42-3.51-9-3.51a11.85,11.85,0,0,0-8.16,2.8,7.72,7.72,0,0,0-2.56,5.78,7,7,0,0,0,1.67,4.71c1.67,1.91,4.29,2.68,6.73,3l5.78.77c3.58.48,5.48,2.74,5.48,5.42a4.82,4.82,0,0,1-1.61,3.81c-1.49,1.49-3.93,2.21-7,2.21a9.79,9.79,0,0,1-7-2.38,7.43,7.43,0,0,1-2.2-4.59h-3a9,9,0,0,0,2.5,6c2.26,2.56,5.72,3.81,9.77,3.81s7.51-1.19,9.65-3.58a8,8,0,0,0,2-5.48"/><path class="cls-1" d="M481.64,43.3H461.92c0-5.9,3.87-10.84,10-10.84s9.59,5.18,9.71,10.84m3,.78c0-7.51-4.71-14.42-12.75-14.42a12.12,12.12,0,0,0-10.13,5.18c-2.32,3.16-2.92,6.85-2.92,10.61a17.2,17.2,0,0,0,3.81,11.32A12.09,12.09,0,0,0,472.17,61a11.92,11.92,0,0,0,8.52-3.46A11.08,11.08,0,0,0,484,51.29h-3.1a8.34,8.34,0,0,1-2.26,4.23,8.84,8.84,0,0,1-6.49,2.62A9,9,0,0,1,465,55a14.35,14.35,0,0,1-3.1-8.94h22.76c0-.71.06-1.25.06-2m-32.47,7.86c0-3.63-2.62-7.45-8.22-8.22l-5.66-.77c-4.53-.6-5.78-2.5-5.78-5a5,5,0,0,1,2.32-4.11,8.83,8.83,0,0,1,5.36-1.37c3.1,0,5.42,1,6.79,2.62a7.2,7.2,0,0,1,1.49,3.58h3a9.09,9.09,0,0,0-2.27-5.48c-2-2.38-5.42-3.52-9-3.52a11.85,11.85,0,0,0-8.16,2.8,7.72,7.72,0,0,0-2.56,5.78,7,7,0,0,0,1.67,4.71c1.67,1.91,4.29,2.68,6.73,3l5.78.78c3.57.48,5.48,2.74,5.48,5.42a4.82,4.82,0,0,1-1.61,3.81c-1.49,1.49-3.93,2.2-7,2.2a9.8,9.8,0,0,1-7-2.38,7.43,7.43,0,0,1-2.2-4.59h-3a9,9,0,0,0,2.5,6C433,59.75,436.48,61,440.53,61s7.51-1.19,9.65-3.58a8,8,0,0,0,2-5.48m-29.44,8.28V57.6a16,16,0,0,1-2.56.12c-2.5,0-3.1-1.55-3.1-3.57V17.2h-3V54.27c0,4.35,2.14,6.32,6,6.32a9.33,9.33,0,0,0,2.68-.36M399.41,46.46c0,5.72-3,11.8-10.49,11.8-4.23,0-7.45-2.15-7.45-6.44,0-3.63,2.86-6,7.27-6.26l10.67-.66Zm6.14,13.76V57.6a3.64,3.64,0,0,1-.83.06c-2,0-2.32-1.19-2.32-3.22V40.86a15.46,15.46,0,0,0-.77-5.72c-1.61-4.11-6-5.48-10.07-5.48C385.11,29.66,380.41,33,380,39h3c.3-4.41,3.87-6.55,8.58-6.55,4.53,0,7.87,1.85,7.87,6.79v2.92l-11,.78c-5.9.42-10,3.57-10,8.88,0,5.72,4.47,9.18,10.25,9.18,4.59,0,9.12-2.2,10.73-6.44,0,3.16,1,5.84,4.71,5.84a5.88,5.88,0,0,0,1.43-.18m-31.4-29.79H371L361.4,56l-10-25.56H348l11.8,29.79h3ZM328.33,43.3H308.6c0-5.9,3.87-10.84,10-10.84s9.59,5.18,9.71,10.84m3,.78c0-7.51-4.71-14.42-12.75-14.42a12.12,12.12,0,0,0-10.13,5.18c-2.32,3.16-2.92,6.85-2.92,10.61a17.2,17.2,0,0,0,3.81,11.32A12.09,12.09,0,0,0,318.85,61a11.92,11.92,0,0,0,8.52-3.46,11.08,11.08,0,0,0,3.34-6.26h-3.1a8.34,8.34,0,0,1-2.26,4.23,8.84,8.84,0,0,1-6.49,2.62A9,9,0,0,1,311.64,55a14.35,14.35,0,0,1-3.1-8.94h22.76c0-.71.06-1.25.06-2m-38,1.25c0,4.11-1.13,7.75-3.81,10.37a8.44,8.44,0,0,1-6.08,2.38,8.56,8.56,0,0,1-5.9-2.09c-2.74-2.44-3.93-6.44-3.93-10.67,0-3.81,1-7.63,3.34-10.13a8.41,8.41,0,0,1,6.38-2.62,8.64,8.64,0,0,1,6.26,2.32c2.74,2.56,3.75,6,3.75,10.43m2.92,14.9v-43h-3V35.44c-1.61-3.4-5.72-5.78-10-5.78a11.25,11.25,0,0,0-8.1,3.1c-3.16,3-4.65,7.75-4.65,12.63,0,5.12,1.55,9.89,4.89,12.81a11.53,11.53,0,0,0,7.93,2.8c4,0,8.28-2.32,9.89-6l.36,5.24Z"/></svg>